SplineFontDB: 1.0
FontName: DejaVuSansCondensed-BoldOblique
FullName: DejaVu Sans Condensed Bold Oblique
FamilyName: DejaVu Sans Condensed
Weight: Bold
Copyright: Copyright (c) 2003 by Bitstream, Inc. All Rights Reserved.\nDejaVu changes are in public domain\n
Version: 2.0
ItalicAngle: -11
UnderlinePosition: -227
UnderlineWidth: 258
Ascent: 1556
Descent: 492
Order2: 1
NeedsXUIDChange: 1
FSType: 0
PfmFamily: 17
TTFWeight: 700
TTFWidth: 5
LineGap: 0
VLineGap: 0
Panose: 2 11 8 6 3 3 4 11 2 4
OS2TypoAscent: 1556
OS2TypoAOffset: 0
OS2TypoDescent: -492
OS2TypoDOffset: 0
OS2TypoLinegap: 410
OS2WinAscent: 1901
OS2WinAOffset: 0
OS2WinDescent: 483
OS2WinDOffset: 0
HheadAscent: 1901
HheadAOffset: 0
HheadDescent: -483
HheadDOffset: 0
OS2Vendor: 'PfEd'
ScriptLang: 2
 1 latn 1 dflt 
 1 DFLT 1 dflt 
TtfTable: prep 1387
\,q1Gs5*_Wh%9bE('E=F3X+:;"55d<fjk3;]*$[a"4eLqeJSJ=rWCXK"4I/NdJa6prWCKl%L(2X
"3qAYbK>5:bPhUdI07U4N!7?&"3J=]aN%EeaG^5BJ-<p4-3_Fm"33Y0`[1f,rWC+8"2k*?_YOAN
$j4=r"Mk!=^\S&HI07/H"2+U8]"'?q])DfB/-EE]"1P^/"h/m^[RUG-q?+,("1.t/ZMjs2]*#;:
"0WaJY5SO*X9o-5rWB5/"0=`jX/ZL1X"jdW$3R:("/o?<"fVD&VtpLmq?*Qs('UQ6"/PnuU](@i
q?*Fa(^6UD"/$J5T4f8LT4A%q5l[B$"ePPmSL"B.=V_12q?*4U'EssA".GVh"e$,-R1KIfQO<ta
+9Rr<".#2u"d\ueQ!"k+PpHNsP8"1b-3KHp&d=I5"-O9!O]`G'OW=Oc'EaDV]*48p"-/@H"cg1s
Ndq7lN$SXe>m$'O"H4W/MuEg9A-7Zj&-[pi",Ip!LP@hnL\_+-F;kC<3Wk(h)?kgM",):="b[cr
K7XU;K+S3;JID^6%g.@k"+XMi"b?RSJ,TP!'a&js"+:(MHi=+nrW@E^"*b[cG8::(F;kC,q?(k^
)[1B\"*@Z]"`t[cF'07^F+".2rW@-e"*"5ADuKiVrW@!E"$lm&rW?qN%L$YI")8;JC-Vo9BH@=k
q?(D6('S@m"(taP"_[Z6Am>`JAfLnarW?\@]*2aE"(PeG"_5.H@t4\k=!\#Z>m"P$"C_93?sbMi
@/^78/d#E_('S"c"'o.?"^N5Q>RU^==V_0F9*8@#('Rn@"'J_;"^)TC=:bR9,m.3I"',=&<;ltu
rW?'t"&]%":erA@:mM2Z,m-mR"&8as9`>,erW>dh"%i=k8-oAh5QjPFV?KHg"%B'h6phms7/@!Q
)ZrGm"@?W$69kZ>I02b6"$\t#"[4I>4o,7CrW>7]"$6D`3A_-J3AL[rrW>)7"#`"D"ZAXGrW>"b
"#W=H1c#IB1^jIB$3N'_"#0oj"YkE-0J=@K0Ot8=";(ej)Zq_l""j?O/1VSA/5$'q";(ef)$;>k
&HsXW"">W."Xt8j-mo?*-k6>,$3MUd"!o3&"XPo+,Rso$+qOo&'E]Nj"!J1$"X3^E+9;fQ+>O$@

StartChar: .notdef
Encoding: 0 -1 0
AltUni: 0
Width: 1167
Flags: W
Fore
153.2 -362 m 1,0,-1
 153.2 1444 l 1,1,-1
 1074.8 1444 l 1,2,-1
 1074.8 -362 l 1,3,-1
 153.2 -362 l 1,0,-1
256.7 -248 m 1,4,-1
 972.2 -248 l 1,5,-1
 972.2 1329 l 1,6,-1
 256.7 1329 l 1,7,-1
 256.7 -248 l 1,4,-1
EndSplineSet
EndChar
StartChar: exclam
Encoding: 33 33 33
Width: 887
Flags: W
Fore
435.5 1493 m 1,0,-1
 760.4 1493 l 1,1,-1
 658.7 920 l 1,2,-1
 540.8 502 l 1,3,-1
 308.6 502 l 1,4,-1
 333.8 920 l 1,5,-1
 435.5 1493 l 1,0,-1
236.6 356 m 1,6,-1
 560.6 356 l 1,7,-1
 498.5 0 l 1,8,-1
 173.6 0 l 1,9,-1
 236.6 356 l 1,6,-1
EndSplineSet
EndChar
StartChar: quotedbl
Encoding: 34 34 34
Width: 1013
Flags: W
Fore
838.15 1493 m 1,0,-1
 838.15 938 l 1,1,-1
 624.85 938 l 1,2,-1
 624.85 1493 l 1,3,-1
 838.15 1493 l 1,0,-1
442.15 1493 m 1,4,-1
 442.15 938 l 1,5,-1
 228.85 938 l 1,6,-1
 228.85 1493 l 1,7,-1
 442.15 1493 l 1,4,-1
EndSplineSet
EndChar
StartChar: numbersign
Encoding: 35 35 35
Width: 1369
Flags: W
Fore
1008.1 872 m 1,0,-1
 770.5 872 l 1,1,-1
 707.5 598 l 1,2,-1
 945.1 598 l 1,3,-1
 1008.1 872 l 1,0,-1
906.4 1470 m 1,4,-1
 820 1085 l 1,5,-1
 1057.6 1085 l 1,6,-1
 1144.9 1470 l 1,7,-1
 1343.8 1470 l 1,8,-1
 1256.5 1085 l 1,9,-1
 1523.8 1085 l 1,10,-1
 1476.1 872 l 1,11,-1
 1208.8 872 l 1,12,-1
 1146.7 598 l 1,13,-1
 1414 598 l 1,14,-1
 1365.4 383 l 1,15,-1
 1099.9 383 l 1,16,-1
 1013.5 0 l 1,17,-1
 814.6 0 l 1,18,-1
 901 383 l 1,19,-1
 663.4 383 l 1,20,-1
 577 0 l 1,21,-1
 376.3 0 l 1,22,-1
 462.7 383 l 1,23,-1
 206.2 383 l 1,24,-1
 253.9 598 l 1,25,-1
 506.8 598 l 1,26,-1
 569.8 872 l 1,27,-1
 315.1 872 l 1,28,-1
 362.8 1085 l 1,29,-1
 619.3 1085 l 1,30,-1
 705.7 1470 l 1,31,-1
 906.4 1470 l 1,4,-1
EndSplineSet
EndChar
StartChar: dollar
Encoding: 36 36 36
Width: 1349
Flags: W
Fore
603.65 -301 m 1,0,-1
 457.85 -301 l 1,1,-1
 510.95 0 l 1,2,3
 396.65 5 396.65 5 298.55 26.5 c 128,-1,4
 200.45 48 200.45 48 116.75 86 c 1,5,-1
 160.85 348 l 1,6,7
 247.25 293 247.25 293 344.9 262.5 c 128,-1,8
 442.55 232 442.55 232 550.55 228 c 1,9,-1
 605.45 539 l 1,10,11
 416.45 570 416.45 570 330.5 650.5 c 128,-1,12
 244.55 731 244.55 731 244.55 874 c 0,13,14
 244.55 1073 244.55 1073 379.1 1195.5 c 128,-1,15
 513.65 1318 513.65 1318 743.15 1327 c 1,16,-1
 782.75 1556 l 1,17,-1
 927.65 1556 l 1,18,-1
 888.95 1329 l 1,19,20
 979.85 1323 979.85 1323 1064.45 1306 c 128,-1,21
 1149.05 1289 1149.05 1289 1228.25 1262 c 1,22,-1
 1184.15 1008 l 1,23,24
 1127.45 1045 1127.45 1045 1041.5 1068.5 c 128,-1,25
 955.55 1092 955.55 1092 848.45 1099 c 1,26,-1
 797.15 811 l 1,27,28
 988.85 775 988.85 775 1081.1 694 c 128,-1,29
 1173.35 613 1173.35 613 1173.35 479 c 0,30,31
 1173.35 259 1173.35 259 1037.9 134 c 128,-1,32
 902.45 9 902.45 9 655.85 0 c 1,33,-1
 603.65 -301 l 1,0,-1
656.75 836 m 1,34,-1
 702.65 1098 l 1,35,36
 627.05 1090 627.05 1090 582.05 1049.5 c 128,-1,37
 537.05 1009 537.05 1009 537.05 948 c 0,38,39
 537.05 900 537.05 900 566.3 872.5 c 128,-1,40
 595.55 845 595.55 845 656.75 836 c 1,34,-1
745.85 512 m 1,41,-1
 696.35 227 l 1,42,43
 785.45 232 785.45 232 833.6 275 c 128,-1,44
 881.75 318 881.75 318 881.75 393 c 0,45,46
 881.75 444 881.75 444 848.9 472.5 c 128,-1,47
 816.05 501 816.05 501 745.85 512 c 1,41,-1
EndSplineSet
EndChar
StartChar: percent
Encoding: 37 37 37
Width: 1949
Flags: W
Fore
1511.1 616 m 0,0,1
 1433.7 616 1433.7 616 1383.75 532 c 128,-1,2
 1333.8 448 1333.8 448 1333.8 315 c 0,3,4
 1333.8 228 1333.8 228 1361.25 184.5 c 128,-1,5
 1388.7 141 1388.7 141 1444.5 141 c 0,6,7
 1522.8 141 1522.8 141 1572.3 225 c 128,-1,8
 1621.8 309 1621.8 309 1621.8 444 c 0,9,10
 1621.8 529 1621.8 529 1593.45 572.5 c 128,-1,11
 1565.1 616 1565.1 616 1511.1 616 c 0,0,1
1536.3 784 m 0,12,13
 1677.6 784 1677.6 784 1762.65 698.5 c 128,-1,14
 1847.7 613 1847.7 613 1847.7 473 c 0,15,16
 1847.7 249 1847.7 249 1728.45 110 c 128,-1,17
 1609.2 -29 1609.2 -29 1416.6 -29 c 0,18,19
 1275.3 -29 1275.3 -29 1190.25 57.5 c 128,-1,20
 1105.2 144 1105.2 144 1105.2 285 c 0,21,22
 1105.2 507 1105.2 507 1224.45 645.5 c 128,-1,23
 1343.7 784 1343.7 784 1536.3 784 c 0,12,13
581.4 -29 m 1,24,-1
 360.9 -29 l 1,25,-1
 1472.4 1520 l 1,26,-1
 1692.9 1520 l 1,27,-1
 581.4 -29 l 1,24,-1
637.2 1520 m 0,28,29
 777.6 1520 777.6 1520 863.1 1434 c 128,-1,30
 948.6 1348 948.6 1348 948.6 1208 c 0,31,32
 948.6 985 948.6 985 828.45 846 c 128,-1,33
 708.3 707 708.3 707 515.7 707 c 0,34,35
 374.4 707 374.4 707 289.35 792 c 128,-1,36
 204.3 877 204.3 877 204.3 1018 c 0,37,38
 204.3 1240 204.3 1240 324.45 1380 c 128,-1,39
 444.6 1520 444.6 1520 637.2 1520 c 0,28,29
609.3 1352 m 0,40,41
 531.9 1352 531.9 1352 482.4 1267.5 c 128,-1,42
 432.9 1183 432.9 1183 432.9 1051 c 0,43,44
 432.9 963 432.9 963 460.35 918.5 c 128,-1,45
 487.8 874 487.8 874 542.7 874 c 0,46,47
 621 874 621 874 670.5 959 c 128,-1,48
 720 1044 720 1044 720 1180 c 0,49,50
 720 1264 720 1264 691.65 1308 c 128,-1,51
 663.3 1352 663.3 1352 609.3 1352 c 0,40,41
EndSplineSet
EndChar
StartChar: ampersand
Encoding: 38 38 38
Width: 1693
Flags: W
Fore
875.4 915 m 2,0,-1
 1142.7 541 l 1,1,2
 1198.5 604 1198.5 604 1239 692 c 128,-1,3
 1279.5 780 1279.5 780 1304.7 895 c 1,4,-1
 1584.6 895 l 1,5,6
 1545.9 720 1545.9 720 1474.35 577 c 128,-1,7
 1402.8 434 1402.8 434 1294.8 322 c 1,8,-1
 1525.2 0 l 1,9,-1
 1131 0 l 1,10,-1
 1055.4 106 l 1,11,12
 949.2 38 949.2 38 843 4.5 c 128,-1,13
 736.8 -29 736.8 -29 626.1 -29 c 0,14,15
 405.6 -29 405.6 -29 271.5 94 c 128,-1,16
 137.4 217 137.4 217 137.4 416 c 0,17,18
 137.4 567 137.4 567 223.35 693.5 c 128,-1,19
 309.3 820 309.3 820 490.2 934 c 1,20,21
 466.8 978 466.8 978 455.1 1023 c 128,-1,22
 443.4 1068 443.4 1068 443.4 1116 c 0,23,24
 443.4 1292 443.4 1292 579.3 1406 c 128,-1,25
 715.2 1520 715.2 1520 930.3 1520 c 0,26,27
 1012.2 1520 1012.2 1520 1098.15 1505.5 c 128,-1,28
 1184.1 1491 1184.1 1491 1275 1462 c 1,29,-1
 1227.3 1184 l 1,30,31
 1149 1232 1149 1232 1077.9 1255 c 128,-1,32
 1006.8 1278 1006.8 1278 935.7 1278 c 0,33,34
 858.3 1278 858.3 1278 813.3 1242 c 128,-1,35
 768.3 1206 768.3 1206 768.3 1145 c 0,36,37
 768.3 1107 768.3 1107 795.3 1048.5 c 128,-1,38
 822.3 990 822.3 990 875.4 915 c 2,0,-1
603.6 743 m 1,39,40
 531.6 692 531.6 692 494.25 625.5 c 128,-1,41
 456.9 559 456.9 559 456.9 483 c 0,42,43
 456.9 376 456.9 376 525.3 302.5 c 128,-1,44
 593.7 229 593.7 229 696.3 229 c 0,45,46
 750.3 229 750.3 229 803.4 250 c 128,-1,47
 856.5 271 856.5 271 909.6 313 c 1,48,-1
 603.6 743 l 1,39,40
EndSplineSet
EndChar
StartChar: quotesingle
Encoding: 39 39 39
Width: 595
Flags: W
Fore
420.15 1493 m 1,0,-1
 420.15 938 l 1,1,-1
 206.85 938 l 1,2,-1
 206.85 1493 l 1,3,-1
 420.15 1493 l 1,0,-1
EndSplineSet
EndChar
StartChar: parenleft
Encoding: 40 40 40
Width: 898
Flags: W
Fore
599.4 -270 m 1,0,-1
 337.5 -270 l 1,1,2
 267.3 -104 267.3 -104 232.65 55.5 c 128,-1,3
 198 215 198 215 198 373 c 0,4,5
 198 668 198 668 312.3 962.5 c 128,-1,6
 426.6 1257 426.6 1257 657 1554 c 1,7,-1
 918 1554 l 1,8,9
 708.3 1244 708.3 1244 605.25 940.5 c 128,-1,10
 502.2 637 502.2 637 502.2 332 c 0,11,12
 502.2 182 502.2 182 526.5 32.5 c 128,-1,13
 550.8 -117 550.8 -117 599.4 -270 c 1,0,-1
EndSplineSet
EndChar
StartChar: parenright
Encoding: 41 41 41
Width: 876
Flags: W
Fore
303.6 1554 m 1,0,-1
 567.3 1554 l 1,1,2
 636.6 1390 636.6 1390 670.8 1230.5 c 128,-1,3
 705 1071 705 1071 705 911 c 0,4,5
 705 613 705 613 591.15 318.5 c 128,-1,6
 477.3 24 477.3 24 248.7 -270 c 1,7,-1
 -15 -270 l 1,8,9
 194.7 40 194.7 40 298.2 344 c 128,-1,10
 401.7 648 401.7 648 401.7 954 c 0,11,12
 401.7 1104 401.7 1104 377.4 1252.5 c 128,-1,13
 353.1 1401 353.1 1401 303.6 1554 c 1,0,-1
EndSplineSet
EndChar
StartChar: asterisk
Encoding: 42 42 42
Width: 1017
Flags: W
Fore
980.55 1217 m 1,0,-1
 683.55 1044 l 1,1,-1
 980.55 870 l 1,2,-1
 912.15 729 l 1,3,-1
 612.45 913 l 1,4,-1
 612.45 569 l 1,5,-1
 459.45 569 l 1,6,-1
 459.45 913 l 1,7,-1
 158.85 729 l 1,8,-1
 90.4502 870 l 1,9,-1
 391.05 1044 l 1,10,-1
 90.4502 1217 l 1,11,-1
 158.85 1358 l 1,12,-1
 459.45 1176 l 1,13,-1
 459.45 1520 l 1,14,-1
 612.45 1520 l 1,15,-1
 612.45 1176 l 1,16,-1
 912.15 1358 l 1,17,-1
 980.55 1217 l 1,0,-1
EndSplineSet
EndChar
StartChar: plus
Encoding: 43 43 43
Width: 1630
Flags: W
Fore
965.1 1284 m 1,0,-1
 965.1 760 l 1,1,-1
 1434.9 760 l 1,2,-1
 1434.9 524 l 1,3,-1
 965.1 524 l 1,4,-1
 965.1 0 l 1,5,-1
 750.9 0 l 1,6,-1
 750.9 524 l 1,7,-1
 281.1 524 l 1,8,-1
 281.1 760 l 1,9,-1
 750.9 760 l 1,10,-1
 750.9 1284 l 1,11,-1
 965.1 1284 l 1,0,-1
EndSplineSet
EndChar
StartChar: comma
Encoding: 44 44 44
Width: 722
Flags: W
Fore
170.3 387 m 1,0,-1
 494.3 387 l 1,1,-1
 441.2 82 l 1,2,-1
 151.4 -291 l 1,3,-1
 -40.2998 -291 l 1,4,-1
 116.3 82 l 1,5,-1
 170.3 387 l 1,0,-1
EndSplineSet
EndChar
StartChar: hyphen
Encoding: 45 45 45
Width: 804
Flags: W
Fore
137.5 735 m 1,0,-1
 702.7 735 l 1,1,-1
 651.4 444 l 1,2,-1
 85.2998 444 l 1,3,-1
 137.5 735 l 1,0,-1
EndSplineSet
KernsSLIFO: 356 -301 0 0 221 -339 0 0 376 -339 0 0 89 -339 0 0 88 -206 0 0 87 -92 0 0 86 -149 0 0 84 -301 0 0
EndChar
StartChar: period
Encoding: 46 46 46
Width: 731
Flags: W
Fore
184.2 387 m 1,0,-1
 508.2 387 l 1,1,-1
 440.7 0 l 1,2,-1
 115.8 0 l 1,3,-1
 184.2 387 l 1,0,-1
EndSplineSet
EndChar
StartChar: slash
Encoding: 47 47 47
Width: 707
Flags: W
Fore
625.9 1493 m 1,0,-1
 834.7 1493 l 1,1,-1
 66.0996 -190 l 1,2,-1
 -142.7 -190 l 1,3,-1
 625.9 1493 l 1,0,-1
EndSplineSet
EndChar
StartChar: zero
Encoding: 48 48 48
Width: 1353
Flags: W
Fore
622.1 233 m 0,0,1
 691.4 233 691.4 233 744.95 279 c 128,-1,2
 798.5 325 798.5 325 834.5 414 c 0,3,4
 859.7 477 859.7 477 880.4 557.5 c 128,-1,5
 901.1 638 901.1 638 919.1 748 c 0,6,7
 934.4 837 934.4 837 942.5 912 c 128,-1,8
 950.6 987 950.6 987 950.6 1040 c 0,9,10
 950.6 1152 950.6 1152 914.6 1204.5 c 128,-1,11
 878.6 1257 878.6 1257 803 1257 c 0,12,13
 732.8 1257 732.8 1257 679.7 1212.5 c 128,-1,14
 626.6 1168 626.6 1168 591.5 1077 c 1,15,16
 564.5 1012 564.5 1012 542.45 929 c 128,-1,17
 520.4 846 520.4 846 504.2 748 c 0,18,19
 488.9 658 488.9 658 480.8 581 c 128,-1,20
 472.7 504 472.7 504 472.7 451 c 0,21,22
 472.7 340 472.7 340 509.6 286.5 c 128,-1,23
 546.5 233 546.5 233 622.1 233 c 0,0,1
1288.1 983 m 0,24,25
 1288.1 784 1288.1 784 1238.6 596 c 128,-1,26
 1189.1 408 1189.1 408 1100 266 c 0,27,28
 1009.1 120 1009.1 120 880.4 45.5 c 128,-1,29
 751.7 -29 751.7 -29 593.3 -29 c 0,30,31
 372.8 -29 372.8 -29 255.35 110 c 128,-1,32
 137.9 249 137.9 249 137.9 510 c 0,33,34
 137.9 706 137.9 706 186.95 894.5 c 128,-1,35
 236 1083 236 1083 324.2 1223 c 0,36,37
 416.9 1370 416.9 1370 544.7 1445 c 128,-1,38
 672.5 1520 672.5 1520 832.7 1520 c 0,39,40
 1051.4 1520 1051.4 1520 1169.75 1380.5 c 128,-1,41
 1288.1 1241 1288.1 1241 1288.1 983 c 0,24,25
EndSplineSet
EndChar
StartChar: one
Encoding: 49 49 49
Width: 1346
Flags: W
Fore
190.5 266 m 1,0,-1
 496.5 266 l 1,1,-1
 664.8 1231 l 1,2,-1
 338.1 1159 l 1,3,-1
 384 1421 l 1,4,-1
 708.9 1493 l 1,5,-1
 1038.3 1493 l 1,6,-1
 825 266 l 1,7,-1
 1129.2 266 l 1,8,-1
 1083.3 0 l 1,9,-1
 142.8 0 l 1,10,-1
 190.5 266 l 1,0,-1
EndSplineSet
EndChar
StartChar: two
Encoding: 50 50 50
Width: 1348
Flags: W
Fore
521.75 283 m 1,0,-1
 1105.85 283 l 1,1,-1
 1056.35 0 l 1,2,-1
 80.75 0 l 1,3,-1
 131.15 285 l 1,4,-1
 702.65 764 l 1,5,6
 796.25 844 796.25 844 845.3 926 c 128,-1,7
 894.35 1008 894.35 1008 894.35 1085 c 0,8,9
 894.35 1167 894.35 1167 843.95 1212 c 128,-1,10
 793.55 1257 793.55 1257 702.65 1257 c 0,11,12
 617.15 1257 617.15 1257 511.85 1219.5 c 128,-1,13
 406.55 1182 406.55 1182 274.25 1104 c 1,14,-1
 331.85 1421 l 1,15,16
 454.25 1471 454.25 1471 572.15 1495.5 c 128,-1,17
 690.05 1520 690.05 1520 805.25 1520 c 0,18,19
 1010.45 1520 1010.45 1520 1128.35 1421.5 c 128,-1,20
 1246.25 1323 1246.25 1323 1246.25 1153 c 0,21,22
 1246.25 1007 1246.25 1007 1174.25 887 c 128,-1,23
 1102.25 767 1102.25 767 857.45 563 c 2,24,-1
 521.75 283 l 1,0,-1
EndSplineSet
EndChar
StartChar: three
Encoding: 51 51 51
Width: 1347
Flags: W
Fore
935.55 805 m 1,0,1
 1037.25 779 1037.25 779 1093.95 700 c 128,-1,2
 1150.65 621 1150.65 621 1150.65 506 c 0,3,4
 1150.65 258 1150.65 258 973.8 114.5 c 128,-1,5
 796.95 -29 796.95 -29 487.35 -29 c 0,6,7
 370.35 -29 370.35 -29 264.6 -10.5 c 128,-1,8
 158.85 8 158.85 8 65.25 45 c 1,9,-1
 116.55 342 l 1,10,11
 196.65 290 196.65 290 291.15 261.5 c 128,-1,12
 385.65 233 385.65 233 480.15 233 c 0,13,14
 632.25 233 632.25 233 720.9 296.5 c 128,-1,15
 809.55 360 809.55 360 809.55 467 c 0,16,17
 809.55 556 809.55 556 742.05 600.5 c 128,-1,18
 674.55 645 674.55 645 538.65 645 c 2,19,-1
 400.95 645 l 1,20,-1
 445.05 893 l 1,21,-1
 590.85 893 l 2,22,23
 732.15 893 732.15 893 814.5 950 c 128,-1,24
 896.85 1007 896.85 1007 896.85 1104 c 0,25,26
 896.85 1180 896.85 1180 839.7 1220 c 128,-1,27
 782.55 1260 782.55 1260 673.65 1260 c 0,28,29
 597.15 1260 597.15 1260 507.15 1238 c 128,-1,30
 417.15 1216 417.15 1216 319.95 1174 c 1,31,-1
 369.45 1456 l 1,32,33
 475.65 1488 475.65 1488 578.7 1504 c 128,-1,34
 681.75 1520 681.75 1520 782.55 1520 c 0,35,36
 1010.25 1520 1010.25 1520 1125 1436 c 128,-1,37
 1239.75 1352 1239.75 1352 1239.75 1186 c 0,38,39
 1239.75 1037 1239.75 1037 1160.1 937.5 c 128,-1,40
 1080.45 838 1080.45 838 935.55 805 c 1,0,1
EndSplineSet
EndChar
StartChar: four
Encoding: 52 52 52
Width: 1347
Flags: W
Fore
824.5 1165 m 1,0,-1
 346.6 551 l 1,1,-1
 715.6 551 l 1,2,-1
 824.5 1165 l 1,0,-1
815.5 1493 m 1,3,-1
 1209.7 1493 l 1,4,-1
 1043.2 551 l 1,5,-1
 1234.9 551 l 1,6,-1
 1187.2 272 l 1,7,-1
 995.5 272 l 1,8,-1
 947.8 0 l 1,9,-1
 619.3 0 l 1,10,-1
 667.9 272 l 1,11,-1
 63.0996 272 l 1,12,-1
 121.6 602 l 1,13,-1
 815.5 1493 l 1,3,-1
EndSplineSet
EndChar
StartChar: five
Encoding: 53 53 53
Width: 1349
Flags: W
Fore
393.1 1493 m 1,0,-1
 1254.4 1493 l 1,1,-1
 1204.9 1210 l 1,2,-1
 619.9 1210 l 1,3,-1
 579.4 979 l 1,4,5
 619 991 619 991 661.75 997.5 c 128,-1,6
 704.5 1004 704.5 1004 747.7 1004 c 0,7,8
 953.8 1004 953.8 1004 1069.9 899.5 c 128,-1,9
 1186 795 1186 795 1186 610 c 0,10,11
 1186 316 1186 316 1006.9 143.5 c 128,-1,12
 827.8 -29 827.8 -29 520.9 -29 c 0,13,14
 408.4 -29 408.4 -29 302.2 -4.5 c 128,-1,15
 196 20 196 20 91.5996 70 c 1,16,-1
 144.7 373 l 1,17,18
 244.6 301 244.6 301 338.65 267 c 128,-1,19
 432.7 233 432.7 233 529.9 233 c 0,20,21
 672.1 233 672.1 233 757.6 315.5 c 128,-1,22
 843.1 398 843.1 398 843.1 532 c 0,23,24
 843.1 628 843.1 628 778.3 684.5 c 128,-1,25
 713.5 741 713.5 741 601.9 741 c 0,26,27
 526.3 741 526.3 741 438.55 719.5 c 128,-1,28
 350.8 698 350.8 698 246.4 653 c 1,29,-1
 393.1 1493 l 1,0,-1
EndSplineSet
EndChar
StartChar: six
Encoding: 54 54 54
Width: 1355
Flags: W
Fore
739.6 737 m 0,0,1
 637 737 637 737 571.3 643 c 128,-1,2
 505.6 549 505.6 549 505.6 401 c 0,3,4
 505.6 312 505.6 312 546.1 262.5 c 128,-1,5
 586.6 213 586.6 213 658.6 213 c 0,6,7
 760.3 213 760.3 213 826.45 305.5 c 128,-1,8
 892.6 398 892.6 398 892.6 539 c 0,9,10
 892.6 635 892.6 635 853 686 c 128,-1,11
 813.4 737 813.4 737 739.6 737 c 0,0,1
1289.5 1454 m 1,12,-1
 1240.9 1178 l 1,13,14
 1163.5 1222 1163.5 1222 1090.6 1244 c 128,-1,15
 1017.7 1266 1017.7 1266 944.8 1266 c 0,16,17
 777.4 1266 777.4 1266 673.9 1166 c 128,-1,18
 570.4 1066 570.4 1066 547.9 885 c 1,19,20
 618.1 936 618.1 936 692.35 960.5 c 128,-1,21
 766.6 985 766.6 985 850.3 985 c 0,22,23
 1015.9 985 1015.9 985 1121.2 876 c 128,-1,24
 1226.5 767 1226.5 767 1226.5 598 c 0,25,26
 1226.5 322 1226.5 322 1064.05 145.5 c 128,-1,27
 901.6 -31 901.6 -31 646 -31 c 0,28,29
 416.5 -31 416.5 -31 290.5 113.5 c 128,-1,30
 164.5 258 164.5 258 164.5 522 c 0,31,32
 164.5 726 164.5 726 220.3 911.5 c 128,-1,33
 276.1 1097 276.1 1097 376.9 1231 c 0,34,35
 484.9 1374 484.9 1374 632.05 1446 c 128,-1,36
 779.2 1518 779.2 1518 962.8 1518 c 0,37,38
 1047.4 1518 1047.4 1518 1127.5 1502 c 128,-1,39
 1207.6 1486 1207.6 1486 1289.5 1454 c 1,12,-1
EndSplineSet
EndChar
StartChar: seven
Encoding: 55 55 55
Width: 1361
Flags: W
Fore
344.55 1493 m 1,0,-1
 1357.95 1493 l 1,1,-1
 1317.45 1274 l 1,2,-1
 569.55 0 l 1,3,-1
 223.05 0 l 1,4,-1
 934.05 1210 l 1,5,-1
 296.85 1210 l 1,6,-1
 344.55 1493 l 1,0,-1
EndSplineSet
EndChar
StartChar: eight
Encoding: 56 56 56
Width: 1352
Flags: W
Fore
688.95 668 m 0,0,1
 583.65 668 583.65 668 513 588.5 c 128,-1,2
 442.35 509 442.35 509 442.35 393 c 0,3,4
 442.35 310 442.35 310 488.25 261.5 c 128,-1,5
 534.15 213 534.15 213 613.35 213 c 0,6,7
 720.45 213 720.45 213 790.65 291.5 c 128,-1,8
 860.85 370 860.85 370 860.85 487 c 0,9,10
 860.85 570 860.85 570 814.5 619 c 128,-1,11
 768.15 668 768.15 668 688.95 668 c 0,0,1
467.55 795 m 1,12,13
 370.35 840 370.35 840 322.2 912 c 128,-1,14
 274.05 984 274.05 984 274.05 1085 c 0,15,16
 274.05 1288 274.05 1288 423.9 1404 c 128,-1,17
 573.75 1520 573.75 1520 838.35 1520 c 0,18,19
 1050.75 1520 1050.75 1520 1167.75 1432 c 128,-1,20
 1284.75 1344 1284.75 1344 1284.75 1184 c 0,21,22
 1284.75 1042 1284.75 1042 1203.3 941 c 128,-1,23
 1121.85 840 1121.85 840 970.65 795 c 1,24,25
 1080.45 748 1080.45 748 1132.65 669 c 128,-1,26
 1184.85 590 1184.85 590 1184.85 469 c 0,27,28
 1184.85 239 1184.85 239 1023.3 105 c 128,-1,29
 861.75 -29 861.75 -29 580.05 -29 c 0,30,31
 357.75 -29 357.75 -29 234 69.5 c 128,-1,32
 110.25 168 110.25 168 110.25 344 c 0,33,34
 110.25 503 110.25 503 205.2 622.5 c 128,-1,35
 300.15 742 300.15 742 467.55 795 c 1,12,13
806.85 1278 m 0,36,37
 715.05 1278 715.05 1278 659.7 1218.5 c 128,-1,38
 604.35 1159 604.35 1159 604.35 1061 c 0,39,40
 604.35 993 604.35 993 644.4 951 c 128,-1,41
 684.45 909 684.45 909 750.15 909 c 0,42,43
 841.95 909 841.95 909 897.3 968.5 c 128,-1,44
 952.65 1028 952.65 1028 952.65 1126 c 0,45,46
 952.65 1195 952.65 1195 912.6 1236.5 c 128,-1,47
 872.55 1278 872.55 1278 806.85 1278 c 0,36,37
EndSplineSet
EndChar
StartChar: nine
Encoding: 57 57 57
Width: 1353
Flags: W
Fore
146.55 33 m 1,0,-1
 194.25 309 l 1,1,2
 272.55 264 272.55 264 345.45 242.5 c 128,-1,3
 418.35 221 418.35 221 491.25 221 c 0,4,5
 658.65 221 658.65 221 762.15 321 c 128,-1,6
 865.65 421 865.65 421 887.25 602 c 1,7,8
 817.95 551 817.95 551 744.15 526.5 c 128,-1,9
 670.35 502 670.35 502 586.65 502 c 0,10,11
 421.95 502 421.95 502 316.65 611 c 128,-1,12
 211.35 720 211.35 720 211.35 889 c 0,13,14
 211.35 1165 211.35 1165 373.8 1341.5 c 128,-1,15
 536.25 1518 536.25 1518 791.85 1518 c 0,16,17
 1021.35 1518 1021.35 1518 1146.9 1373.5 c 128,-1,18
 1272.45 1229 1272.45 1229 1272.45 965 c 0,19,20
 1272.45 762 1272.45 762 1216.65 576.5 c 128,-1,21
 1160.85 391 1160.85 391 1059.15 256 c 0,22,23
 951.15 113 951.15 113 804.9 41 c 128,-1,24
 658.65 -31 658.65 -31 475.05 -31 c 0,25,26
 389.55 -31 389.55 -31 308.55 -15 c 128,-1,27
 227.55 1 227.55 1 146.55 33 c 1,0,-1
695.55 750 m 0,28,29
 798.15 750 798.15 750 863.85 844 c 128,-1,30
 929.55 938 929.55 938 929.55 1085 c 0,31,32
 929.55 1176 929.55 1176 890.4 1225 c 128,-1,33
 851.25 1274 851.25 1274 778.35 1274 c 0,34,35
 676.65 1274 676.65 1274 609.6 1181 c 128,-1,36
 542.55 1088 542.55 1088 542.55 948 c 0,37,38
 542.55 852 542.55 852 582.15 801 c 128,-1,39
 621.75 750 621.75 750 695.55 750 c 0,28,29
EndSplineSet
EndChar
StartChar: colon
Encoding: 58 58 58
Width: 774
Flags: W
Fore
308.2 1120 m 1,0,-1
 633.1 1120 l 1,1,-1
 566.5 733 l 1,2,-1
 241.6 733 l 1,3,-1
 308.2 1120 l 1,0,-1
181.3 387 m 1,4,-1
 505.3 387 l 1,5,-1
 436.9 0 l 1,6,-1
 112.9 0 l 1,7,-1
 181.3 387 l 1,4,-1
EndSplineSet
EndChar
StartChar: semicolon
Encoding: 59 59 59
Width: 766
Flags: W
Fore
173.5 387 m 1,0,-1
 497.5 387 l 1,1,-1
 444.4 82 l 1,2,-1
 156.4 -291 l 1,3,-1
 -35.2998 -291 l 1,4,-1
 119.5 82 l 1,5,-1
 173.5 387 l 1,0,-1
300.4 1120 m 1,6,-1
 625.3 1120 l 1,7,-1
 558.7 733 l 1,8,-1
 233.8 733 l 1,9,-1
 300.4 1120 l 1,6,-1
EndSplineSet
EndChar
StartChar: less
Encoding: 60 60 60
Width: 1630
Flags: W
Fore
1434.9 973 m 1,0,-1
 567.3 641 l 1,1,-1
 1434.9 311 l 1,2,-1
 1434.9 61 l 1,3,-1
 281.1 524 l 1,4,-1
 281.1 760 l 1,5,-1
 1434.9 1223 l 1,6,-1
 1434.9 973 l 1,0,-1
EndSplineSet
EndChar
StartChar: equal
Encoding: 61 61 61
Width: 1630
Flags: W
Fore
281.1 987 m 1,0,-1
 1434.9 987 l 1,1,-1
 1434.9 752 l 1,2,-1
 281.1 752 l 1,3,-1
 281.1 987 l 1,0,-1
281.1 532 m 1,4,-1
 1434.9 532 l 1,5,-1
 1434.9 295 l 1,6,-1
 281.1 295 l 1,7,-1
 281.1 532 l 1,4,-1
EndSplineSet
EndChar
StartChar: greater
Encoding: 62 62 62
Width: 1630
Flags: W
Fore
281.1 973 m 1,0,-1
 281.1 1223 l 1,1,-1
 1434.9 760 l 1,2,-1
 1434.9 524 l 1,3,-1
 281.1 61 l 1,4,-1
 281.1 311 l 1,5,-1
 1149.6 641 l 1,6,-1
 281.1 973 l 1,0,-1
EndSplineSet
EndChar
StartChar: question
Encoding: 63 63 63
Width: 1136
Flags: W
Fore
322.1 356 m 1,0,-1
 646.1 356 l 1,1,-1
 583.1 0 l 1,2,-1
 259.1 0 l 1,3,-1
 322.1 356 l 1,0,-1
672.2 504 m 1,4,-1
 347.3 504 l 1,5,-1
 354.5 553 l 1,6,7
 368.9 633 368.9 633 408.05 695.5 c 128,-1,8
 447.2 758 447.2 758 565.1 860 c 2,9,-1
 631.7 918 l 2,10,11
 702.8 979 702.8 979 735.2 1032 c 128,-1,12
 767.6 1085 767.6 1085 767.6 1139 c 0,13,14
 767.6 1196 767.6 1196 731.15 1226.5 c 128,-1,15
 694.7 1257 694.7 1257 626.3 1257 c 0,16,17
 554.3 1257 554.3 1257 463.85 1223.5 c 128,-1,18
 373.4 1190 373.4 1190 269.9 1124 c 1,19,-1
 325.7 1438 l 1,20,21
 440 1480 440 1480 534.5 1500 c 128,-1,22
 629 1520 629 1520 716.3 1520 c 0,23,24
 890.9 1520 890.9 1520 989.9 1434.5 c 128,-1,25
 1088.9 1349 1088.9 1349 1088.9 1200 c 0,26,27
 1088.9 1081 1088.9 1081 1041.2 987 c 128,-1,28
 993.5 893 993.5 893 878.3 791 c 2,29,-1
 809.9 731 l 2,30,31
 737.9 669 737.9 669 712.25 630.5 c 128,-1,32
 686.6 592 686.6 592 679.4 549 c 1,33,-1
 672.2 504 l 1,4,-1
EndSplineSet
EndChar
StartChar: at
Encoding: 64 64 64
Width: 1942
Flags: W
Fore
1030.1 801 m 0,0,1
 934.7 801 934.7 801 866.3 696 c 128,-1,2
 797.9 591 797.9 591 797.9 446 c 0,3,4
 797.9 362 797.9 362 834.35 318 c 128,-1,5
 870.8 274 870.8 274 940.1 274 c 0,6,7
 1035.5 274 1035.5 274 1102.1 374.5 c 128,-1,8
 1168.7 475 1168.7 475 1168.7 621 c 0,9,10
 1168.7 707 1168.7 707 1132.7 754 c 128,-1,11
 1096.7 801 1096.7 801 1030.1 801 c 0,0,1
1131.8 246 m 1,12,13
 1091.3 171 1091.3 171 1023.8 129.5 c 128,-1,14
 956.3 88 956.3 88 875.3 88 c 0,15,16
 746.6 88 746.6 88 672.8 182.5 c 128,-1,17
 599 277 599 277 599 444 c 0,18,19
 599 665 599 665 726.8 826 c 128,-1,20
 854.6 987 854.6 987 1031.9 987 c 0,21,22
 1106.6 987 1106.6 987 1162.85 945 c 128,-1,23
 1219.1 903 1219.1 903 1237.1 834 c 1,24,-1
 1258.7 967 l 1,25,-1
 1441.4 967 l 1,26,-1
 1321.7 274 l 1,27,28
 1457.6 296 1457.6 296 1548.95 437.5 c 128,-1,29
 1640.3 579 1640.3 579 1640.3 770 c 0,30,31
 1640.3 983 1640.3 983 1492.25 1118 c 128,-1,32
 1344.2 1253 1344.2 1253 1107.5 1253 c 0,33,34
 931.1 1253 931.1 1253 779.45 1177 c 128,-1,35
 627.8 1101 627.8 1101 521.6 958 c 0,36,37
 438.8 848 438.8 848 395.6 716 c 128,-1,38
 352.4 584 352.4 584 352.4 442 c 0,39,40
 352.4 173 352.4 173 501.35 2.5 c 128,-1,41
 650.3 -168 650.3 -168 884.3 -168 c 0,42,43
 990.5 -168 990.5 -168 1094.45 -124.5 c 128,-1,44
 1198.4 -81 1198.4 -81 1292 2 c 1,45,-1
 1390.1 -156 l 1,46,47
 1258.7 -254 1258.7 -254 1130 -303 c 128,-1,48
 1001.3 -352 1001.3 -352 873.5 -352 c 0,49,50
 752 -352 752 -352 639.5 -311 c 128,-1,51
 527 -270 527 -270 438.8 -193 c 0,52,53
 312.8 -85 312.8 -85 247.55 74 c 128,-1,54
 182.3 233 182.3 233 182.3 434 c 0,55,56
 182.3 610 182.3 610 236.3 774 c 128,-1,57
 290.3 938 290.3 938 392.9 1075 c 0,58,59
 524.3 1251 524.3 1251 709.25 1345.5 c 128,-1,60
 894.2 1440 894.2 1440 1107.5 1440 c 0,61,62
 1256.9 1440 1256.9 1440 1383.8 1393.5 c 128,-1,63
 1510.7 1347 1510.7 1347 1610.6 1255 c 1,64,65
 1705.1 1166 1705.1 1166 1756.4 1046.5 c 128,-1,66
 1807.7 927 1807.7 927 1807.7 797 c 0,67,68
 1807.7 482 1807.7 482 1623.65 285 c 128,-1,69
 1439.6 88 1439.6 88 1140.8 88 c 0,70,71
 1136.3 88 1136.3 88 1128.2 87 c 128,-1,72
 1120.1 86 1120.1 86 1116.5 86 c 0,73,74
 1112 86 1112 86 1108.85 86.5 c 128,-1,75
 1105.7 87 1105.7 87 1103.9 88 c 1,76,-1
 1131.8 246 l 1,12,13
EndSplineSet
EndChar
StartChar: A
Encoding: 65 65 65
Width: 1490
Flags: W
Fore
969.5 272 m 1,0,-1
 433.1 272 l 1,1,-1
 299.9 0 l 1,2,-1
 -55.5996 0 l 1,3,-1
 704 1493 l 1,4,-1
 1100 1493 l 1,5,-1
 1337.6 0 l 1,6,-1
 1008.2 0 l 1,7,-1
 969.5 272 l 1,0,-1
563.6 543 m 1,8,-1
 924.5 543 l 1,9,-1
 843.5 1118 l 1,10,-1
 563.6 543 l 1,8,-1
EndSplineSet
KernsSLIFO: 7923 -149 0 0 563 -149 0 0 375 -149 0 0 7813 -92 0 0 7811 -92 0 0 7809 -92 0 0 373 -92 0 0 539 -112 0 0 355 -112 0 0 267 -63 0 0 265 -63 0 0 562 -235 0 0 7922 -235 0 0 374 -235 0 0 7812 -112 0 0 7810 -112 0 0 7808 -112 0 0 372 -112 0 0 370 -92 0 0 368 -92 0 0 364 -92 0 0 362 -92 0 0 360 -92 0 0 538 -196 0 0 354 -196 0 0 558 -63 0 0 492 -63 0 0 490 -63 0 0 336 -63 0 0 334 -63 0 0 332 -63 0 0 266 -63 0 0 264 -63 0 0 366 -92 0 0 357 -112 0 0 356 -196 0 0 271 -63 0 0 273 -63 0 0 269 -63 0 0 268 -63 0 0 263 -63 0 0 262 -63 0 0 253 -149 0 0 221 -235 0 0 217 -92 0 0 219 -92 0 0 218 -92 0 0 210 -63 0 0 212 -63 0 0 211 -63 0 0 8222 104 0 0 8218 104 0 0 376 -235 0 0 255 -149 0 0 8217 -253 0 0 8221 -253 0 0 338 -63 0 0 213 -63 0 0 216 -63 0 0 231 -63 0 0 220 -92 0 0 214 -63 0 0 199 -63 0 0 121 -149 0 0 119 -92 0 0 118 -112 0 0 116 -112 0 0 100 -63 0 0 99 -63 0 0 89 -235 0 0 87 -112 0 0 86 -139 0 0 85 -92 0 0 84 -196 0 0 79 -63 0 0 67 -63 0 0 59 38 0 0 58 38 0 0 46 38 0 0 44 38 0 0
EndChar
StartChar: B
Encoding: 66 66 66
Width: 1478
Flags: W
Fore
810.85 915 m 2,0,1
 903.55 915 903.55 915 955.75 967 c 128,-1,2
 1007.95 1019 1007.95 1019 1007.95 1110 c 0,3,4
 1007.95 1169 1007.95 1169 971.5 1200 c 128,-1,5
 935.05 1231 935.05 1231 866.65 1231 c 2,6,-1
 673.15 1231 l 1,7,-1
 617.35 915 l 1,8,-1
 810.85 915 l 2,0,1
708.25 262 m 2,9,10
 827.05 262 827.05 262 890.95 325 c 128,-1,11
 954.85 388 954.85 388 954.85 506 c 0,12,13
 954.85 581 954.85 581 910.75 617 c 128,-1,14
 866.65 653 866.65 653 775.75 653 c 2,15,-1
 571.45 653 l 1,16,-1
 503.05 262 l 1,17,-1
 708.25 262 l 2,9,10
1118.65 799 m 1,18,19
 1206.85 771 1206.85 771 1255 696.5 c 128,-1,20
 1303.15 622 1303.15 622 1303.15 512 c 0,21,22
 1303.15 271 1303.15 271 1141.6 135.5 c 128,-1,23
 980.05 0 980.05 0 687.55 0 c 2,24,-1
 112.45 0 l 1,25,-1
 374.35 1493 l 1,26,-1
 893.65 1493 l 2,27,28
 1133.05 1493 1133.05 1493 1247.8 1415 c 128,-1,29
 1362.55 1337 1362.55 1337 1362.55 1174 c 0,30,31
 1362.55 1037 1362.55 1037 1295.05 933.5 c 128,-1,32
 1227.55 830 1227.55 830 1118.65 799 c 1,18,19
EndSplineSet
KernsSLIFO: 7922 -112 0 0 562 -112 0 0 374 -112 0 0 7812 -112 0 0 7810 -112 0 0 7808 -112 0 0 372 -112 0 0 221 -112 0 0 376 -112 0 0 89 -112 0 0 87 -112 0 0 86 -83 0 0
EndChar
StartChar: C
Encoding: 67 67 67
Width: 1430
Flags: W
Fore
1194.75 70 m 1,0,1
 1070.55 21 1070.55 21 956.25 -4 c 128,-1,2
 841.95 -29 841.95 -29 739.35 -29 c 0,3,4
 468.45 -29 468.45 -29 306.45 136 c 128,-1,5
 144.45 301 144.45 301 144.45 573 c 0,6,7
 144.45 752 144.45 752 195.75 910.5 c 128,-1,8
 247.05 1069 247.05 1069 346.95 1200 c 0,9,10
 464.85 1354 464.85 1354 630.9 1437 c 128,-1,11
 796.95 1520 796.95 1520 988.65 1520 c 0,12,13
 1093.05 1520 1093.05 1520 1198.35 1492.5 c 128,-1,14
 1303.65 1465 1303.65 1465 1412.55 1409 c 1,15,-1
 1356.75 1100 l 1,16,17
 1270.35 1173 1270.35 1173 1183.05 1207 c 128,-1,18
 1095.75 1241 1095.75 1241 995.85 1241 c 0,19,20
 787.95 1241 787.95 1241 647.55 1063 c 128,-1,21
 507.15 885 507.15 885 507.15 618 c 0,22,23
 507.15 446 507.15 446 593.55 348 c 128,-1,24
 679.95 250 679.95 250 832.05 250 c 0,25,26
 922.95 250 922.95 250 1025.1 286.5 c 128,-1,27
 1127.25 323 1127.25 323 1254.15 401 c 1,28,-1
 1194.75 70 l 1,0,1
EndSplineSet
KernsSLIFO: 536 -73 0 0 348 -73 0 0 346 -73 0 0 350 -73 0 0 352 -73 0 0 83 -73 0 0
EndChar
StartChar: D
Encoding: 68 68 68
Width: 1612
Flags: W
Fore
680.25 1202 m 1,0,-1
 519.15 291 l 1,1,-1
 643.35 291 l 2,2,3
 885.45 291 885.45 291 1026.75 442 c 128,-1,4
 1168.05 593 1168.05 593 1168.05 850 c 0,5,6
 1168.05 1024 1168.05 1024 1075.8 1113 c 128,-1,7
 983.55 1202 983.55 1202 801.75 1202 c 2,8,-1
 680.25 1202 l 1,0,-1
383.25 1493 m 1,9,-1
 747.75 1493 l 2,10,11
 1008.75 1493 1008.75 1493 1139.25 1458.5 c 128,-1,12
 1269.75 1424 1269.75 1424 1356.15 1343 c 0,13,14
 1443.45 1262 1443.45 1262 1487.55 1146.5 c 128,-1,15
 1531.65 1031 1531.65 1031 1531.65 885 c 0,16,17
 1531.65 682 1531.65 682 1456.5 502.5 c 128,-1,18
 1381.35 323 1381.35 323 1245.45 201 c 1,19,20
 1126.65 92 1126.65 92 969.6 46 c 128,-1,21
 812.55 0 812.55 0 486.75 0 c 2,22,-1
 121.35 0 l 1,23,-1
 383.25 1493 l 1,9,-1
EndSplineSet
KernsSLIFO: 7922 -159 0 0 562 -159 0 0 374 -159 0 0 221 -159 0 0 8222 -36 0 0 8218 -36 0 0 376 -159 0 0 89 -159 0 0 45 38 0 0
EndChar
StartChar: E
Encoding: 69 69 69
Width: 1329
Flags: W
Fore
371.35 1493 m 1,0,-1
 1305.55 1493 l 1,1,-1
 1254.25 1202 l 1,2,-1
 666.55 1202 l 1,3,-1
 617.95 924 l 1,4,-1
 1171.45 924 l 1,5,-1
 1119.25 633 l 1,6,-1
 566.65 633 l 1,7,-1
 507.25 291 l 1,8,-1
 1113.85 291 l 1,9,-1
 1064.35 0 l 1,10,-1
 109.45 0 l 1,11,-1
 371.35 1493 l 1,0,-1
EndSplineSet
EndChar
StartChar: F
Encoding: 70 70 70
Width: 1329
Flags: W
Fore
371.35 1493 m 1,0,-1
 1305.55 1493 l 1,1,-1
 1254.25 1202 l 1,2,-1
 666.55 1202 l 1,3,-1
 617.95 924 l 1,4,-1
 1171.45 924 l 1,5,-1
 1119.25 633 l 1,6,-1
 566.65 633 l 1,7,-1
 455.95 0 l 1,8,-1
 109.45 0 l 1,9,-1
 371.35 1493 l 1,0,-1
EndSplineSet
KernsSLIFO: 252 -196 0 0 229 -235 0 0 230 -235 0 0 59 -112 0 0 242 -159 0 0 45 -102 0 0 8222 -452 0 0 367 -196 0 0 245 -159 0 0 235 -159 0 0 249 -196 0 0 44 -444 0 0 224 -235 0 0 195 -264 0 0 234 -159 0 0 341 -225 0 0 232 -159 0 0 196 -264 0 0 193 -264 0 0 8217 -36 0 0 251 -196 0 0 253 -188 0 0 8218 -452 0 0 227 -235 0 0 194 -264 0 0 248 -159 0 0 244 -159 0 0 65 -264 0 0 97 -235 0 0 228 -235 0 0 246 -159 0 0 250 -196 0 0 225 -235 0 0 345 -225 0 0 46 -452 0 0 226 -235 0 0 233 -159 0 0 283 -159 0 0 101 -159 0 0 339 -159 0 0 255 -188 0 0 111 -159 0 0 114 -225 0 0 117 -196 0 0 192 -264 0 0 121 -188 0 0 58 -112 0 0 243 -159 0 0
EndChar
StartChar: G
Encoding: 71 71 71
Width: 1596
Flags: W
Fore
1338.85 111 m 1,0,1
 1207.45 40 1207.45 40 1066.15 5.5 c 128,-1,2
 924.85 -29 924.85 -29 763.75 -29 c 0,3,4
 477.55 -29 477.55 -29 313.75 132.5 c 128,-1,5
 149.95 294 149.95 294 149.95 573 c 0,6,7
 149.95 754 149.95 754 201.25 912.5 c 128,-1,8
 252.55 1071 252.55 1071 354.25 1202 c 0,9,10
 478.45 1362 478.45 1362 647.2 1441 c 128,-1,11
 815.95 1520 815.95 1520 1032.85 1520 c 0,12,13
 1153.45 1520 1153.45 1520 1275.85 1492 c 128,-1,14
 1398.25 1464 1398.25 1464 1517.05 1409 c 1,15,-1
 1463.95 1100 l 1,16,17
 1354.15 1171 1354.15 1171 1249.3 1206 c 128,-1,18
 1144.45 1241 1144.45 1241 1038.25 1241 c 0,19,20
 806.05 1241 806.05 1241 660.25 1069 c 128,-1,21
 514.45 897 514.45 897 514.45 627 c 0,22,23
 514.45 448 514.45 448 599.5 349 c 128,-1,24
 684.55 250 684.55 250 839.35 250 c 0,25,26
 889.75 250 889.75 250 940.15 257.5 c 128,-1,27
 990.55 265 990.55 265 1041.85 281 c 1,28,-1
 1093.15 571 l 1,29,-1
 881.65 571 l 1,30,-1
 925.75 829 l 1,31,-1
 1463.95 829 l 1,32,-1
 1338.85 111 l 1,0,1
EndSplineSet
KernsSLIFO: 356 -36 0 0 221 -83 0 0 376 -83 0 0 89 -83 0 0 84 -36 0 0
EndChar
StartChar: H
Encoding: 72 72 72
Width: 1628
Flags: W
Fore
386.3 1493 m 1,0,-1
 732.8 1493 l 1,1,-1
 632.9 924 l 1,2,-1
 1144.1 924 l 1,3,-1
 1243.1 1493 l 1,4,-1
 1589.6 1493 l 1,5,-1
 1327.7 0 l 1,6,-1
 981.2 0 l 1,7,-1
 1091.9 633 l 1,8,-1
 581.6 633 l 1,9,-1
 470.9 0 l 1,10,-1
 124.4 0 l 1,11,-1
 386.3 1493 l 1,0,-1
EndSplineSet
EndChar
StartChar: I
Encoding: 73 73 73
Width: 723
Flags: W
Fore
338.7 1493 m 1,0,-1
 685.2 1493 l 1,1,-1
 423.3 0 l 1,2,-1
 76.7998 0 l 1,3,-1
 338.7 1493 l 1,0,-1
EndSplineSet
EndChar
StartChar: J
Encoding: 74 74 74
Width: 704
Flags: W
Fore
319.55 1493 m 1,0,-1
 666.05 1493 l 1,1,-1
 430.25 145 l 1,2,3
 378.05 -147 378.05 -147 225.5 -278.5 c 128,-1,4
 72.9502 -410 72.9502 -410 -216.85 -410 c 2,5,-1
 -287.05 -410 l 1,6,-1
 -235.75 -119 l 1,7,-1
 -181.75 -119 l 2,8,9
 -74.6504 -119 -74.6504 -119 -6.7002 -51.5 c 128,-1,10
 61.25 16 61.25 16 83.75 145 c 2,11,-1
 319.55 1493 l 1,0,-1
EndSplineSet
EndChar
StartChar: K
Encoding: 75 75 75
Width: 1516
Flags: W
Fore
388.45 1493 m 1,0,-1
 734.95 1493 l 1,1,-1
 640.45 956 l 1,2,-1
 1211.95 1493 l 1,3,-1
 1630.45 1493 l 1,4,-1
 860.05 768 l 1,5,-1
 1440.55 0 l 1,6,-1
 1033.75 0 l 1,7,-1
 581.95 623 l 1,8,-1
 473.05 0 l 1,9,-1
 126.55 0 l 1,10,-1
 388.45 1493 l 1,0,-1
EndSplineSet
KernsSLIFO: 367 -112 0 0 366 -73 0 0 283 -112 0 0 268 -131 0 0 262 -131 0 0 253 -206 0 0 217 -73 0 0 219 -73 0 0 218 -73 0 0 210 -131 0 0 212 -131 0 0 211 -131 0 0 8222 38 0 0 8218 38 0 0 255 -206 0 0 339 -112 0 0 338 -178 0 0 213 -131 0 0 248 -112 0 0 216 -55 0 0 252 -112 0 0 251 -112 0 0 249 -112 0 0 250 -112 0 0 245 -112 0 0 246 -112 0 0 244 -112 0 0 242 -112 0 0 243 -112 0 0 235 -112 0 0 234 -112 0 0 232 -112 0 0 233 -112 0 0 220 -73 0 0 214 -131 0 0 199 -131 0 0 121 -206 0 0 117 -112 0 0 111 -112 0 0 101 -112 0 0 87 -55 0 0 85 -73 0 0 79 -131 0 0 67 -131 0 0 45 -253 0 0
EndChar
StartChar: L
Encoding: 76 76 76
Width: 1234
Flags: W
Fore
360.7 1493 m 1,0,-1
 707.2 1493 l 1,1,-1
 496.6 291 l 1,2,-1
 1103.2 291 l 1,3,-1
 1053.7 0 l 1,4,-1
 98.7998 0 l 1,5,-1
 360.7 1493 l 1,0,-1
EndSplineSet
KernsSLIFO: 366 -112 0 0 356 -339 0 0 253 -253 0 0 221 -319 0 0 217 -112 0 0 219 -112 0 0 218 -112 0 0 210 -73 0 0 212 -73 0 0 211 -73 0 0 376 -319 0 0 255 -253 0 0 8217 -509 0 0 8221 -528 0 0 338 -73 0 0 213 -73 0 0 216 -73 0 0 220 -112 0 0 214 -73 0 0 121 -253 0 0 89 -319 0 0 87 -178 0 0 86 -282 0 0 85 -112 0 0 84 -339 0 0 79 -73 0 0
EndChar
StartChar: M
Encoding: 77 77 77
Width: 1936
Flags: W
Fore
402.5 1493 m 1,0,-1
 828.2 1493 l 1,1,-1
 1001 700 l 1,2,-1
 1454.6 1493 l 1,3,-1
 1897.4 1493 l 1,4,-1
 1635.5 0 l 1,5,-1
 1307 0 l 1,6,-1
 1498.7 1102 l 1,7,-1
 1032.5 287 l 1,8,-1
 846.2 287 l 1,9,-1
 660.8 1102 l 1,10,-1
 469.1 0 l 1,11,-1
 140.6 0 l 1,12,-1
 402.5 1493 l 1,0,-1
EndSplineSet
EndChar
StartChar: N
Encoding: 78 78 78
Width: 1628
Flags: W
Fore
386.3 1493 m 1,0,-1
 773.3 1493 l 1,1,-1
 1081.1 459 l 1,2,-1
 1262 1493 l 1,3,-1
 1589.6 1493 l 1,4,-1
 1327.7 0 l 1,5,-1
 940.7 0 l 1,6,-1
 632.9 1034 l 1,7,-1
 452.9 0 l 1,8,-1
 124.4 0 l 1,9,-1
 386.3 1493 l 1,0,-1
EndSplineSet
EndChar
StartChar: O
Encoding: 79 79 79
Width: 1653
Flags: W
Fore
1221.05 881 m 0,0,1
 1221.05 1057 1221.05 1057 1149.5 1149 c 128,-1,2
 1077.95 1241 1077.95 1241 942.05 1241 c 0,3,4
 762.05 1241 762.05 1241 640.1 1061.5 c 128,-1,5
 518.15 882 518.15 882 518.15 612 c 0,6,7
 518.15 440 518.15 440 589.25 345 c 128,-1,8
 660.35 250 660.35 250 787.25 250 c 0,9,10
 890.75 250 890.75 250 971.3 298.5 c 128,-1,11
 1051.85 347 1051.85 347 1108.55 442 c 0,12,13
 1162.55 533 1162.55 533 1191.8 647 c 128,-1,14
 1221.05 761 1221.05 761 1221.05 881 c 0,0,1
992.45 1520 m 0,15,16
 1260.65 1520 1260.65 1520 1424 1354.5 c 128,-1,17
 1587.35 1189 1587.35 1189 1587.35 922 c 0,18,19
 1587.35 740 1587.35 740 1537.4 578 c 128,-1,20
 1487.45 416 1487.45 416 1392.05 287 c 0,21,22
 1275.05 128 1275.05 128 1115.3 49.5 c 128,-1,23
 955.55 -29 955.55 -29 746.75 -29 c 0,24,25
 479.45 -29 479.45 -29 316.55 136 c 128,-1,26
 153.65 301 153.65 301 153.65 569 c 0,27,28
 153.65 752 153.65 752 203.15 914 c 128,-1,29
 252.65 1076 252.65 1076 348.95 1206 c 0,30,31
 464.15 1364 464.15 1364 623.9 1442 c 128,-1,32
 783.65 1520 783.65 1520 992.45 1520 c 0,15,16
EndSplineSet
KernsSLIFO: 221 -149 0 0 376 -149 0 0 89 -149 0 0 88 -73 0 0 86 -73 0 0 46 -45 0 0 45 38 0 0 44 -45 0 0
EndChar
StartChar: P
Encoding: 80 80 80
Width: 1426
Flags: W
Fore
376.4 1493 m 1,0,-1
 951.5 1493 l 2,1,2
 1163 1493 1163 1493 1282.25 1385.5 c 128,-1,3
 1401.5 1278 1401.5 1278 1401.5 1087 c 0,4,5
 1401.5 970 1401.5 970 1361.9 864.5 c 128,-1,6
 1322.3 759 1322.3 759 1248.5 680 c 0,7,8
 1168.4 595 1168.4 595 1057.7 556.5 c 128,-1,9
 947 518 947 518 779.6 518 c 2,10,-1
 551 518 l 1,11,-1
 461 0 l 1,12,-1
 114.5 0 l 1,13,-1
 376.4 1493 l 1,0,-1
675.2 1214 m 1,14,-1
 601.4 797 l 1,15,-1
 793.1 797 l 2,16,17
 915.5 797 915.5 797 980.3 861 c 128,-1,18
 1045.1 925 1045.1 925 1045.1 1047 c 0,19,20
 1045.1 1128 1045.1 1128 998.75 1171 c 128,-1,21
 952.4 1214 952.4 1214 865.1 1214 c 2,22,-1
 675.2 1214 l 1,14,-1
EndSplineSet
KernsSLIFO: 252 -73 0 0 229 -131 0 0 230 -131 0 0 45 -36 0 0 8222 -415 0 0 367 -73 0 0 235 -55 0 0 249 -73 0 0 44 -528 0 0 224 -131 0 0 195 -188 0 0 234 -55 0 0 341 -63 0 0 8221 38 0 0 232 -55 0 0 196 -188 0 0 193 -188 0 0 8217 57 0 0 251 -73 0 0 8218 -415 0 0 227 -131 0 0 194 -188 0 0 117 -73 0 0 353 -73 0 0 65 -188 0 0 97 -131 0 0 228 -131 0 0 250 -73 0 0 351 -73 0 0 225 -131 0 0 345 -63 0 0 226 -131 0 0 233 -55 0 0 283 -55 0 0 101 -55 0 0 115 -73 0 0 114 -63 0 0 46 -528 0 0 192 -188 0 0
EndChar
StartChar: Q
Encoding: 81 81 81
Width: 1653
Flags: W
Fore
771.05 -27 m 1,0,1
 761.15 -28 761.15 -28 751.25 -28.5 c 128,-1,2
 741.35 -29 741.35 -29 718.85 -29 c 0,3,4
 617.15 -29 617.15 -29 527.15 2 c 128,-1,5
 437.15 33 437.15 33 363.35 94 c 0,6,7
 264.35 175 264.35 175 209 300.5 c 128,-1,8
 153.65 426 153.65 426 153.65 569 c 0,9,10
 153.65 752 153.65 752 203.6 914.5 c 128,-1,11
 253.55 1077 253.55 1077 348.95 1206 c 0,12,13
 465.05 1365 465.05 1365 623.9 1442.5 c 128,-1,14
 782.75 1520 782.75 1520 992.45 1520 c 0,15,16
 1260.65 1520 1260.65 1520 1424 1354.5 c 128,-1,17
 1587.35 1189 1587.35 1189 1587.35 922 c 0,18,19
 1587.35 608 1587.35 608 1450.1 371.5 c 128,-1,20
 1312.85 135 1312.85 135 1068.05 27 c 1,21,-1
 1274.15 -299 l 1,22,-1
 943.85 -299 l 1,23,-1
 771.05 -27 l 1,0,1
1221.05 881 m 0,24,25
 1221.05 1057 1221.05 1057 1149.5 1149 c 128,-1,26
 1077.95 1241 1077.95 1241 942.05 1241 c 0,27,28
 762.05 1241 762.05 1241 640.1 1061.5 c 128,-1,29
 518.15 882 518.15 882 518.15 612 c 0,30,31
 518.15 440 518.15 440 589.25 345 c 128,-1,32
 660.35 250 660.35 250 787.25 250 c 0,33,34
 890.75 250 890.75 250 971.3 298.5 c 128,-1,35
 1051.85 347 1051.85 347 1108.55 442 c 0,36,37
 1162.55 533 1162.55 533 1191.8 647 c 128,-1,38
 1221.05 761 1221.05 761 1221.05 881 c 0,24,25
EndSplineSet
KernsSLIFO: 45 38 0 0
EndChar
StartChar: R
Encoding: 82 82 82
Width: 1491
Flags: W
Fore
749.1 831 m 2,0,1
 867 831 867 831 927.75 892 c 128,-1,2
 988.5 953 988.5 953 988.5 1071 c 0,3,4
 988.5 1145 988.5 1145 946.65 1179.5 c 128,-1,5
 904.8 1214 904.8 1214 814.8 1214 c 2,6,-1
 671.7 1214 l 1,7,-1
 603.3 831 l 1,8,-1
 749.1 831 l 2,0,1
557.4 565 m 1,9,-1
 457.5 0 l 1,10,-1
 111 0 l 1,11,-1
 372.9 1493 l 1,12,-1
 885 1493 l 2,13,14
 1106.4 1493 1106.4 1493 1220.7 1401 c 128,-1,15
 1335 1309 1335 1309 1335 1130 c 0,16,17
 1335 949 1335 949 1245 832 c 128,-1,18
 1155 715 1155 715 1001.1 698 c 1,19,20
 1071.3 682 1071.3 682 1118.1 618.5 c 128,-1,21
 1164.9 555 1164.9 555 1200 424 c 2,22,-1
 1314.3 0 l 1,23,-1
 969.6 0 l 1,24,-1
 868.8 371 l 1,25,26
 838.2 482 838.2 482 794.55 523.5 c 128,-1,27
 750.9 565 750.9 565 668.1 565 c 2,28,-1
 557.4 565 l 1,9,-1
EndSplineSet
KernsSLIFO: 367 -112 0 0 356 -92 0 0 283 -102 0 0 253 -131 0 0 221 -188 0 0 376 -188 0 0 255 -131 0 0 339 -102 0 0 248 -102 0 0 252 -112 0 0 251 -112 0 0 249 -112 0 0 250 -112 0 0 245 -102 0 0 246 -102 0 0 244 -102 0 0 242 -102 0 0 243 -102 0 0 235 -102 0 0 234 -102 0 0 232 -102 0 0 233 -102 0 0 121 -131 0 0 117 -112 0 0 111 -102 0 0 101 -102 0 0 89 -188 0 0 84 -92 0 0 46 38 0 0 44 38 0 0
EndChar
StartChar: S
Encoding: 83 83 83
Width: 1397
Flags: W
Fore
1295.45 1446 m 1,0,-1
 1239.65 1130 l 1,1,2
 1137.95 1186 1137.95 1186 1038.95 1213.5 c 128,-1,3
 939.95 1241 939.95 1241 845.45 1241 c 0,4,5
 715.85 1241 715.85 1241 643.4 1196 c 128,-1,6
 570.95 1151 570.95 1151 570.95 1071 c 0,7,8
 570.95 1020 570.95 1020 602.9 991.5 c 128,-1,9
 634.85 963 634.85 963 734.75 936 c 2,10,-1
 876.95 897 l 2,11,12
 1055.15 847 1055.15 847 1138.4 752.5 c 128,-1,13
 1221.65 658 1221.65 658 1221.65 508 c 0,14,15
 1221.65 265 1221.65 265 1055.6 118 c 128,-1,16
 889.55 -29 889.55 -29 609.65 -29 c 0,17,18
 479.15 -29 479.15 -29 350 -2 c 128,-1,19
 220.85 25 220.85 25 97.5498 78 c 1,20,-1
 152.45 403 l 1,21,22
 272.15 326 272.15 326 385.1 288 c 128,-1,23
 498.05 250 498.05 250 607.85 250 c 0,24,25
 726.65 250 726.65 250 800.9 304 c 128,-1,26
 875.15 358 875.15 358 875.15 442 c 0,27,28
 875.15 497 875.15 497 841.85 527.5 c 128,-1,29
 808.55 558 808.55 558 696.05 590 c 2,30,-1
 554.75 629 l 2,31,32
 398.15 672 398.15 672 321.65 765 c 128,-1,33
 245.15 858 245.15 858 245.15 1006 c 0,34,35
 245.15 1239 245.15 1239 405.8 1379.5 c 128,-1,36
 566.45 1520 566.45 1520 838.25 1520 c 0,37,38
 947.15 1520 947.15 1520 1061.9 1501.5 c 128,-1,39
 1176.65 1483 1176.65 1483 1295.45 1446 c 1,0,-1
EndSplineSet
KernsSLIFO: 350 -73 0 0 352 -73 0 0 83 -73 0 0
EndChar
StartChar: T
Encoding: 84 84 84
Width: 1338
Flags: W
Fore
221.9 1493 m 1,0,-1
 1460.3 1493 l 1,1,-1
 1409 1202 l 1,2,-1
 962.6 1202 l 1,3,-1
 752 0 l 1,4,-1
 405.5 0 l 1,5,-1
 616.1 1202 l 1,6,-1
 169.7 1202 l 1,7,-1
 221.9 1493 l 1,0,-1
EndSplineSet
KernsSLIFO: 252 -264 0 0 229 -243 0 0 230 -243 0 0 59 -112 0 0 242 -264 0 0 45 -301 0 0 8222 -301 0 0 367 -264 0 0 245 -264 0 0 235 -264 0 0 249 -264 0 0 58 -112 0 0 224 -243 0 0 195 -159 0 0 234 -264 0 0 231 -264 0 0 341 -225 0 0 232 -264 0 0 196 -159 0 0 193 -159 0 0 269 -264 0 0 345 -225 0 0 251 -264 0 0 253 -339 0 0 8218 -301 0 0 227 -243 0 0 194 -159 0 0 248 -264 0 0 244 -264 0 0 353 -243 0 0 65 -159 0 0 283 -264 0 0 351 -243 0 0 228 -243 0 0 119 -282 0 0 246 -264 0 0 250 -264 0 0 263 -264 0 0 225 -243 0 0 46 -348 0 0 84 47 0 0 226 -243 0 0 233 -264 0 0 356 47 0 0 97 -243 0 0 99 -264 0 0 101 -264 0 0 339 -264 0 0 255 -339 0 0 111 -264 0 0 115 -243 0 0 114 -225 0 0 117 -264 0 0 192 -159 0 0 121 -339 0 0 44 -329 0 0 243 -264 0 0
EndChar
StartChar: U
Encoding: 85 85 85
Width: 1584
Flags: W
Fore
388.55 1493 m 1,0,-1
 735.05 1493 l 1,1,-1
 578.45 599 l 1,2,3
 569.45 551 569.45 551 565.4 514 c 128,-1,4
 561.35 477 561.35 477 561.35 449 c 0,5,6
 561.35 351 561.35 351 608.6 302.5 c 128,-1,7
 655.85 254 655.85 254 749.45 254 c 0,8,9
 875.45 254 875.45 254 942.95 332.5 c 128,-1,10
 1010.45 411 1010.45 411 1042.85 598 c 1,11,-1
 1199.45 1493 l 1,12,-1
 1545.95 1493 l 1,13,-1
 1389.35 598 l 1,14,15
 1330.85 268 1330.85 268 1167.5 119.5 c 128,-1,16
 1004.15 -29 1004.15 -29 699.95 -29 c 0,17,18
 461.45 -29 461.45 -29 337.25 84.5 c 128,-1,19
 213.05 198 213.05 198 213.05 414 c 0,20,21
 213.05 450 213.05 450 217.55 494.5 c 128,-1,22
 222.05 539 222.05 539 231.95 598 c 1,23,-1
 388.55 1493 l 1,0,-1
EndSplineSet
KernsSLIFO: 193 -92 0 0 194 -92 0 0 195 -92 0 0 192 -92 0 0 196 -92 0 0 65 -92 0 0
EndChar
StartChar: V
Encoding: 86 86 86
Width: 1520
Flags: W
Fore
234.2 1493 m 1,0,-1
 563.6 1493 l 1,1,-1
 728.3 377 l 1,2,-1
 1284.5 1493 l 1,3,-1
 1641.8 1493 l 1,4,-1
 883.1 0 l 1,5,-1
 470 0 l 1,6,-1
 234.2 1493 l 1,0,-1
EndSplineSet
KernsSLIFO: 367 -149 0 0 283 -149 0 0 210 -36 0 0 212 -36 0 0 211 -36 0 0 193 -139 0 0 194 -139 0 0 8222 -272 0 0 8218 -272 0 0 339 -149 0 0 338 -45 0 0 213 -36 0 0 195 -139 0 0 192 -139 0 0 248 -149 0 0 230 -159 0 0 216 -36 0 0 252 -149 0 0 251 -149 0 0 249 -149 0 0 250 -149 0 0 245 -149 0 0 246 -149 0 0 244 -149 0 0 242 -149 0 0 243 -149 0 0 235 -149 0 0 234 -149 0 0 232 -149 0 0 233 -149 0 0 229 -159 0 0 227 -159 0 0 228 -159 0 0 226 -159 0 0 224 -159 0 0 225 -159 0 0 214 -36 0 0 196 -139 0 0 117 -149 0 0 111 -149 0 0 105 -36 0 0 101 -149 0 0 97 -159 0 0 79 -36 0 0 65 -139 0 0 59 -92 0 0 58 -92 0 0 46 -319 0 0 45 -149 0 0 44 -319 0 0
EndChar
StartChar: W
Encoding: 87 87 87
Width: 2161
Flags: W
Fore
325.1 1493 m 1,0,-1
 645.5 1493 l 1,1,-1
 686.9 408 l 1,2,-1
 1109 1493 l 1,3,-1
 1438.4 1493 l 1,4,-1
 1482.5 408 l 1,5,-1
 1890.2 1493 l 1,6,-1
 2234.9 1493 l 1,7,-1
 1656.2 0 l 1,8,-1
 1263.8 0 l 1,9,-1
 1218.8 1135 l 1,10,-1
 784.1 0 l 1,11,-1
 382.7 0 l 1,12,-1
 325.1 1493 l 1,0,-1
EndSplineSet
KernsSLIFO: 229 -139 0 0 230 -139 0 0 59 -63 0 0 242 -112 0 0 45 -92 0 0 46 -178 0 0 245 -112 0 0 235 -131 0 0 44 -178 0 0 224 -139 0 0 195 -73 0 0 234 -131 0 0 341 -120 0 0 232 -131 0 0 196 -73 0 0 193 -73 0 0 227 -139 0 0 194 -73 0 0 248 -112 0 0 244 -112 0 0 65 -73 0 0 97 -139 0 0 228 -139 0 0 246 -112 0 0 225 -139 0 0 345 -120 0 0 226 -139 0 0 233 -131 0 0 283 -131 0 0 101 -131 0 0 339 -112 0 0 111 -112 0 0 114 -120 0 0 192 -73 0 0 58 -63 0 0 243 -112 0 0
EndChar
StartChar: X
Encoding: 88 88 88
Width: 1499
Flags: W
Fore
992.35 756 m 1,0,-1
 1321.75 0 l 1,1,-1
 969.85 0 l 1,2,-1
 751.15 500 l 1,3,-1
 357.85 0 l 1,4,-1
 -15.6504 0 l 1,5,-1
 588.25 766 l 1,6,-1
 269.65 1493 l 1,7,-1
 623.35 1493 l 1,8,-1
 830.35 1024 l 1,9,-1
 1198.45 1493 l 1,10,-1
 1574.65 1493 l 1,11,-1
 992.35 756 l 1,0,-1
EndSplineSet
KernsSLIFO: 283 -131 0 0 268 -73 0 0 262 -73 0 0 210 -73 0 0 212 -73 0 0 211 -73 0 0 338 -112 0 0 213 -73 0 0 216 -73 0 0 235 -131 0 0 234 -131 0 0 232 -131 0 0 233 -131 0 0 214 -73 0 0 199 -73 0 0 101 -131 0 0 79 -73 0 0 67 -73 0 0 45 -243 0 0
EndChar
StartChar: Y
Encoding: 89 89 89
Width: 1424
Flags: W
Fore
205.4 1493 m 1,0,-1
 551.9 1493 l 1,1,-1
 780.5 940 l 1,2,-1
 1180.1 1493 l 1,3,-1
 1580.6 1493 l 1,4,-1
 917.3 623 l 1,5,-1
 808.4 0 l 1,6,-1
 461.9 0 l 1,7,-1
 570.8 623 l 1,8,-1
 205.4 1493 l 1,0,-1
EndSplineSet
KernsSLIFO: 367 -225 0 0 283 -264 0 0 268 -73 0 0 262 -73 0 0 210 -73 0 0 212 -73 0 0 211 -73 0 0 193 -196 0 0 194 -196 0 0 8222 -405 0 0 8218 -376 0 0 339 -264 0 0 338 -120 0 0 213 -73 0 0 195 -196 0 0 192 -196 0 0 248 -264 0 0 230 -243 0 0 216 -73 0 0 252 -225 0 0 251 -225 0 0 249 -225 0 0 250 -225 0 0 245 -264 0 0 246 -264 0 0 244 -264 0 0 242 -264 0 0 243 -264 0 0 235 -264 0 0 234 -264 0 0 232 -264 0 0 233 -264 0 0 229 -243 0 0 227 -243 0 0 228 -243 0 0 226 -243 0 0 224 -243 0 0 225 -243 0 0 214 -73 0 0 199 -73 0 0 196 -196 0 0 117 -225 0 0 111 -264 0 0 101 -264 0 0 97 -243 0 0 79 -73 0 0 67 -73 0 0 65 -196 0 0 59 -178 0 0 58 -178 0 0 46 -339 0 0 45 -301 0 0 44 -339 0 0
EndChar
StartChar: Z
Encoding: 90 90 90
Width: 1409
Flags: W
Fore
307.15 1493 m 1,0,-1
 1437.55 1493 l 1,1,-1
 1394.35 1255 l 1,2,-1
 523.15 291 l 1,3,-1
 1247.65 291 l 1,4,-1
 1195.45 0 l 1,5,-1
 25.4502 0 l 1,6,-1
 65.9502 238 l 1,7,-1
 939.85 1202 l 1,8,-1
 255.85 1202 l 1,9,-1
 307.15 1493 l 1,0,-1
EndSplineSet
KernsSLIFO: 45 -149 0 0
EndChar
StartChar: bracketleft
Encoding: 91 91 91
Width: 889
Flags: W
Fore
347.3 1556 m 1,0,-1
 905.3 1556 l 1,1,-1
 864.8 1331 l 1,2,-1
 614.6 1331 l 1,3,-1
 372.5 -45 l 1,4,-1
 625.4 -45 l 1,5,-1
 584.9 -270 l 1,6,-1
 28.7002 -270 l 1,7,-1
 347.3 1556 l 1,0,-1
EndSplineSet
EndChar
StartChar: backslash
Encoding: 92 92 92
Width: 708
Flags: W
Fore
345.1 -190 m 1,0,-1
 166 1493 l 1,1,-1
 365.8 1493 l 1,2,-1
 544 -190 l 1,3,-1
 345.1 -190 l 1,0,-1
EndSplineSet
EndChar
StartChar: bracketright
Encoding: 93 93 93
Width: 885
Flags: W
Fore
549.75 -270 m 1,0,-1
 -8.25 -270 l 1,1,-1
 30.4502 -45 l 1,2,-1
 282.45 -45 l 1,3,-1
 524.55 1331 l 1,4,-1
 271.65 1331 l 1,5,-1
 310.35 1556 l 1,6,-1
 869.25 1556 l 1,7,-1
 549.75 -270 l 1,0,-1
EndSplineSet
EndChar
StartChar: asciicircum
Encoding: 94 94 94
Width: 1630
Flags: W
Fore
968.7 1493 m 1,0,-1
 1443.9 936 l 1,1,-1
 1227 936 l 1,2,-1
 858 1237 l 1,3,-1
 489.9 936 l 1,4,-1
 272.1 936 l 1,5,-1
 747.3 1493 l 1,6,-1
 968.7 1493 l 1,0,-1
EndSplineSet
EndChar
StartChar: underscore
Encoding: 95 95 95
Width: 972
Flags: W
Fore
990.8 -225 m 1,0,-1
 990.8 -483 l 1,1,-1
 33.2002 -483 l 1,2,-1
 33.2002 -225 l 1,3,-1
 990.8 -225 l 1,0,-1
EndSplineSet
EndChar
StartChar: grave
Encoding: 96 96 96
Width: 973
Flags: W
Fore
547.3 1638 m 1,0,-1
 735.4 1262 l 1,1,-1
 558.1 1262 l 1,2,-1
 292.6 1638 l 1,3,-1
 547.3 1638 l 1,0,-1
EndSplineSet
EndChar
StartChar: a
Encoding: 97 97 97
Width: 1308
Flags: W
Fore
670.9 504 m 2,0,1
 550.3 504 550.3 504 488.65 462.5 c 128,-1,2
 427 421 427 421 427 340 c 0,3,4
 427 279 427 279 463.45 244 c 128,-1,5
 499.9 209 499.9 209 563.8 209 c 0,6,7
 662.8 209 662.8 209 729.4 275.5 c 128,-1,8
 796 342 796 342 818.5 463 c 1,9,-1
 825.7 504 l 1,10,-1
 670.9 504 l 2,0,1
1174 639 m 2,11,-1
 1061.5 0 l 1,12,-1
 739.3 0 l 1,13,-1
 766.3 166 l 1,14,15
 687.1 66 687.1 66 598.9 18.5 c 128,-1,16
 510.7 -29 510.7 -29 407.2 -29 c 0,17,18
 264.1 -29 264.1 -29 179.95 53.5 c 128,-1,19
 95.7998 136 95.7998 136 95.7998 276 c 0,20,21
 95.7998 490 95.7998 490 244.75 603.5 c 128,-1,22
 393.7 717 393.7 717 674.5 717 c 2,23,-1
 864.4 717 l 1,24,-1
 868 745 l 1,25,26
 870.7 759 870.7 759 871.15 765 c 128,-1,27
 871.6 771 871.6 771 871.6 776 c 0,28,29
 871.6 842 871.6 842 815.35 875.5 c 128,-1,30
 759.1 909 759.1 909 648.4 909 c 0,31,32
 548.5 909 548.5 909 454.9 886 c 128,-1,33
 361.3 863 361.3 863 274 817 c 1,34,-1
 322.6 1090 l 1,35,36
 423.4 1118 423.4 1118 529.15 1132.5 c 128,-1,37
 634.9 1147 634.9 1147 748.3 1147 c 0,38,39
 972.4 1147 972.4 1147 1081.3 1061.5 c 128,-1,40
 1190.2 976 1190.2 976 1190.2 801 c 0,41,42
 1190.2 767 1190.2 767 1186.15 726.5 c 128,-1,43
 1182.1 686 1182.1 686 1174 639 c 2,11,-1
EndSplineSet
KernsSLIFO: 253 -63 0 0 255 -63 0 0 121 -63 0 0
EndChar
StartChar: b
Encoding: 98 98 98
Width: 1391
Flags: W
Fore
820.35 887 m 0,0,1
 696.15 887 696.15 887 617.4 759.5 c 128,-1,2
 538.65 632 538.65 632 538.65 428 c 0,3,4
 538.65 336 538.65 336 583.2 283.5 c 128,-1,5
 627.75 231 627.75 231 706.95 231 c 0,6,7
 828.45 231 828.45 231 907.65 356.5 c 128,-1,8
 986.85 482 986.85 482 986.85 678 c 0,9,10
 986.85 780 986.85 780 944.1 833.5 c 128,-1,11
 901.35 887 901.35 887 820.35 887 c 0,0,1
481.95 162 m 1,12,-1
 452.25 0 l 1,13,-1
 129.15 0 l 1,14,-1
 400.95 1556 l 1,15,-1
 724.95 1556 l 1,16,-1
 619.65 956 l 1,17,18
 693.45 1054 693.45 1054 774.45 1100.5 c 128,-1,19
 855.45 1147 855.45 1147 951.75 1147 c 0,20,21
 1121.85 1147 1121.85 1147 1220.85 1027 c 128,-1,22
 1319.85 907 1319.85 907 1319.85 700 c 0,23,24
 1319.85 571 1319.85 571 1285.2 449 c 128,-1,25
 1250.55 327 1250.55 327 1185.75 227 c 0,26,27
 1103.85 101 1103.85 101 1000.8 36 c 128,-1,28
 897.75 -29 897.75 -29 779.85 -29 c 0,29,30
 676.35 -29 676.35 -29 603.9 17.5 c 128,-1,31
 531.45 64 531.45 64 481.95 162 c 1,12,-1
EndSplineSet
EndChar
StartChar: c
Encoding: 99 99 99
Width: 1155
Flags: W
Fore
1134.3 1085 m 1,0,-1
 1083 793 l 1,1,2
 1018.2 841 1018.2 841 955.2 866 c 128,-1,3
 892.2 891 892.2 891 831.9 891 c 0,4,5
 674.4 891 674.4 891 574.5 773.5 c 128,-1,6
 474.6 656 474.6 656 474.6 473 c 0,7,8
 474.6 356 474.6 356 536.7 291.5 c 128,-1,9
 598.8 227 598.8 227 712.2 227 c 0,10,11
 787.8 227 787.8 227 860.7 252 c 128,-1,12
 933.6 277 933.6 277 999.3 326 c 1,13,-1
 949.8 33 l 1,14,15
 869.7 2 869.7 2 788.7 -13.5 c 128,-1,16
 707.7 -29 707.7 -29 625.8 -29 c 0,17,18
 388.2 -29 388.2 -29 259.95 89.5 c 128,-1,19
 131.7 208 131.7 208 131.7 426 c 0,20,21
 131.7 563 131.7 563 178.95 692 c 128,-1,22
 226.2 821 226.2 821 314.4 924 c 0,23,24
 412.5 1037 412.5 1037 539.4 1092 c 128,-1,25
 666.3 1147 666.3 1147 831.9 1147 c 0,26,27
 908.4 1147 908.4 1147 984 1131.5 c 128,-1,28
 1059.6 1116 1059.6 1116 1134.3 1085 c 1,0,-1
EndSplineSet
EndChar
StartChar: d
Encoding: 100 100 100
Width: 1397
Flags: W
Fore
643.95 231 m 0,0,1
 768.15 231 768.15 231 846 358 c 128,-1,2
 923.85 485 923.85 485 923.85 690 c 0,3,4
 923.85 783 923.85 783 880.2 835 c 128,-1,5
 836.55 887 836.55 887 758.25 887 c 0,6,7
 635.85 887 635.85 887 556.65 761.5 c 128,-1,8
 477.45 636 477.45 636 477.45 440 c 0,9,10
 477.45 338 477.45 338 520.2 284.5 c 128,-1,11
 562.95 231 562.95 231 643.95 231 c 0,0,1
983.25 956 m 1,12,-1
 1087.65 1556 l 1,13,-1
 1412.55 1556 l 1,14,-1
 1139.85 0 l 1,15,-1
 814.95 0 l 1,16,-1
 844.65 162 l 1,17,18
 770.85 64 770.85 64 689.85 17.5 c 128,-1,19
 608.85 -29 608.85 -29 512.55 -29 c 0,20,21
 342.45 -29 342.45 -29 243.45 91 c 128,-1,22
 144.45 211 144.45 211 144.45 418 c 0,23,24
 144.45 547 144.45 547 179.1 669 c 128,-1,25
 213.75 791 213.75 791 278.55 891 c 0,26,27
 360.45 1017 360.45 1017 463.5 1082 c 128,-1,28
 566.55 1147 566.55 1147 684.45 1147 c 0,29,30
 787.95 1147 787.95 1147 860.4 1100.5 c 128,-1,31
 932.85 1054 932.85 1054 983.25 956 c 1,12,-1
EndSplineSet
EndChar
StartChar: e
Encoding: 101 101 101
Width: 1319
Flags: W
Fore
1228.45 518 m 1,0,-1
 1217.65 461 l 1,1,-1
 463.45 461 l 1,2,3
 463.45 455 463.45 455 462.55 443.5 c 128,-1,4
 461.65 432 461.65 432 461.65 426 c 0,5,6
 461.65 317 461.65 317 520.6 263 c 128,-1,7
 579.55 209 579.55 209 697.45 209 c 0,8,9
 799.15 209 799.15 209 912.1 243 c 128,-1,10
 1025.05 277 1025.05 277 1149.25 344 c 1,11,-1
 1099.75 66 l 1,12,13
 981.85 18 981.85 18 865.3 -5.5 c 128,-1,14
 748.75 -29 748.75 -29 628.15 -29 c 0,15,16
 392.35 -29 392.35 -29 264.1 92 c 128,-1,17
 135.85 213 135.85 213 135.85 434 c 0,18,19
 135.85 562 135.85 562 176.8 682.5 c 128,-1,20
 217.75 803 217.75 803 296.05 903 c 0,21,22
 388.75 1023 388.75 1023 517.9 1085 c 128,-1,23
 647.05 1147 647.05 1147 804.55 1147 c 0,24,25
 1008.85 1147 1008.85 1147 1129 1026 c 128,-1,26
 1249.15 905 1249.15 905 1249.15 700 c 0,27,28
 1249.15 660 1249.15 660 1244.2 615.5 c 128,-1,29
 1239.25 571 1239.25 571 1228.45 518 c 1,0,-1
924.25 682 m 1,30,31
 926.95 695 926.95 695 928.3 708.5 c 128,-1,32
 929.65 722 929.65 722 929.65 735 c 0,33,34
 929.65 815 929.65 815 886.45 862 c 128,-1,35
 843.25 909 843.25 909 769.45 909 c 0,36,37
 674.95 909 674.95 909 608.8 851.5 c 128,-1,38
 542.65 794 542.65 794 507.55 682 c 1,39,-1
 924.25 682 l 1,30,31
EndSplineSet
EndChar
StartChar: f
Encoding: 102 102 102
Width: 862
Flags: W
Fore
1055.8 1556 m 1,0,-1
 1013.5 1321 l 1,1,-1
 836.2 1321 l 2,2,3
 768.7 1321 768.7 1321 737.65 1293.5 c 128,-1,4
 706.6 1266 706.6 1266 694.9 1199 c 1,5,-1
 679.6 1120 l 1,6,-1
 952.3 1120 l 1,7,-1
 908.2 864 l 1,8,-1
 635.5 864 l 1,9,-1
 484.3 0 l 1,10,-1
 160.3 0 l 1,11,-1
 311.5 864 l 1,12,-1
 152.2 864 l 1,13,-1
 197.2 1120 l 1,14,-1
 355.6 1120 l 1,15,-1
 370 1198 l 1,16,17
 403.3 1384 403.3 1384 508.6 1470 c 128,-1,18
 613.9 1556 613.9 1556 808.3 1556 c 2,19,-1
 1055.8 1556 l 1,0,-1
EndSplineSet
KernsSLIFO: 8217 141 0 0 8221 86 0 0 46 -112 0 0 45 -36 0 0 44 -112 0 0
EndChar
StartChar: g
Encoding: 103 103 103
Width: 1391
Flags: W
Fore
842.3 190 m 1,0,1
 764.9 92 764.9 92 684.8 46 c 128,-1,2
 604.7 0 604.7 0 510.2 0 c 0,3,4
 339.2 0 339.2 0 239.75 122.5 c 128,-1,5
 140.3 245 140.3 245 140.3 457 c 0,6,7
 140.3 570 140.3 570 174.95 683.5 c 128,-1,8
 209.6 797 209.6 797 274.4 897 c 0,9,10
 353.6 1018 353.6 1018 456.2 1081.5 c 128,-1,11
 558.8 1145 558.8 1145 676.7 1145 c 0,12,13
 782.9 1145 782.9 1145 855.35 1099 c 128,-1,14
 927.8 1053 927.8 1053 977.3 954 c 1,15,-1
 1004.3 1120 l 1,16,-1
 1329.2 1120 l 1,17,-1
 1159.1 147 l 1,18,19
 1106.9 -154 1106.9 -154 935.9 -298 c 128,-1,20
 764.9 -442 764.9 -442 460.7 -442 c 0,21,22
 367.1 -442 367.1 -442 280.25 -426 c 128,-1,23
 193.4 -410 193.4 -410 108.8 -377 c 1,24,-1
 156.5 -98 l 1,25,26
 233 -152 233 -152 309.5 -178.5 c 128,-1,27
 386 -205 386 -205 466.1 -205 c 0,28,29
 626.3 -205 626.3 -205 712.25 -129 c 128,-1,30
 798.2 -53 798.2 -53 827.9 113 c 1,31,-1
 842.3 190 l 1,0,1
752.3 887 m 0,32,33
 633.5 887 633.5 887 554.75 768 c 128,-1,34
 476 649 476 649 476 469 c 0,35,36
 476 367 476 367 518.3 313.5 c 128,-1,37
 560.6 260 560.6 260 641.6 260 c 0,38,39
 759.5 260 759.5 260 838.7 378.5 c 128,-1,40
 917.9 497 917.9 497 917.9 674 c 0,41,42
 917.9 778 917.9 778 875.6 832.5 c 128,-1,43
 833.3 887 833.3 887 752.3 887 c 0,32,33
EndSplineSet
EndChar
StartChar: h
Encoding: 104 104 104
Width: 1382
Flags: W
Fore
1259 682 m 2,0,-1
 1139.3 0 l 1,1,-1
 816.2 0 l 1,2,-1
 917.9 584 l 1,3,4
 928.7 641 928.7 641 934.55 680.5 c 128,-1,5
 940.4 720 940.4 720 940.4 743 c 0,6,7
 940.4 807 940.4 807 908.45 842 c 128,-1,8
 876.5 877 876.5 877 818 877 c 0,9,10
 718.1 877 718.1 877 646.55 790.5 c 128,-1,11
 575 704 575 704 547.1 551 c 1,12,-1
 449.9 0 l 1,13,-1
 126.8 0 l 1,14,-1
 398.6 1556 l 1,15,-1
 722.6 1556 l 1,16,-1
 617.3 956 l 1,17,18
 706.4 1053 706.4 1053 796.4 1100 c 128,-1,19
 886.4 1147 886.4 1147 984.5 1147 c 0,20,21
 1124 1147 1124 1147 1199.6 1066 c 128,-1,22
 1275.2 985 1275.2 985 1275.2 838 c 0,23,24
 1275.2 806 1275.2 806 1271.15 767 c 128,-1,25
 1267.1 728 1267.1 728 1259 682 c 2,0,-1
EndSplineSet
EndChar
StartChar: i
Encoding: 105 105 105
Width: 671
Flags: W
Fore
292.3 1120 m 1,0,-1
 616.3 1120 l 1,1,-1
 419.2 0 l 1,2,-1
 96.0996 0 l 1,3,-1
 292.3 1120 l 1,0,-1
367.9 1556 m 1,4,-1
 691.9 1556 l 1,5,-1
 640.6 1264 l 1,6,-1
 315.7 1264 l 1,7,-1
 367.9 1556 l 1,4,-1
EndSplineSet
EndChar
StartChar: j
Encoding: 106 106 106
Width: 654
Flags: W
Fore
276.05 1120 m 1,0,-1
 600.05 1120 l 1,1,-1
 406.55 20 l 2,2,3
 365.15 -215 365.15 -215 252.2 -328.5 c 128,-1,4
 139.25 -442 139.25 -442 -52.4502 -442 c 2,5,-1
 -212.65 -442 l 1,6,-1
 -172.15 -207 l 1,7,-1
 -115.45 -207 l 2,8,9
 -24.5498 -207 -24.5498 -207 17.2998 -161.5 c 128,-1,10
 59.1504 -116 59.1504 -116 82.5498 20 c 1,11,-1
 276.05 1120 l 1,0,-1
351.65 1556 m 1,12,-1
 675.65 1556 l 1,13,-1
 624.35 1264 l 1,14,-1
 299.45 1264 l 1,15,-1
 351.65 1556 l 1,12,-1
EndSplineSet
EndChar
StartChar: k
Encoding: 107 107 107
Width: 1302
Flags: W
Fore
404.95 1556 m 1,0,-1
 728.95 1556 l 1,1,-1
 581.35 713 l 1,2,-1
 1016.05 1120 l 1,3,-1
 1395.85 1120 l 1,4,-1
 809.95 602 l 1,5,-1
 1235.65 0 l 1,6,-1
 867.55 0 l 1,7,-1
 540.85 483 l 1,8,-1
 456.25 0 l 1,9,-1
 133.15 0 l 1,10,-1
 404.95 1556 l 1,0,-1
EndSplineSet
KernsSLIFO: 283 -73 0 0 339 -73 0 0 248 -45 0 0 245 -73 0 0 246 -73 0 0 244 -73 0 0 242 -73 0 0 243 -73 0 0 235 -73 0 0 234 -73 0 0 232 -73 0 0 233 -73 0 0 111 -73 0 0 101 -73 0 0
EndChar
StartChar: l
Encoding: 108 108 108
Width: 671
Flags: W
Fore
367.9 1556 m 1,0,-1
 691.9 1556 l 1,1,-1
 419.2 0 l 1,2,-1
 96.0996 0 l 1,3,-1
 367.9 1556 l 1,0,-1
EndSplineSet
EndChar
StartChar: m
Encoding: 109 109 109
Width: 2024
Flags: W
Fore
1259.5 934 m 1,0,1
 1334.2 1037 1334.2 1037 1429.15 1092 c 128,-1,2
 1524.1 1147 1524.1 1147 1626.7 1147 c 0,3,4
 1761.7 1147 1761.7 1147 1839.55 1064.5 c 128,-1,5
 1917.4 982 1917.4 982 1917.4 838 c 0,6,7
 1917.4 808 1917.4 808 1913.35 769.5 c 128,-1,8
 1909.3 731 1909.3 731 1901.2 682 c 1,9,-1
 1781.5 0 l 1,10,-1
 1456.6 0 l 1,11,-1
 1558.3 584 l 1,12,-1
 1561 599 l 2,13,14
 1584.4 723 1584.4 723 1584.4 758 c 0,15,16
 1584.4 813 1584.4 813 1556.05 845 c 128,-1,17
 1527.7 877 1527.7 877 1479.1 877 c 0,18,19
 1386.4 877 1386.4 877 1322.05 792.5 c 128,-1,20
 1257.7 708 1257.7 708 1229.8 551 c 2,21,-1
 1132.6 0 l 1,22,-1
 807.7 0 l 1,23,-1
 911.2 584 l 1,24,25
 924.7 659 924.7 659 930.1 697.5 c 128,-1,26
 935.5 736 935.5 736 935.5 758 c 0,27,28
 935.5 814 935.5 814 907.6 845.5 c 128,-1,29
 879.7 877 879.7 877 830.2 877 c 0,30,31
 741.1 877 741.1 877 674.05 789.5 c 128,-1,32
 607 702 607 702 580.9 551 c 1,33,-1
 483.7 0 l 1,34,-1
 160.6 0 l 1,35,-1
 356.8 1120 l 1,36,-1
 680.8 1120 l 1,37,-1
 651.1 956 l 1,38,39
 726.7 1051 726.7 1051 812.2 1099 c 128,-1,40
 897.7 1147 897.7 1147 990.4 1147 c 0,41,42
 1094.8 1147 1094.8 1147 1169.5 1087.5 c 128,-1,43
 1244.2 1028 1244.2 1028 1259.5 934 c 1,0,1
EndSplineSet
EndChar
StartChar: n
Encoding: 110 110 110
Width: 1382
Flags: W
Fore
1259 682 m 2,0,-1
 1139.3 0 l 1,1,-1
 816.2 0 l 1,2,-1
 917.9 584 l 1,3,4
 928.7 641 928.7 641 934.55 680.5 c 128,-1,5
 940.4 720 940.4 720 940.4 743 c 0,6,7
 940.4 807 940.4 807 908.45 842 c 128,-1,8
 876.5 877 876.5 877 818 877 c 0,9,10
 718.1 877 718.1 877 646.55 790.5 c 128,-1,11
 575 704 575 704 547.1 551 c 1,12,-1
 449.9 0 l 1,13,-1
 126.8 0 l 1,14,-1
 323 1120 l 1,15,-1
 647 1120 l 1,16,-1
 617.3 956 l 1,17,18
 706.4 1053 706.4 1053 796.4 1100 c 128,-1,19
 886.4 1147 886.4 1147 984.5 1147 c 0,20,21
 1124 1147 1124 1147 1199.6 1066 c 128,-1,22
 1275.2 985 1275.2 985 1275.2 838 c 0,23,24
 1275.2 806 1275.2 806 1271.15 767 c 128,-1,25
 1267.1 728 1267.1 728 1259 682 c 2,0,-1
EndSplineSet
EndChar
StartChar: o
Encoding: 111 111 111
Width: 1336
Flags: W
Fore
761.55 891 m 0,0,1
 636.45 891 636.45 891 555.45 765 c 128,-1,2
 474.45 639 474.45 639 474.45 444 c 0,3,4
 474.45 338 474.45 338 518.1 282.5 c 128,-1,5
 561.75 227 561.75 227 645.45 227 c 0,6,7
 770.55 227 770.55 227 851.55 353.5 c 128,-1,8
 932.55 480 932.55 480 932.55 676 c 0,9,10
 932.55 781 932.55 781 888.9 836 c 128,-1,11
 845.25 891 845.25 891 761.55 891 c 0,0,1
787.65 1147 m 0,12,13
 1012.65 1147 1012.65 1147 1141.35 1020 c 128,-1,14
 1270.05 893 1270.05 893 1270.05 674 c 0,15,16
 1270.05 547 1270.05 547 1229.55 427.5 c 128,-1,17
 1189.05 308 1189.05 308 1111.65 209 c 0,18,19
 1019.85 91 1019.85 91 894.75 31 c 128,-1,20
 769.65 -29 769.65 -29 615.75 -29 c 0,21,22
 393.45 -29 393.45 -29 265.2 98 c 128,-1,23
 136.95 225 136.95 225 136.95 444 c 0,24,25
 136.95 570 136.95 570 178.35 690.5 c 128,-1,26
 219.75 811 219.75 811 297.15 911 c 0,27,28
 387.15 1027 387.15 1027 511.8 1087 c 128,-1,29
 636.45 1147 636.45 1147 787.65 1147 c 0,12,13
EndSplineSet
EndChar
StartChar: p
Encoding: 112 112 112
Width: 1387
Flags: W
Fore
477.8 162 m 1,0,-1
 374.3 -426 l 1,1,-1
 50.2998 -426 l 1,2,-1
 321.2 1120 l 1,3,-1
 645.2 1120 l 1,4,-1
 615.5 956 l 1,5,6
 689.3 1054 689.3 1054 770.3 1100.5 c 128,-1,7
 851.3 1147 851.3 1147 947.6 1147 c 0,8,9
 1117.7 1147 1117.7 1147 1216.7 1027 c 128,-1,10
 1315.7 907 1315.7 907 1315.7 700 c 0,11,12
 1315.7 571 1315.7 571 1281.05 449 c 128,-1,13
 1246.4 327 1246.4 327 1181.6 227 c 0,14,15
 1099.7 101 1099.7 101 996.65 36 c 128,-1,16
 893.6 -29 893.6 -29 775.7 -29 c 0,17,18
 672.2 -29 672.2 -29 599.75 17.5 c 128,-1,19
 527.3 64 527.3 64 477.8 162 c 1,0,-1
816.2 887 m 0,20,21
 692 887 692 887 613.25 759.5 c 128,-1,22
 534.5 632 534.5 632 534.5 428 c 0,23,24
 534.5 336 534.5 336 579.05 283.5 c 128,-1,25
 623.6 231 623.6 231 702.8 231 c 0,26,27
 824.3 231 824.3 231 903.5 356.5 c 128,-1,28
 982.7 482 982.7 482 982.7 678 c 0,29,30
 982.7 780 982.7 780 939.95 833.5 c 128,-1,31
 897.2 887 897.2 887 816.2 887 c 0,20,21
EndSplineSet
EndChar
StartChar: q
Encoding: 113 113 113
Width: 1392
Flags: W
Fore
978.95 956 m 1,0,-1
 1005.95 1120 l 1,1,-1
 1330.85 1120 l 1,2,-1
 1059.95 -426 l 1,3,-1
 735.05 -426 l 1,4,-1
 838.55 162 l 1,5,6
 766.55 64 766.55 64 685.55 17.5 c 128,-1,7
 604.55 -29 604.55 -29 508.25 -29 c 0,8,9
 338.15 -29 338.15 -29 239.15 91 c 128,-1,10
 140.15 211 140.15 211 140.15 418 c 0,11,12
 140.15 547 140.15 547 174.8 669 c 128,-1,13
 209.45 791 209.45 791 274.25 891 c 0,14,15
 356.15 1017 356.15 1017 459.2 1082 c 128,-1,16
 562.25 1147 562.25 1147 680.15 1147 c 0,17,18
 783.65 1147 783.65 1147 856.1 1100.5 c 128,-1,19
 928.55 1054 928.55 1054 978.95 956 c 1,0,-1
639.65 231 m 0,20,21
 763.85 231 763.85 231 841.7 358 c 128,-1,22
 919.55 485 919.55 485 919.55 690 c 0,23,24
 919.55 783 919.55 783 875.9 835 c 128,-1,25
 832.25 887 832.25 887 753.95 887 c 0,26,27
 631.55 887 631.55 887 552.35 761.5 c 128,-1,28
 473.15 636 473.15 636 473.15 440 c 0,29,30
 473.15 338 473.15 338 515.9 284.5 c 128,-1,31
 558.65 231 558.65 231 639.65 231 c 0,20,21
EndSplineSet
EndChar
StartChar: r
Encoding: 114 114 114
Width: 967
Flags: W
Fore
1006.65 815 m 1,0,1
 973.35 836 973.35 836 932.85 847 c 128,-1,2
 892.35 858 892.35 858 845.55 858 c 0,3,4
 722.25 858 722.25 858 640.8 770 c 128,-1,5
 559.35 682 559.35 682 530.55 516 c 1,6,-1
 438.75 0 l 1,7,-1
 115.65 0 l 1,8,-1
 311.85 1120 l 1,9,-1
 635.85 1120 l 1,10,-1
 600.75 928 l 1,11,12
 664.65 1034 664.65 1034 760.5 1090.5 c 128,-1,13
 856.35 1147 856.35 1147 973.35 1147 c 0,14,15
 990.45 1147 990.45 1147 1012.05 1145 c 128,-1,16
 1033.65 1143 1033.65 1143 1063.35 1139 c 1,17,-1
 1006.65 815 l 1,0,1
EndSplineSet
KernsSLIFO: 8217 86 0 0 8221 38 0 0 46 -292 0 0 44 -301 0 0
EndChar
StartChar: s
Encoding: 115 115 115
Width: 1155
Flags: W
Fore
1090.65 1085 m 1,0,-1
 1042.95 807 l 1,1,2
 948.45 857 948.45 857 854.85 883 c 128,-1,3
 761.25 909 761.25 909 677.55 909 c 0,4,5
 582.15 909 582.15 909 530.4 881.5 c 128,-1,6
 478.65 854 478.65 854 478.65 803 c 0,7,8
 478.65 773 478.65 773 507.45 755 c 128,-1,9
 536.25 737 536.25 737 620.85 717 c 1,10,-1
 679.35 705 l 1,11,12
 874.65 659 874.65 659 952.95 586.5 c 128,-1,13
 1031.25 514 1031.25 514 1031.25 385 c 0,14,15
 1031.25 190 1031.25 190 893.55 80.5 c 128,-1,16
 755.85 -29 755.85 -29 508.35 -29 c 0,17,18
 404.85 -29 404.85 -29 296.85 -11 c 128,-1,19
 188.85 7 188.85 7 76.3496 43 c 1,20,-1
 124.95 324 l 1,21,22
 212.25 267 212.25 267 311.7 238 c 128,-1,23
 411.15 209 411.15 209 515.55 209 c 0,24,25
 617.25 209 617.25 209 668.55 236 c 128,-1,26
 719.85 263 719.85 263 719.85 315 c 0,27,28
 719.85 351 719.85 351 691.05 371 c 128,-1,29
 662.25 391 662.25 391 572.25 412 c 1,30,-1
 513.75 424 l 1,31,32
 340.95 464 340.95 464 267.15 542 c 128,-1,33
 193.35 620 193.35 620 193.35 758 c 0,34,35
 193.35 945 193.35 945 320.7 1046 c 128,-1,36
 448.05 1147 448.05 1147 684.75 1147 c 0,37,38
 788.25 1147 788.25 1147 888.6 1131.5 c 128,-1,39
 988.95 1116 988.95 1116 1090.65 1085 c 1,0,-1
EndSplineSet
EndChar
StartChar: t
Encoding: 116 116 116
Width: 937
Flags: W
Fore
719.8 1438 m 1,0,-1
 664.9 1120 l 1,1,-1
 994.3 1120 l 1,2,-1
 948.4 864 l 1,3,-1
 619 864 l 1,4,-1
 536.2 390 l 1,5,6
 532.6 374 532.6 374 531.25 363 c 128,-1,7
 529.9 352 529.9 352 529.9 342 c 0,8,9
 529.9 296 529.9 296 557.35 276 c 128,-1,10
 584.8 256 584.8 256 649.6 256 c 2,11,-1
 816.1 256 l 1,12,-1
 770.2 0 l 1,13,-1
 499.3 0 l 2,14,15
 353.5 0 353.5 0 277 68 c 128,-1,16
 200.5 136 200.5 136 200.5 264 c 0,17,18
 200.5 292 200.5 292 203.2 324 c 128,-1,19
 205.9 356 205.9 356 211.3 389 c 1,20,-1
 294.1 864 l 1,21,-1
 135.7 864 l 1,22,-1
 179.8 1120 l 1,23,-1
 340 1120 l 1,24,-1
 395.8 1438 l 1,25,-1
 719.8 1438 l 1,0,-1
EndSplineSet
EndChar
StartChar: u
Encoding: 117 117 117
Width: 1388
Flags: W
Fore
201 436 m 2,0,-1
 318.9 1120 l 1,1,-1
 642 1120 l 1,2,-1
 540.3 537 l 1,3,4
 529.5 480 529.5 480 524.1 440 c 128,-1,5
 518.7 400 518.7 400 518.7 377 c 0,6,7
 518.7 314 518.7 314 550.2 279 c 128,-1,8
 581.7 244 581.7 244 640.2 244 c 0,9,10
 740.1 244 740.1 244 812.1 330 c 128,-1,11
 884.1 416 884.1 416 911.1 569 c 2,12,-1
 1008.3 1120 l 1,13,-1
 1331.4 1120 l 1,14,-1
 1136.1 0 l 1,15,-1
 811.2 0 l 1,16,-1
 840.9 164 l 1,17,18
 758.1 67 758.1 67 667.2 19 c 128,-1,19
 576.3 -29 576.3 -29 475.5 -29 c 0,20,21
 337.8 -29 337.8 -29 262.2 52 c 128,-1,22
 186.6 133 186.6 133 186.6 281 c 0,23,24
 186.6 316 186.6 316 190.2 355 c 128,-1,25
 193.8 394 193.8 394 201 436 c 2,0,-1
EndSplineSet
EndChar
StartChar: v
Encoding: 118 118 118
Width: 1277
Flags: W
Fore
192 1120 m 1,0,-1
 489 1120 l 1,1,-1
 619.5 338 l 1,2,-1
 999.3 1120 l 1,3,-1
 1326 1120 l 1,4,-1
 733.8 0 l 1,5,-1
 392.7 0 l 1,6,-1
 192 1120 l 1,0,-1
EndSplineSet
KernsSLIFO: 46 -167 0 0 44 -167 0 0
EndChar
StartChar: w
Encoding: 119 119 119
Width: 1806
Flags: W
Fore
264 1120 m 1,0,-1
 561 1120 l 1,1,-1
 596.1 350 l 1,2,-1
 900.3 1120 l 1,3,-1
 1155.9 1120 l 1,4,-1
 1192.8 352 l 1,5,-1
 1495.2 1120 l 1,6,-1
 1812 1120 l 1,7,-1
 1351.2 0 l 1,8,-1
 1009.2 0 l 1,9,-1
 975.9 770 l 1,10,-1
 668.1 0 l 1,11,-1
 334.2 0 l 1,12,-1
 264 1120 l 1,0,-1
EndSplineSet
KernsSLIFO: 46 -131 0 0 44 -131 0 0
EndChar
StartChar: x
Encoding: 120 120 120
Width: 1253
Flags: W
Fore
472.2 573 m 1,0,-1
 204.9 1120 l 1,1,-1
 539.7 1120 l 1,2,-1
 689.1 788 l 1,3,-1
 951 1120 l 1,4,-1
 1301.1 1120 l 1,5,-1
 842.1 575 l 1,6,-1
 1122.9 0 l 1,7,-1
 787.2 0 l 1,8,-1
 628.8 354 l 1,9,-1
 339 0 l 1,10,-1
 -11.0996 0 l 1,11,-1
 472.2 573 l 1,0,-1
EndSplineSet
EndChar
StartChar: y
Encoding: 121 121 121
Width: 1271
Flags: W
Fore
191.85 1120 m 1,0,-1
 496.05 1120 l 1,1,-1
 634.65 344 l 1,2,-1
 991.95 1120 l 1,3,-1
 1336.65 1120 l 1,4,-1
 698.55 -106 l 1,5,6
 591.45 -313 591.45 -313 500.55 -377.5 c 128,-1,7
 409.65 -442 409.65 -442 265.65 -442 c 2,8,-1
 70.3496 -442 l 1,9,-1
 103.65 -207 l 1,10,-1
 205.35 -207 l 2,11,12
 284.55 -207 284.55 -207 328.2 -177.5 c 128,-1,13
 371.85 -148 371.85 -148 406.05 -74 c 1,14,-1
 435.75 -14 l 1,15,-1
 191.85 1120 l 1,0,-1
EndSplineSet
KernsSLIFO: 46 -188 0 0 44 -159 0 0
EndChar
StartChar: z
Encoding: 122 122 122
Width: 1131
Flags: W
Fore
259.8 1120 m 1,0,-1
 1139.1 1120 l 1,1,-1
 1095 870 l 1,2,-1
 466.8 256 l 1,3,-1
 987.9 256 l 1,4,-1
 943.8 0 l 1,5,-1
 42.9004 0 l 1,6,-1
 85.2002 250 l 1,7,-1
 715.2 864 l 1,8,-1
 215.7 864 l 1,9,-1
 259.8 1120 l 1,0,-1
EndSplineSet
EndChar
StartChar: braceleft
Encoding: 123 123 123
Width: 1391
Flags: W
Fore
1021.65 -109 m 1,0,-1
 982.95 -334 l 1,1,-1
 786.75 -334 l 2,2,3
 625.65 -334 625.65 -334 544.2 -272.5 c 128,-1,4
 462.75 -211 462.75 -211 462.75 -88 c 0,5,6
 462.75 -66 462.75 -66 465.9 -36 c 128,-1,7
 469.05 -6 469.05 -6 475.35 34 c 1,8,-1
 508.65 227 l 1,9,10
 514.05 257 514.05 257 516.75 284.5 c 128,-1,11
 519.45 312 519.45 312 519.45 334 c 0,12,13
 519.45 422 519.45 422 478.5 458 c 128,-1,14
 437.55 494 437.55 494 332.25 494 c 2,15,-1
 274.65 494 l 1,16,-1
 315.15 717 l 1,17,-1
 370.95 717 l 2,18,19
 497.85 717 497.85 717 556.8 775 c 128,-1,20
 615.75 833 615.75 833 641.85 983 c 1,21,-1
 676.95 1188 l 2,22,23
 710.25 1381 710.25 1381 815.1 1468.5 c 128,-1,24
 919.95 1556 919.95 1556 1117.05 1556 c 2,25,-1
 1312.35 1556 l 1,26,-1
 1273.65 1331 l 1,27,-1
 1210.65 1331 l 2,28,29
 1085.55 1331 1085.55 1331 1039.2 1287.5 c 128,-1,30
 992.85 1244 992.85 1244 967.65 1102 c 2,31,-1
 937.95 936 l 1,32,33
 910.95 780 910.95 780 857.85 708.5 c 128,-1,34
 804.75 637 804.75 637 702.15 612 c 1,35,36
 774.15 591 774.15 591 807.45 546 c 128,-1,37
 840.75 501 840.75 501 840.75 424 c 0,38,39
 840.75 394 840.75 394 837.15 360.5 c 128,-1,40
 833.55 327 833.55 327 825.45 287 c 1,41,-1
 796.65 121 l 2,42,43
 788.55 75 788.55 75 785.85 51 c 128,-1,44
 783.15 27 783.15 27 783.15 10 c 0,45,46
 783.15 -57 783.15 -57 819.6 -83 c 128,-1,47
 856.05 -109 856.05 -109 960.45 -109 c 2,48,-1
 1021.65 -109 l 1,0,-1
EndSplineSet
EndChar
StartChar: bar
Encoding: 124 124 124
Width: 710
Flags: W
Fore
475.65 1565 m 1,0,-1
 475.65 -483 l 1,1,-1
 271.35 -483 l 1,2,-1
 271.35 1565 l 1,3,-1
 475.65 1565 l 1,0,-1
EndSplineSet
EndChar
StartChar: braceright
Encoding: 125 125 125
Width: 1378
Flags: W
Fore
186.25 -109 m 1,0,-1
 249.25 -109 l 2,1,2
 375.25 -109 375.25 -109 421.6 -64.5 c 128,-1,3
 467.95 -20 467.95 -20 492.25 121 c 1,4,-1
 521.95 287 l 1,5,6
 548.95 442 548.95 442 602.5 514 c 128,-1,7
 656.05 586 656.05 586 759.55 612 c 1,8,9
 687.55 631 687.55 631 653.35 676 c 128,-1,10
 619.15 721 619.15 721 619.15 799 c 0,11,12
 619.15 823 619.15 823 623.2 857 c 128,-1,13
 627.25 891 627.25 891 634.45 936 c 1,14,-1
 664.15 1102 l 1,15,16
 671.35 1144 671.35 1144 674.05 1169 c 128,-1,17
 676.75 1194 676.75 1194 676.75 1212 c 0,18,19
 676.75 1280 676.75 1280 640.3 1305.5 c 128,-1,20
 603.85 1331 603.85 1331 499.45 1331 c 2,21,-1
 439.15 1331 l 1,22,-1
 477.85 1556 l 1,23,-1
 674.95 1556 l 2,24,25
 836.05 1556 836.05 1556 916.6 1495 c 128,-1,26
 997.15 1434 997.15 1434 997.15 1311 c 0,27,28
 997.15 1283 997.15 1283 994 1252.5 c 128,-1,29
 990.85 1222 990.85 1222 984.55 1188 c 1,30,-1
 949.45 983 l 1,31,32
 944.05 953 944.05 953 941.35 926 c 128,-1,33
 938.65 899 938.65 899 938.65 877 c 0,34,35
 938.65 789 938.65 789 980.5 753 c 128,-1,36
 1022.35 717 1022.35 717 1126.75 717 c 2,37,-1
 1183.45 717 l 1,38,-1
 1142.95 494 l 1,39,-1
 1088.05 494 l 2,40,41
 961.15 494 961.15 494 902.2 435.5 c 128,-1,42
 843.25 377 843.25 377 817.15 227 c 2,43,-1
 783.85 35 l 2,44,45
 750.55 -158 750.55 -158 645.25 -246 c 128,-1,46
 539.95 -334 539.95 -334 342.85 -334 c 2,47,-1
 147.55 -334 l 1,48,-1
 186.25 -109 l 1,0,-1
EndSplineSet
EndChar
StartChar: asciitilde
Encoding: 126 126 126
Width: 1630
Flags: W
Fore
1434.9 850 m 1,0,-1
 1434.9 606 l 1,1,2
 1339.5 526 1339.5 526 1258.95 491.5 c 128,-1,3
 1178.4 457 1178.4 457 1092 457 c 0,4,5
 995.7 457 995.7 457 867 515 c 0,6,7
 854.4 521 854.4 521 847.2 524 c 0,8,9
 840.9 527 840.9 527 827.4 533 c 0,10,11
 687.9 594 687.9 594 603.3 594 c 0,12,13
 524.1 594 524.1 594 446.7 555.5 c 128,-1,14
 369.3 517 369.3 517 281.1 434 c 1,15,-1
 281.1 678 l 1,16,17
 377.4 758 377.4 758 457.5 792.5 c 128,-1,18
 537.6 827 537.6 827 624 827 c 0,19,20
 720.3 827 720.3 827 849 769 c 0,21,22
 862.5 763 862.5 763 868.8 760 c 0,23,24
 875.1 757 875.1 757 888.6 751 c 0,25,26
 1028.1 690 1028.1 690 1112.7 690 c 0,27,28
 1190.1 690 1190.1 690 1266.15 727.5 c 128,-1,29
 1342.2 765 1342.2 765 1434.9 850 c 1,0,-1
EndSplineSet
EndChar
StartChar: exclamdown
Encoding: 161 161 161
Width: 887
Flags: W
Fore
697.4 1137 m 1,0,-1
 372.5 1137 l 1,1,-1
 435.5 1493 l 1,2,-1
 760.4 1493 l 1,3,-1
 697.4 1137 l 1,0,-1
498.5 0 m 1,4,-1
 173.6 0 l 1,5,-1
 275.3 573 l 1,6,-1
 393.2 991 l 1,7,-1
 625.4 991 l 1,8,-1
 599.3 573 l 1,9,-1
 498.5 0 l 1,4,-1
EndSplineSet
EndChar
StartChar: cent
Encoding: 162 162 162
Width: 1351
Flags: W
Fore
736.2 856 m 1,0,1
 644.4 810 644.4 810 589.05 705.5 c 128,-1,2
 533.7 601 533.7 601 533.7 473 c 0,3,4
 533.7 399 533.7 399 559.35 344.5 c 128,-1,5
 585 290 585 290 631.8 264 c 1,6,-1
 736.2 856 l 1,0,1
1193.4 1085 m 1,7,-1
 1142.1 793 l 1,8,9
 1074.6 843 1074.6 843 1013.85 867 c 128,-1,10
 953.1 891 953.1 891 895.5 891 c 2,11,-1
 887.4 891 l 1,12,-1
 772.2 227 l 1,13,14
 852.3 229 852.3 229 923.85 253.5 c 128,-1,15
 995.4 278 995.4 278 1059.3 326 c 1,16,-1
 1008.9 33 l 1,17,18
 944.1 8 944.1 8 873.9 -7 c 128,-1,19
 803.7 -22 803.7 -22 727.2 -27 c 1,20,-1
 677.7 -313 l 1,21,-1
 531.9 -313 l 1,22,-1
 581.4 -23 l 1,23,24
 400.5 -1 400.5 -1 296.55 115.5 c 128,-1,25
 192.6 232 192.6 232 192.6 414 c 0,26,27
 192.6 705 192.6 705 356.4 906 c 128,-1,28
 520.2 1107 520.2 1107 786.6 1141 c 1,29,-1
 836.1 1432 l 1,30,-1
 981.9 1432 l 1,31,-1
 932.4 1145 l 1,32,33
 993.6 1143 993.6 1143 1059.3 1128 c 128,-1,34
 1125 1113 1125 1113 1193.4 1085 c 1,7,-1
EndSplineSet
EndChar
StartChar: sterling
Encoding: 163 163 163
Width: 1353
Flags: W
Fore
1344.95 1466 m 1,0,-1
 1295.45 1180 l 1,1,2
 1242.35 1217 1242.35 1217 1179.35 1237 c 128,-1,3
 1116.35 1257 1116.35 1257 1052.45 1257 c 0,4,5
 939.95 1257 939.95 1257 876.95 1195.5 c 128,-1,6
 813.95 1134 813.95 1134 790.55 1001 c 2,7,-1
 760.85 831 l 1,8,-1
 1096.55 831 l 1,9,-1
 1056.05 592 l 1,10,-1
 718.55 592 l 1,11,-1
 660.95 266 l 1,12,-1
 1147.85 266 l 1,13,-1
 1101.95 0 l 1,14,-1
 84.0498 0 l 1,15,-1
 130.85 266 l 1,16,-1
 333.35 266 l 1,17,-1
 390.05 592 l 1,18,-1
 217.25 592 l 1,19,-1
 257.75 831 l 1,20,-1
 432.35 831 l 1,21,-1
 462.05 1001 l 2,22,23
 508.85 1271 508.85 1271 644.75 1395.5 c 128,-1,24
 780.65 1520 780.65 1520 1028.15 1520 c 0,25,26
 1110.95 1520 1110.95 1520 1190.15 1506.5 c 128,-1,27
 1269.35 1493 1269.35 1493 1344.95 1466 c 1,0,-1
EndSplineSet
EndChar
StartChar: currency
Encoding: 164 164 164
Width: 1237
Flags: W
Fore
455.85 268 m 1,0,-1
 269.55 61 l 1,1,-1
 131.85 215 l 1,2,-1
 318.15 422 l 1,3,4
 292.95 471 292.95 471 280.35 524.5 c 128,-1,5
 267.75 578 267.75 578 267.75 641 c 0,6,7
 267.75 704 267.75 704 281.25 758 c 128,-1,8
 294.75 812 294.75 812 321.75 858 c 1,9,-1
 133.65 1063 l 1,10,-1
 271.35 1217 l 1,11,-1
 457.65 1010 l 1,12,13
 500.85 1040 500.85 1040 549.45 1054.5 c 128,-1,14
 598.05 1069 598.05 1069 652.95 1069 c 0,15,16
 701.55 1069 701.55 1069 750.15 1055.5 c 128,-1,17
 798.75 1042 798.75 1042 850.05 1014 c 1,18,-1
 1036.35 1221 l 1,19,-1
 1173.15 1067 l 1,20,-1
 986.85 860 l 1,21,22
 1012.95 805 1012.95 805 1025.55 750 c 128,-1,23
 1038.15 695 1038.15 695 1038.15 641 c 0,24,25
 1038.15 578 1038.15 578 1025.1 525.5 c 128,-1,26
 1012.05 473 1012.05 473 985.05 426 c 1,27,-1
 1171.35 219 l 1,28,-1
 1032.75 66 l 1,29,-1
 846.45 272 l 1,30,31
 805.05 242 805.05 242 757.35 227.5 c 128,-1,32
 709.65 213 709.65 213 652.95 213 c 0,33,34
 600.75 213 600.75 213 552.15 226.5 c 128,-1,35
 503.55 240 503.55 240 455.85 268 c 1,0,-1
652.95 422 m 0,36,37
 734.85 422 734.85 422 792.45 485.5 c 128,-1,38
 850.05 549 850.05 549 850.05 641 c 0,39,40
 850.05 733 850.05 733 792.9 796.5 c 128,-1,41
 735.75 860 735.75 860 652.95 860 c 0,42,43
 571.05 860 571.05 860 513.45 796.5 c 128,-1,44
 455.85 733 455.85 733 455.85 641 c 0,45,46
 455.85 548 455.85 548 512.55 485 c 128,-1,47
 569.25 422 569.25 422 652.95 422 c 0,36,37
EndSplineSet
EndChar
StartChar: yen
Encoding: 165 165 165
Width: 1360
Flags: W
Fore
1242.5 416 m 1,0,-1
 833.9 416 l 1,1,-1
 760.1 0 l 1,2,-1
 417.2 0 l 1,3,-1
 491 416 l 1,4,-1
 88.7002 416 l 1,5,-1
 123.8 610 l 1,6,-1
 524.3 610 l 1,7,-1
 536.9 686 l 1,8,-1
 510.8 762 l 1,9,-1
 149.9 762 l 1,10,-1
 183.2 954 l 1,11,-1
 445.1 954 l 1,12,-1
 251.6 1493 l 1,13,-1
 582.8 1493 l 1,14,-1
 758.3 993 l 1,15,-1
 1104.8 1493 l 1,16,-1
 1469.3 1493 l 1,17,-1
 1073.3 954 l 1,18,-1
 1337 954 l 1,19,-1
 1303.7 762 l 1,20,-1
 936.5 762 l 1,21,-1
 883.4 686 l 1,22,-1
 867.2 610 l 1,23,-1
 1275.8 610 l 1,24,-1
 1242.5 416 l 1,0,-1
EndSplineSet
EndChar
StartChar: brokenbar
Encoding: 166 166 166
Width: 710
Flags: W
Fore
475.65 1432 m 1,0,-1
 475.65 674 l 1,1,-1
 271.35 674 l 1,2,-1
 271.35 1432 l 1,3,-1
 475.65 1432 l 1,0,-1
475.65 408 m 1,4,-1
 475.65 -350 l 1,5,-1
 271.35 -350 l 1,6,-1
 271.35 408 l 1,7,-1
 475.65 408 l 1,4,-1
EndSplineSet
EndChar
StartChar: section
Encoding: 167 167 167
Width: 968
Flags: W
Fore
958 1462 m 1,0,-1
 919.3 1235 l 1,1,2
 838.3 1275 838.3 1275 773.5 1294 c 128,-1,3
 708.7 1313 708.7 1313 653.8 1313 c 0,4,5
 581.8 1313 581.8 1313 539.5 1282.5 c 128,-1,6
 497.2 1252 497.2 1252 497.2 1202 c 0,7,8
 497.2 1172 497.2 1172 519.25 1147 c 128,-1,9
 541.3 1122 541.3 1122 592.6 1096 c 2,10,-1
 673.6 1055 l 2,11,12
 831.1 977 831.1 977 888.7 901.5 c 128,-1,13
 946.3 826 946.3 826 946.3 715 c 0,14,15
 946.3 592 946.3 592 877 497 c 128,-1,16
 807.7 402 807.7 402 675.4 344 c 1,17,18
 726.7 308 726.7 308 751 264 c 128,-1,19
 775.3 220 775.3 220 775.3 166 c 0,20,21
 775.3 4 775.3 4 648.4 -95.5 c 128,-1,22
 521.5 -195 521.5 -195 309.1 -195 c 0,23,24
 233.5 -195 233.5 -195 152.5 -180.5 c 128,-1,25
 71.5 -166 71.5 -166 -14 -137 c 1,26,-1
 29.2002 100 l 1,27,28
 121 57 121 57 193 35.5 c 128,-1,29
 265 14 265 14 319.9 14 c 0,30,31
 389.2 14 389.2 14 432.85 45.5 c 128,-1,32
 476.5 77 476.5 77 476.5 125 c 0,33,34
 476.5 156 476.5 156 454.9 179.5 c 128,-1,35
 433.3 203 433.3 203 362.2 240 c 2,36,-1
 240.7 301 l 2,37,38
 133.6 355 133.6 355 83.2002 428.5 c 128,-1,39
 32.7998 502 32.7998 502 32.7998 604 c 0,40,41
 32.7998 727 32.7998 727 98.9502 822.5 c 128,-1,42
 165.1 918 165.1 918 292 977 c 1,43,44
 245.2 1018 245.2 1018 222.7 1064 c 128,-1,45
 200.2 1110 200.2 1110 200.2 1163 c 0,46,47
 200.2 1319 200.2 1319 324.85 1419.5 c 128,-1,48
 449.5 1520 449.5 1520 648.4 1520 c 0,49,50
 723.1 1520 723.1 1520 800.5 1505.5 c 128,-1,51
 877.9 1491 877.9 1491 958 1462 c 1,0,-1
446.8 854 m 1,52,53
 374.8 833 374.8 833 336.55 788.5 c 128,-1,54
 298.3 744 298.3 744 298.3 682 c 0,55,56
 298.3 621 298.3 621 341.95 578 c 128,-1,57
 385.6 535 385.6 535 532.3 471 c 1,58,59
 604.3 498 604.3 498 643.9 543.5 c 128,-1,60
 683.5 589 683.5 589 683.5 645 c 0,61,62
 683.5 706 683.5 706 632.2 752.5 c 128,-1,63
 580.9 799 580.9 799 446.8 854 c 1,52,53
EndSplineSet
EndChar
StartChar: dieresis
Encoding: 168 168 168
Width: 986
Flags: W
Fore
387.3 1585 m 1,0,-1
 601.5 1585 l 1,1,-1
 557.4 1339 l 1,2,-1
 345 1339 l 1,3,-1
 387.3 1585 l 1,0,-1
745.5 1585 m 1,4,-1
 957 1585 l 1,5,-1
 912.9 1339 l 1,6,-1
 701.4 1339 l 1,7,-1
 745.5 1585 l 1,4,-1
EndSplineSet
Ligature: 0 1 'liga' space uni0308
EndChar
StartChar: copyright
Encoding: 169 169 169
Width: 1945
Flags: W
Fore
1293.1 1126 m 1,0,-1
 1293.1 911 l 1,1,2
 1241.8 948 1241.8 948 1191.85 965.5 c 128,-1,3
 1141.9 983 1141.9 983 1090.6 983 c 0,4,5
 988.9 983 988.9 983 931.75 919 c 128,-1,6
 874.6 855 874.6 855 874.6 741 c 0,7,8
 874.6 626 874.6 626 931.3 563 c 128,-1,9
 988 500 988 500 1090.6 500 c 0,10,11
 1148.2 500 1148.2 500 1199.95 518 c 128,-1,12
 1251.7 536 1251.7 536 1293.1 571 c 1,13,-1
 1293.1 358 l 1,14,15
 1234.6 336 1234.6 336 1175.65 324.5 c 128,-1,16
 1116.7 313 1116.7 313 1060.9 313 c 0,17,18
 871 313 871 313 756.7 430 c 128,-1,19
 642.4 547 642.4 547 642.4 741 c 0,20,21
 642.4 936 642.4 936 756.7 1052.5 c 128,-1,22
 871 1169 871 1169 1060.9 1169 c 0,23,24
 1123 1169 1123 1169 1180.6 1158.5 c 128,-1,25
 1238.2 1148 1238.2 1148 1293.1 1126 c 1,0,-1
1024 1331 m 0,26,27
 915.1 1331 915.1 1331 821.5 1287.5 c 128,-1,28
 727.9 1244 727.9 1244 649.6 1157 c 0,29,30
 571.3 1070 571.3 1070 532.15 966.5 c 128,-1,31
 493 863 493 863 493 741 c 0,32,33
 493 620 493 620 532.15 516.5 c 128,-1,34
 571.3 413 571.3 413 649.6 326 c 0,35,36
 727 240 727 240 821.05 197 c 128,-1,37
 915.1 154 915.1 154 1024 154 c 0,38,39
 1134.7 154 1134.7 154 1227.4 196.5 c 128,-1,40
 1320.1 239 1320.1 239 1398.4 326 c 0,41,42
 1476.7 413 1476.7 413 1515.85 516.5 c 128,-1,43
 1555 620 1555 620 1555 741 c 0,44,45
 1555 863 1555 863 1515.85 966.5 c 128,-1,46
 1476.7 1070 1476.7 1070 1398.4 1157 c 0,47,48
 1319.2 1245 1319.2 1245 1226.05 1288 c 128,-1,49
 1132.9 1331 1132.9 1331 1024 1331 c 0,26,27
1024 1485 m 0,50,51
 1160.8 1485 1160.8 1485 1279.15 1430 c 128,-1,52
 1397.5 1375 1397.5 1375 1495.6 1266 c 0,53,54
 1593.7 1157 1593.7 1157 1642.3 1026 c 128,-1,55
 1690.9 895 1690.9 895 1690.9 741 c 0,56,57
 1690.9 589 1690.9 589 1642.3 458.5 c 128,-1,58
 1593.7 328 1593.7 328 1495.6 219 c 0,59,60
 1397.5 110 1397.5 110 1279.15 55 c 128,-1,61
 1160.8 0 1160.8 0 1024 0 c 0,62,63
 887.2 0 887.2 0 768.85 55 c 128,-1,64
 650.5 110 650.5 110 552.4 219 c 0,65,66
 454.3 328 454.3 328 405.7 458.5 c 128,-1,67
 357.1 589 357.1 589 357.1 741 c 0,68,69
 357.1 895 357.1 895 405.7 1026 c 128,-1,70
 454.3 1157 454.3 1157 552.4 1266 c 0,71,72
 650.5 1375 650.5 1375 768.85 1430 c 128,-1,73
 887.2 1485 887.2 1485 1024 1485 c 0,50,51
EndSplineSet
EndChar
StartChar: ordfeminine
Encoding: 170 170 170
Width: 1097
Flags: W
Fore
172.65 573 m 1,0,-1
 906.15 573 l 1,1,-1
 871.05 373 l 1,2,-1
 137.55 373 l 1,3,-1
 172.65 573 l 1,0,-1
681.15 1081 m 2,4,5
 547.95 1081 547.95 1081 497.55 1052.5 c 128,-1,6
 447.15 1024 447.15 1024 447.15 954 c 0,7,8
 447.15 910 447.15 910 475.05 884 c 128,-1,9
 502.95 858 502.95 858 550.65 858 c 0,10,11
 626.25 858 626.25 858 684.75 914.5 c 128,-1,12
 743.25 971 743.25 971 758.55 1059 c 1,13,-1
 762.15 1081 l 1,14,-1
 681.15 1081 l 2,4,5
1020.45 1165 m 1,15,-1
 943.05 717 l 1,16,-1
 719.85 717 l 1,17,-1
 742.35 842 l 1,18,19
 682.95 766 682.95 766 615 731 c 128,-1,20
 547.05 696 547.05 696 456.15 696 c 0,21,22
 343.65 696 343.65 696 281.1 751.5 c 128,-1,23
 218.55 807 218.55 807 218.55 907 c 0,24,25
 218.55 1062 218.55 1062 329.7 1140.5 c 128,-1,26
 440.85 1219 440.85 1219 659.55 1219 c 2,27,-1
 786.45 1219 l 1,28,-1
 790.05 1239 l 2,29,30
 790.95 1243 790.95 1243 791.4 1248 c 128,-1,31
 791.85 1253 791.85 1253 791.85 1264 c 0,32,33
 791.85 1308 791.85 1308 757.2 1331 c 128,-1,34
 722.55 1354 722.55 1354 654.15 1354 c 0,35,36
 574.95 1354 574.95 1354 496.65 1336.5 c 128,-1,37
 418.35 1319 418.35 1319 341.85 1284 c 1,38,-1
 373.35 1464 l 1,39,40
 461.55 1492 461.55 1492 540.3 1506 c 128,-1,41
 619.05 1520 619.05 1520 686.55 1520 c 0,42,43
 853.95 1520 853.95 1520 941.7 1456 c 128,-1,44
 1029.45 1392 1029.45 1392 1029.45 1270 c 0,45,46
 1029.45 1239 1029.45 1239 1027.2 1213.5 c 128,-1,47
 1024.95 1188 1024.95 1188 1020.45 1165 c 1,15,-1
EndSplineSet
EndChar
StartChar: guillemotleft
Encoding: 171 171 171
Width: 1265
Flags: W
Fore
1162.4 1063 m 1,0,-1
 1117.4 811 l 1,1,-1
 806 582 l 1,2,-1
 1038.2 360 l 1,3,-1
 999.5 137 l 1,4,-1
 619.7 506 l 1,5,-1
 653 692 l 1,6,-1
 1162.4 1063 l 1,0,-1
721.4 1063 m 1,7,-1
 677.3 811 l 1,8,-1
 365.9 582 l 1,9,-1
 598.1 360 l 1,10,-1
 559.4 137 l 1,11,-1
 179.6 506 l 1,12,-1
 212.9 692 l 1,13,-1
 721.4 1063 l 1,7,-1
EndSplineSet
EndChar
StartChar: logicalnot
Encoding: 172 172 172
Width: 1630
Flags: W
Fore
281.1 909 m 1,0,-1
 1434.9 909 l 1,1,-1
 1434.9 287 l 1,2,-1
 1223.4 287 l 1,3,-1
 1223.4 672 l 1,4,-1
 281.1 672 l 1,5,-1
 281.1 909 l 1,0,-1
EndSplineSet
EndChar
StartChar: sfthyphen
Encoding: 173 173 173
Width: 804
Flags: W
Fore
137.5 735 m 1,0,-1
 702.7 735 l 1,1,-1
 651.4 444 l 1,2,-1
 85.2998 444 l 1,3,-1
 137.5 735 l 1,0,-1
EndSplineSet
EndChar
StartChar: registered
Encoding: 174 174 174
Width: 1945
Flags: W
Fore
1024 1331 m 0,0,1
 915.1 1331 915.1 1331 821.5 1287.5 c 128,-1,2
 727.9 1244 727.9 1244 649.6 1157 c 0,3,4
 571.3 1070 571.3 1070 532.15 966.5 c 128,-1,5
 493 863 493 863 493 741 c 0,6,7
 493 620 493 620 532.15 516.5 c 128,-1,8
 571.3 413 571.3 413 649.6 326 c 0,9,10
 727 240 727 240 821.05 197 c 128,-1,11
 915.1 154 915.1 154 1024 154 c 0,12,13
 1134.7 154 1134.7 154 1227.4 196.5 c 128,-1,14
 1320.1 239 1320.1 239 1398.4 326 c 0,15,16
 1476.7 413 1476.7 413 1515.85 516.5 c 128,-1,17
 1555 620 1555 620 1555 741 c 0,18,19
 1555 863 1555 863 1515.85 966.5 c 128,-1,20
 1476.7 1070 1476.7 1070 1398.4 1157 c 0,21,22
 1319.2 1245 1319.2 1245 1226.05 1288 c 128,-1,23
 1132.9 1331 1132.9 1331 1024 1331 c 0,0,1
972.7 1036 m 2,24,-1
 941.2 1036 l 1,25,-1
 941.2 829 l 1,26,-1
 972.7 829 l 2,27,28
 1042.9 829 1042.9 829 1078.45 855.5 c 128,-1,29
 1114 882 1114 882 1114 934 c 0,30,31
 1114 986 1114 986 1079.35 1011 c 128,-1,32
 1044.7 1036 1044.7 1036 972.7 1036 c 2,24,-1
1006 1174 m 2,33,34
 1164.4 1174 1164.4 1174 1242.7 1114.5 c 128,-1,35
 1321 1055 1321 1055 1321 934 c 0,36,37
 1321 848 1321 848 1273.75 792 c 128,-1,38
 1226.5 736 1226.5 736 1140.1 719 c 1,39,40
 1177 697 1177 697 1208.95 657 c 128,-1,41
 1240.9 617 1240.9 617 1267 559 c 2,42,-1
 1366.9 338 l 1,43,-1
 1160.8 338 l 1,44,-1
 1064.5 551 l 1,45,46
 1030.3 629 1030.3 629 1004.2 661.5 c 128,-1,47
 978.1 694 978.1 694 952 694 c 2,48,-1
 941.2 694 l 1,49,-1
 941.2 338 l 1,50,-1
 749.5 338 l 1,51,-1
 749.5 1174 l 1,52,-1
 1006 1174 l 2,33,34
1024 1485 m 0,53,54
 1160.8 1485 1160.8 1485 1279.15 1430 c 128,-1,55
 1397.5 1375 1397.5 1375 1495.6 1266 c 0,56,57
 1593.7 1157 1593.7 1157 1642.3 1026 c 128,-1,58
 1690.9 895 1690.9 895 1690.9 741 c 0,59,60
 1690.9 589 1690.9 589 1642.3 458.5 c 128,-1,61
 1593.7 328 1593.7 328 1495.6 219 c 0,62,63
 1397.5 110 1397.5 110 1279.15 55 c 128,-1,64
 1160.8 0 1160.8 0 1024 0 c 0,65,66
 887.2 0 887.2 0 768.85 55 c 128,-1,67
 650.5 110 650.5 110 552.4 219 c 0,68,69
 454.3 328 454.3 328 405.7 458.5 c 128,-1,70
 357.1 589 357.1 589 357.1 741 c 0,71,72
 357.1 895 357.1 895 405.7 1026 c 128,-1,73
 454.3 1157 454.3 1157 552.4 1266 c 0,74,75
 650.5 1375 650.5 1375 768.85 1430 c 128,-1,76
 887.2 1485 887.2 1485 1024 1485 c 0,53,54
EndSplineSet
EndChar
StartChar: macron
Encoding: 175 175 175
Width: 986
Flags: W
Fore
383.7 1556 m 1,0,-1
 951.6 1556 l 1,1,-1
 918.3 1368 l 1,2,-1
 350.4 1368 l 1,3,-1
 383.7 1556 l 1,0,-1
EndSplineSet
Ligature: 0 1 'liga' space uni0304
EndChar
StartChar: degree
Encoding: 176 176 176
Width: 972
Flags: W
Fore
511.9 1372 m 0,0,1
 447.1 1372 447.1 1372 402.1 1322 c 128,-1,2
 357.1 1272 357.1 1272 357.1 1200 c 0,3,4
 357.1 1128 357.1 1128 401.65 1079 c 128,-1,5
 446.2 1030 446.2 1030 511.9 1030 c 0,6,7
 576.7 1030 576.7 1030 621.7 1079.5 c 128,-1,8
 666.7 1129 666.7 1129 666.7 1200 c 0,9,10
 666.7 1272 666.7 1272 621.25 1322 c 128,-1,11
 575.8 1372 575.8 1372 511.9 1372 c 0,0,1
511.9 1534 m 0,12,13
 571.3 1534 571.3 1534 626.2 1508.5 c 128,-1,14
 681.1 1483 681.1 1483 724.3 1436 c 1,15,16
 766.6 1388 766.6 1388 788.65 1328 c 128,-1,17
 810.7 1268 810.7 1268 810.7 1200 c 0,18,19
 810.7 1133 810.7 1133 788.65 1072.5 c 128,-1,20
 766.6 1012 766.6 1012 726.1 967 c 0,21,22
 682.9 919 682.9 919 627.1 893.5 c 128,-1,23
 571.3 868 571.3 868 510.1 868 c 0,24,25
 383.2 868 383.2 868 297.25 963.5 c 128,-1,26
 211.3 1059 211.3 1059 211.3 1200 c 0,27,28
 211.3 1341 211.3 1341 298.15 1437.5 c 128,-1,29
 385 1534 385 1534 511.9 1534 c 0,12,13
EndSplineSet
EndChar
StartChar: plusminus
Encoding: 177 177 177
Width: 1630
Flags: W
Fore
965.1 1284 m 1,0,-1
 965.1 930 l 1,1,-1
 1434.9 930 l 1,2,-1
 1434.9 694 l 1,3,-1
 965.1 694 l 1,4,-1
 965.1 340 l 1,5,-1
 750.9 340 l 1,6,-1
 750.9 694 l 1,7,-1
 281.1 694 l 1,8,-1
 281.1 930 l 1,9,-1
 750.9 930 l 1,10,-1
 750.9 1284 l 1,11,-1
 965.1 1284 l 1,0,-1
281.1 238 m 1,12,-1
 1434.9 238 l 1,13,-1
 1434.9 0 l 1,14,-1
 281.1 0 l 1,15,-1
 281.1 238 l 1,12,-1
EndSplineSet
EndChar
StartChar: twosuperior
Encoding: 178 178 178
Width: 856
Flags: W
Fore
430.35 836 m 1,0,-1
 769.65 836 l 1,1,-1
 739.95 668 l 1,2,-1
 131.55 668 l 1,3,-1
 159.45 821 l 1,4,-1
 488.85 1087 l 2,5,6
 560.85 1145 560.85 1145 595.95 1194.5 c 128,-1,7
 631.05 1244 631.05 1244 631.05 1286 c 0,8,9
 631.05 1326 631.05 1326 601.8 1349 c 128,-1,10
 572.55 1372 572.55 1372 520.35 1372 c 0,11,12
 459.15 1372 459.15 1372 393 1349 c 128,-1,13
 326.85 1326 326.85 1326 262.95 1282 c 1,14,-1
 295.35 1468 l 1,15,16
 370.05 1494 370.05 1494 437.1 1507 c 128,-1,17
 504.15 1520 504.15 1520 566.25 1520 c 0,18,19
 700.35 1520 700.35 1520 771.9 1465.5 c 128,-1,20
 843.45 1411 843.45 1411 843.45 1311 c 0,21,22
 843.45 1232 843.45 1232 794.85 1157.5 c 128,-1,23
 746.25 1083 746.25 1083 638.25 999 c 2,24,-1
 430.35 836 l 1,0,-1
EndSplineSet
EndChar
StartChar: threesuperior
Encoding: 179 179 179
Width: 855
Flags: W
Fore
647.2 1120 m 1,0,1
 714.7 1107 714.7 1107 749.8 1060.5 c 128,-1,2
 784.9 1014 784.9 1014 784.9 938 c 0,3,4
 784.9 801 784.9 801 679.6 727 c 128,-1,5
 574.3 653 574.3 653 379.9 653 c 0,6,7
 307.9 653 307.9 653 242.65 665 c 128,-1,8
 177.4 677 177.4 677 121.6 700 c 1,9,-1
 151.3 872 l 1,10,11
 203.5 836 203.5 836 257.05 817.5 c 128,-1,12
 310.6 799 310.6 799 364.6 799 c 0,13,14
 462.7 799 462.7 799 518.05 837 c 128,-1,15
 573.4 875 573.4 875 573.4 942 c 0,16,17
 573.4 996 573.4 996 528.85 1021.5 c 128,-1,18
 484.3 1047 484.3 1047 390.7 1047 c 2,19,-1
 322.3 1047 l 1,20,-1
 346.6 1184 l 1,21,-1
 424 1184 l 2,22,23
 519.4 1184 519.4 1184 570.25 1213 c 128,-1,24
 621.1 1242 621.1 1242 621.1 1296 c 0,25,26
 621.1 1334 621.1 1334 586.9 1353 c 128,-1,27
 552.7 1372 552.7 1372 486.1 1372 c 0,28,29
 437.5 1372 437.5 1372 380.35 1359 c 128,-1,30
 323.2 1346 323.2 1346 253.9 1319 c 1,31,-1
 281.8 1485 l 1,32,33
 346.6 1502 346.6 1502 413.2 1511 c 128,-1,34
 479.8 1520 479.8 1520 545.5 1520 c 0,35,36
 685 1520 685 1520 759.7 1470 c 128,-1,37
 834.4 1420 834.4 1420 834.4 1327 c 0,38,39
 834.4 1246 834.4 1246 783.55 1190 c 128,-1,40
 732.7 1134 732.7 1134 647.2 1120 c 1,0,1
EndSplineSet
EndChar
StartChar: acute
Encoding: 180 180 180
Width: 1000
Flags: W
Fore
808.35 1638 m 1,0,-1
 1072.05 1638 l 1,1,-1
 677.85 1262 l 1,2,-1
 496.95 1262 l 1,3,-1
 808.35 1638 l 1,0,-1
EndSplineSet
LCarets: 0 65535 '    ' 1 0 
Ligature: 0 1 'liga' space acutecomb
EndChar
StartChar: mu
Encoding: 181 181 181
Width: 1422
Flags: W
Fore
16.3496 -428 m 1,0,-1
 287.25 1120 l 1,1,-1
 611.25 1120 l 1,2,-1
 496.95 469 l 2,3,4
 493.35 448 493.35 448 491.55 428 c 128,-1,5
 489.75 408 489.75 408 489.75 391 c 0,6,7
 489.75 318 489.75 318 528.45 279 c 128,-1,8
 567.15 240 567.15 240 640.95 240 c 0,9,10
 732.75 240 732.75 240 786.75 296 c 128,-1,11
 840.75 352 840.75 352 862.35 469 c 1,12,-1
 976.65 1120 l 1,13,-1
 1300.65 1120 l 1,14,-1
 1170.15 371 l 2,15,16
 1166.55 350 1166.55 350 1164.75 332.5 c 128,-1,17
 1162.95 315 1162.95 315 1162.95 301 c 0,18,19
 1162.95 272 1162.95 272 1175.1 258 c 128,-1,20
 1187.25 244 1187.25 244 1212.45 244 c 0,21,22
 1227.75 244 1227.75 244 1245.3 249.5 c 128,-1,23
 1262.85 255 1262.85 255 1280.85 266 c 1,24,-1
 1235.85 16 l 1,25,26
 1184.55 -7 1184.55 -7 1140.45 -18 c 128,-1,27
 1096.35 -29 1096.35 -29 1055.85 -29 c 0,28,29
 976.65 -29 976.65 -29 932.1 9 c 128,-1,30
 887.55 47 887.55 47 869.55 129 c 1,31,32
 813.75 50 813.75 50 745.8 10.5 c 128,-1,33
 677.85 -29 677.85 -29 598.65 -29 c 0,34,35
 532.05 -29 532.05 -29 490.2 -5.5 c 128,-1,36
 448.35 18 448.35 18 428.55 66 c 1,37,-1
 342.15 -428 l 1,38,-1
 16.3496 -428 l 1,0,-1
EndSplineSet
EndChar
StartChar: paragraph
Encoding: 182 182 182
Width: 1242
Flags: W
Fore
712.85 1493 m 2,0,-1
 1180.85 1493 l 1,1,-1
 885.65 -197 l 1,2,-1
 714.65 -197 l 1,3,-1
 983.75 1346 l 1,4,-1
 813.65 1346 l 1,5,-1
 542.75 -197 l 1,6,-1
 373.55 -197 l 1,7,-1
 521.15 649 l 1,8,9
 369.95 669 369.95 669 288.05 761 c 128,-1,10
 206.15 853 206.15 853 206.15 1001 c 0,11,12
 206.15 1216 206.15 1216 347 1354.5 c 128,-1,13
 487.85 1493 487.85 1493 712.85 1493 c 2,0,-1
EndSplineSet
EndChar
StartChar: periodcentered
Encoding: 183 183 183
Width: 739
Flags: W
Fore
262.2 905 m 1,0,-1
 586.2 905 l 1,1,-1
 517.8 518 l 1,2,-1
 193.8 518 l 1,3,-1
 262.2 905 l 1,0,-1
EndSplineSet
EndChar
StartChar: cedilla
Encoding: 184 184 184
Width: 950
Flags: W
Fore
441.85 0 m 1,0,1
 475.15 -52 475.15 -52 490.45 -96 c 128,-1,2
 505.75 -140 505.75 -140 505.75 -182 c 0,3,4
 505.75 -286 505.75 -286 437.8 -343.5 c 128,-1,5
 369.85 -401 369.85 -401 246.55 -401 c 0,6,7
 202.45 -401 202.45 -401 158.8 -394.5 c 128,-1,8
 115.15 -388 115.15 -388 69.25 -375 c 1,9,-1
 95.3496 -219 l 1,10,11
 131.35 -236 131.35 -236 167.8 -245 c 128,-1,12
 204.25 -254 204.25 -254 238.45 -254 c 0,13,14
 297.85 -254 297.85 -254 332.05 -225.5 c 128,-1,15
 366.25 -197 366.25 -197 366.25 -150 c 0,16,17
 366.25 -124 366.25 -124 354.1 -89.5 c 128,-1,18
 341.95 -55 341.95 -55 314.05 0 c 1,19,-1
 441.85 0 l 1,0,1
EndSplineSet
Ligature: 0 1 'liga' space uni0327
EndChar
StartChar: onesuperior
Encoding: 185 185 185
Width: 854
Flags: W
Fore
198.5 825 m 1,0,-1
 383 825 l 1,1,-1
 474.8 1346 l 1,2,-1
 265.1 1294 l 1,3,-1
 292.1 1454 l 1,4,-1
 511.7 1503 l 1,5,-1
 708.8 1503 l 1,6,-1
 589.1 825 l 1,7,-1
 775.4 825 l 1,8,-1
 747.5 668 l 1,9,-1
 170.6 668 l 1,10,-1
 198.5 825 l 1,0,-1
EndSplineSet
EndChar
StartChar: ordmasculine
Encoding: 186 186 186
Width: 1100
Flags: W
Fore
707.6 1520 m 0,0,1
 872.3 1520 872.3 1520 968.6 1429.5 c 128,-1,2
 1064.9 1339 1064.9 1339 1064.9 1186 c 0,3,4
 1064.9 967 1064.9 967 932.15 832.5 c 128,-1,5
 799.4 698 799.4 698 580.7 698 c 0,6,7
 416.9 698 416.9 698 318.8 789.5 c 128,-1,8
 220.7 881 220.7 881 220.7 1032 c 0,9,10
 220.7 1249 220.7 1249 354.8 1384.5 c 128,-1,11
 488.9 1520 488.9 1520 707.6 1520 c 0,0,1
180.2 573 m 1,12,-1
 920.9 573 l 1,13,-1
 886.7 373 l 1,14,-1
 145.1 373 l 1,15,-1
 180.2 573 l 1,12,-1
685.1 1350 m 0,16,17
 596 1350 596 1350 537.5 1257.5 c 128,-1,18
 479 1165 479 1165 479 1024 c 0,19,20
 479 948 479 948 510.5 908 c 128,-1,21
 542 868 542 868 602.3 868 c 0,22,23
 691.4 868 691.4 868 749.9 960 c 128,-1,24
 808.4 1052 808.4 1052 808.4 1194 c 0,25,26
 808.4 1269 808.4 1269 776.45 1309.5 c 128,-1,27
 744.5 1350 744.5 1350 685.1 1350 c 0,16,17
EndSplineSet
EndChar
StartChar: guillemotright
Encoding: 187 187 187
Width: 1264
Flags: W
Fore
171.45 135 m 1,0,-1
 215.55 389 l 1,1,-1
 525.15 618 l 1,2,-1
 294.75 840 l 1,3,-1
 333.45 1063 l 1,4,-1
 711.45 692 l 1,5,-1
 679.95 506 l 1,6,-1
 171.45 135 l 1,0,-1
611.55 135 m 1,7,-1
 655.65 389 l 1,8,-1
 965.25 618 l 1,9,-1
 733.05 840 l 1,10,-1
 773.55 1063 l 1,11,-1
 1151.55 692 l 1,12,-1
 1120.05 506 l 1,13,-1
 611.55 135 l 1,7,-1
EndSplineSet
EndChar
StartChar: onequarter
Encoding: 188 188 188
Width: 2069
Flags: W
Fore
1636.7 651 m 1,0,-1
 1360.4 317 l 1,1,-1
 1575.5 317 l 1,2,-1
 1636.7 651 l 1,0,-1
1647.5 836 m 1,3,-1
 1872.5 836 l 1,4,-1
 1782.5 317 l 1,5,-1
 1904 317 l 1,6,-1
 1877.9 162 l 1,7,-1
 1754.6 162 l 1,8,-1
 1724.9 0 l 1,9,-1
 1518.8 0 l 1,10,-1
 1548.5 162 l 1,11,-1
 1195.7 162 l 1,12,-1
 1225.4 330 l 1,13,-1
 1647.5 836 l 1,3,-1
661.1 -29 m 1,14,-1
 440.6 -29 l 1,15,-1
 1552.1 1520 l 1,16,-1
 1772.6 1520 l 1,17,-1
 661.1 -29 l 1,14,-1
257.9 825 m 1,18,-1
 442.4 825 l 1,19,-1
 534.2 1346 l 1,20,-1
 324.5 1294 l 1,21,-1
 351.5 1454 l 1,22,-1
 571.1 1503 l 1,23,-1
 768.2 1503 l 1,24,-1
 648.5 825 l 1,25,-1
 834.8 825 l 1,26,-1
 806.9 668 l 1,27,-1
 230 668 l 1,28,-1
 257.9 825 l 1,18,-1
EndSplineSet
Ligature: 0 1 'frac' one slash four
Ligature: 0 1 'frac' one fraction four
EndChar
StartChar: onehalf
Encoding: 189 189 189
Width: 2072
Flags: W
Fore
1553.55 168 m 1,0,-1
 1890.15 168 l 1,1,-1
 1861.35 0 l 1,2,-1
 1254.75 0 l 1,3,-1
 1282.65 154 l 1,4,-1
 1612.05 420 l 2,5,6
 1684.95 478 1684.95 478 1719.6 526.5 c 128,-1,7
 1754.25 575 1754.25 575 1754.25 616 c 0,8,9
 1754.25 657 1754.25 657 1724.55 681 c 128,-1,10
 1694.85 705 1694.85 705 1643.55 705 c 0,11,12
 1582.35 705 1582.35 705 1514.85 681.5 c 128,-1,13
 1447.35 658 1447.35 658 1383.45 614 c 1,14,-1
 1416.75 801 l 1,15,16
 1491.45 827 1491.45 827 1558.05 839.5 c 128,-1,17
 1624.65 852 1624.65 852 1687.65 852 c 0,18,19
 1821.75 852 1821.75 852 1893.75 797.5 c 128,-1,20
 1965.75 743 1965.75 743 1965.75 643 c 0,21,22
 1965.75 564 1965.75 564 1917.15 490 c 128,-1,23
 1868.55 416 1868.55 416 1761.45 332 c 2,24,-1
 1553.55 168 l 1,0,-1
664.35 -29 m 1,25,-1
 443.85 -29 l 1,26,-1
 1555.35 1520 l 1,27,-1
 1775.85 1520 l 1,28,-1
 664.35 -29 l 1,25,-1
261.15 825 m 1,29,-1
 445.65 825 l 1,30,-1
 537.45 1346 l 1,31,-1
 327.75 1294 l 1,32,-1
 354.75 1454 l 1,33,-1
 574.35 1503 l 1,34,-1
 771.45 1503 l 1,35,-1
 651.75 825 l 1,36,-1
 838.05 825 l 1,37,-1
 810.15 668 l 1,38,-1
 233.25 668 l 1,39,-1
 261.15 825 l 1,29,-1
EndSplineSet
Ligature: 0 1 'frac' one slash two
Ligature: 0 1 'frac' one fraction two
EndChar
StartChar: threequarters
Encoding: 190 190 190
Width: 2067
Flags: W
Fore
711.25 1120 m 1,0,1
 779.65 1106 779.65 1106 815.2 1060 c 128,-1,2
 850.75 1014 850.75 1014 850.75 938 c 0,3,4
 850.75 801 850.75 801 745.9 727 c 128,-1,5
 641.05 653 641.05 653 445.75 653 c 0,6,7
 372.85 653 372.85 653 307.15 665 c 128,-1,8
 241.45 677 241.45 677 185.65 700 c 1,9,-1
 217.15 872 l 1,10,11
 269.35 836 269.35 836 322.9 817.5 c 128,-1,12
 376.45 799 376.45 799 430.45 799 c 0,13,14
 528.55 799 528.55 799 583.9 837 c 128,-1,15
 639.25 875 639.25 875 639.25 942 c 0,16,17
 639.25 996 639.25 996 595.15 1021.5 c 128,-1,18
 551.05 1047 551.05 1047 456.55 1047 c 2,19,-1
 388.15 1047 l 1,20,-1
 412.45 1184 l 1,21,-1
 489.85 1184 l 2,22,23
 585.25 1184 585.25 1184 635.2 1213 c 128,-1,24
 685.15 1242 685.15 1242 685.15 1296 c 0,25,26
 685.15 1334 685.15 1334 651.4 1353 c 128,-1,27
 617.65 1372 617.65 1372 552.85 1372 c 0,28,29
 502.45 1372 502.45 1372 444.4 1359 c 128,-1,30
 386.35 1346 386.35 1346 318.85 1319 c 1,31,-1
 347.65 1485 l 1,32,33
 412.45 1502 412.45 1502 479.05 1511 c 128,-1,34
 545.65 1520 545.65 1520 611.35 1520 c 0,35,36
 750.85 1520 750.85 1520 825.1 1470 c 128,-1,37
 899.35 1420 899.35 1420 899.35 1327 c 0,38,39
 899.35 1246 899.35 1246 848.5 1190 c 128,-1,40
 797.65 1134 797.65 1134 711.25 1120 c 1,0,1
1638.25 651 m 1,41,-1
 1363.75 317 l 1,42,-1
 1578.85 317 l 1,43,-1
 1638.25 651 l 1,41,-1
1650.85 836 m 1,44,-1
 1874.05 836 l 1,45,-1
 1784.05 317 l 1,46,-1
 1907.35 317 l 1,47,-1
 1879.45 162 l 1,48,-1
 1756.15 162 l 1,49,-1
 1728.25 0 l 1,50,-1
 1522.15 0 l 1,51,-1
 1550.05 162 l 1,52,-1
 1199.95 162 l 1,53,-1
 1226.95 330 l 1,54,-1
 1650.85 836 l 1,44,-1
672.55 -29 m 1,55,-1
 451.15 -29 l 1,56,-1
 1562.65 1520 l 1,57,-1
 1784.05 1520 l 1,58,-1
 672.55 -29 l 1,55,-1
EndSplineSet
Ligature: 0 1 'frac' three slash four
Ligature: 0 1 'frac' three fraction four
EndChar
StartChar: questiondown
Encoding: 191 191 191
Width: 1122
Flags: W
Fore
540.65 989 m 1,0,-1
 864.65 989 l 1,1,-1
 855.65 938 l 1,2,3
 842.15 858 842.15 858 803.45 796.5 c 128,-1,4
 764.75 735 764.75 735 646.85 633 c 1,5,-1
 579.35 573 l 1,6,7
 507.35 512 507.35 512 475.85 460 c 128,-1,8
 444.35 408 444.35 408 444.35 354 c 0,9,10
 444.35 297 444.35 297 480.35 266.5 c 128,-1,11
 516.35 236 516.35 236 584.75 236 c 0,12,13
 656.75 236 656.75 236 748.1 270 c 128,-1,14
 839.45 304 839.45 304 942.05 369 c 1,15,-1
 887.15 55 l 1,16,17
 772.85 13 772.85 13 677.9 -7 c 128,-1,18
 582.95 -27 582.95 -27 496.55 -27 c 0,19,20
 321.05 -27 321.05 -27 221.6 58.5 c 128,-1,21
 122.15 144 122.15 144 122.15 293 c 0,22,23
 122.15 412 122.15 412 169.85 506 c 128,-1,24
 217.55 600 217.55 600 331.85 702 c 2,25,-1
 400.25 762 l 2,26,27
 474.95 827 474.95 827 500.15 864.5 c 128,-1,28
 525.35 902 525.35 902 532.55 944 c 1,29,-1
 540.65 989 l 1,0,-1
890.75 1137 m 1,30,-1
 565.85 1137 l 1,31,-1
 628.85 1493 l 1,32,-1
 952.85 1493 l 1,33,-1
 890.75 1137 l 1,30,-1
EndSplineSet
EndChar
StartChar: Aring
Encoding: 197 197 197
Width: 1490
Flags: W
Fore
779.6 1616 m 0,0,1
 779.6 1562 779.6 1562 814.25 1523.5 c 128,-1,2
 848.9 1485 848.9 1485 897.5 1485 c 0,3,4
 946.1 1485 946.1 1485 980.75 1523.5 c 128,-1,5
 1015.4 1562 1015.4 1562 1015.4 1616 c 0,6,7
 1015.4 1670 1015.4 1670 980.3 1708.5 c 128,-1,8
 945.2 1747 945.2 1747 897.5 1747 c 0,9,10
 848.9 1747 848.9 1747 814.25 1708.5 c 128,-1,11
 779.6 1670 779.6 1670 779.6 1616 c 0,0,1
1103.6 1456 m 1,12,-1
 1337.6 0 l 1,13,-1
 1008.2 0 l 1,14,-1
 969.5 272 l 1,15,-1
 433.1 272 l 1,16,-1
 299.9 0 l 1,17,-1
 -55.5996 0 l 1,18,-1
 686.9 1458 l 1,19,20
 663.5 1495 663.5 1495 652.25 1533.5 c 128,-1,21
 641 1572 641 1572 641 1616 c 0,22,23
 641 1733 641 1733 716.15 1817 c 128,-1,24
 791.3 1901 791.3 1901 897.5 1901 c 0,25,26
 1002.8 1901 1002.8 1901 1077.95 1817 c 128,-1,27
 1153.1 1733 1153.1 1733 1153.1 1616 c 0,28,29
 1153.1 1568 1153.1 1568 1141.4 1529.5 c 128,-1,30
 1129.7 1491 1129.7 1491 1103.6 1456 c 1,12,-1
563.6 543 m 1,31,-1
 924.5 543 l 1,32,-1
 843.5 1118 l 1,33,-1
 563.6 543 l 1,31,-1
EndSplineSet
Ligature: 0 0 'liga' A uni030A
EndChar
StartChar: AE
Encoding: 198 198 198
Width: 2101
Flags: W
Fore
988.25 1237 m 1,0,-1
 650.75 627 l 1,1,-1
 990.05 627 l 1,2,-1
 1097.15 1237 l 1,3,-1
 988.25 1237 l 1,0,-1
798.35 1493 m 1,4,-1
 2077.25 1493 l 1,5,-1
 2025.95 1202 l 1,6,-1
 1438.25 1202 l 1,7,-1
 1390.55 924 l 1,8,-1
 1943.15 924 l 1,9,-1
 1891.85 633 l 1,10,-1
 1338.35 633 l 1,11,-1
 1279.85 291 l 1,12,-1
 1885.55 291 l 1,13,-1
 1836.05 0 l 1,14,-1
 881.15 0 l 1,15,-1
 942.35 350 l 1,16,-1
 499.55 350 l 1,17,-1
 304.25 0 l 1,18,-1
 -42.25 0 l 1,19,-1
 798.35 1493 l 1,4,-1
EndSplineSet
KernsSLIFO: 45 -36 0 0
EndChar
StartChar: Eth
Encoding: 208 208 208
Width: 1639
Flags: W
Fore
708.45 1202 m 1,0,-1
 657.15 903 l 1,1,-1
 878.55 903 l 1,2,-1
 832.65 643 l 1,3,-1
 611.25 643 l 1,4,-1
 548.25 291 l 1,5,-1
 671.55 291 l 2,6,7
 915.45 291 915.45 291 1057.2 442.5 c 128,-1,8
 1198.95 594 1198.95 594 1198.95 850 c 0,9,10
 1198.95 1024 1198.95 1024 1105.8 1113 c 128,-1,11
 1012.65 1202 1012.65 1202 829.95 1202 c 2,12,-1
 708.45 1202 l 1,0,-1
412.35 1493 m 1,13,-1
 776.85 1493 l 2,14,15
 1037.85 1493 1037.85 1493 1168.35 1458.5 c 128,-1,16
 1298.85 1424 1298.85 1424 1385.25 1343 c 0,17,18
 1472.55 1262 1472.55 1262 1517.55 1146 c 128,-1,19
 1562.55 1030 1562.55 1030 1562.55 885 c 0,20,21
 1562.55 684 1562.55 684 1486.5 504 c 128,-1,22
 1410.45 324 1410.45 324 1274.55 201 c 0,23,24
 1155.75 92 1155.75 92 998.7 46 c 128,-1,25
 841.65 0 841.65 0 514.95 0 c 2,26,-1
 150.45 0 l 1,27,-1
 262.95 643 l 1,28,-1
 78.4502 643 l 1,29,-1
 124.35 903 l 1,30,-1
 308.85 903 l 1,31,-1
 412.35 1493 l 1,13,-1
EndSplineSet
KernsSLIFO: 7922 -159 0 0 562 -159 0 0 374 -159 0 0 221 -159 0 0 8222 -36 0 0 8218 -36 0 0 376 -159 0 0 89 -159 0 0 45 38 0 0
EndChar
StartChar: multiply
Encoding: 215 215 215
Width: 1630
Flags: W
Fore
1399.8 1075 m 1,0,-1
 1009.2 641 l 1,1,-1
 1399.8 209 l 1,2,-1
 1248.6 41 l 1,3,-1
 858 473 l 1,4,-1
 467.4 41 l 1,5,-1
 316.2 209 l 1,6,-1
 706.8 641 l 1,7,-1
 316.2 1075 l 1,8,-1
 467.4 1243 l 1,9,-1
 858 809 l 1,10,-1
 1248.6 1243 l 1,11,-1
 1399.8 1075 l 1,0,-1
EndSplineSet
EndChar
StartChar: Oslash
Encoding: 216 216 216
Width: 1653
Flags: W
Fore
1163.35 1128 m 1,0,1
 1127.35 1185 1127.35 1185 1072.45 1213 c 128,-1,2
 1017.55 1241 1017.55 1241 943.75 1241 c 0,3,4
 761.95 1241 761.95 1241 640.9 1062.5 c 128,-1,5
 519.85 884 519.85 884 519.85 612 c 0,6,7
 519.85 590 519.85 590 523.45 538 c 0,8,9
 523.45 532 l 1,10,-1
 1163.35 1128 l 1,0,1
229.15 258 m 1,11,12
 191.35 332 191.35 332 172.45 410.5 c 128,-1,13
 153.55 489 153.55 489 153.55 569 c 0,14,15
 153.55 752 153.55 752 203.05 914 c 128,-1,16
 252.55 1076 252.55 1076 348.85 1206 c 0,17,18
 464.95 1365 464.95 1365 623.8 1442.5 c 128,-1,19
 782.65 1520 782.65 1520 992.35 1520 c 0,20,21
 1125.55 1520 1125.55 1520 1230.4 1481 c 128,-1,22
 1335.25 1442 1335.25 1442 1414.45 1364 c 1,23,-1
 1646.65 1579 l 1,24,-1
 1738.45 1456 l 1,25,-1
 1506.25 1243 l 1,26,27
 1546.75 1167 1546.75 1167 1567 1086 c 128,-1,28
 1587.25 1005 1587.25 1005 1587.25 920 c 0,29,30
 1587.25 738 1587.25 738 1537.3 576 c 128,-1,31
 1487.35 414 1487.35 414 1391.95 285 c 0,32,33
 1274.95 127 1274.95 127 1114.75 49 c 128,-1,34
 954.55 -29 954.55 -29 746.65 -29 c 0,35,36
 614.35 -29 614.35 -29 508.15 12 c 128,-1,37
 401.95 53 401.95 53 319.15 135 c 1,38,-1
 92.3496 -78 l 1,39,-1
 0.549805 45 l 1,40,-1
 229.15 258 l 1,11,12
572.05 371 m 1,41,42
 607.15 312 607.15 312 662.05 281 c 128,-1,43
 716.95 250 716.95 250 787.15 250 c 0,44,45
 890.65 250 890.65 250 971.2 298.5 c 128,-1,46
 1051.75 347 1051.75 347 1108.45 442 c 0,47,48
 1162.45 534 1162.45 534 1192.6 648.5 c 128,-1,49
 1222.75 763 1222.75 763 1222.75 879 c 0,50,51
 1222.75 904 1222.75 904 1216.45 957 c 0,52,53
 1215.55 965 1215.55 965 1214.65 969 c 1,54,-1
 572.05 371 l 1,41,42
EndSplineSet
KernsSLIFO: 221 -36 0 0 193 -36 0 0 194 -36 0 0 376 -36 0 0 195 -36 0 0 192 -36 0 0 196 -36 0 0 89 -36 0 0 88 -73 0 0 86 -36 0 0 65 -36 0 0 46 -45 0 0 45 38 0 0 44 -45 0 0
EndChar
StartChar: Thorn
Encoding: 222 222 222
Width: 1441
Flags: W
Fore
373.9 1493 m 1,0,-1
 720.4 1493 l 1,1,-1
 681.7 1270 l 1,2,-1
 903.1 1270 l 2,3,4
 1114.6 1270 1114.6 1270 1234.3 1162.5 c 128,-1,5
 1354 1055 1354 1055 1354 864 c 0,6,7
 1354 747 1354 747 1314.85 642.5 c 128,-1,8
 1275.7 538 1275.7 538 1201 459 c 0,9,10
 1120.9 373 1120.9 373 1008.85 334 c 128,-1,11
 896.8 295 896.8 295 731.2 295 c 2,12,-1
 509.8 295 l 1,13,-1
 458.5 0 l 1,14,-1
 112 0 l 1,15,-1
 373.9 1493 l 1,0,-1
632.2 993 m 1,16,-1
 560.2 573 l 1,17,-1
 743.8 573 l 2,18,19
 866.2 573 866.2 573 931.45 638 c 128,-1,20
 996.7 703 996.7 703 996.7 825 c 0,21,22
 996.7 907 996.7 907 951.25 950 c 128,-1,23
 905.8 993 905.8 993 817.6 993 c 2,24,-1
 632.2 993 l 1,16,-1
EndSplineSet
EndChar
StartChar: germandbls
Encoding: 223 223 223
Width: 1397
Flags: W
Fore
322.45 1114 m 1,0,1
 360.25 1338 360.25 1338 499.3 1447 c 128,-1,2
 638.35 1556 638.35 1556 884.05 1556 c 0,3,4
 1087.45 1556 1087.45 1556 1193.2 1468 c 128,-1,5
 1298.95 1380 1298.95 1380 1298.95 1210 c 0,6,7
 1298.95 1190 1298.95 1190 1296.7 1166 c 128,-1,8
 1294.45 1142 1294.45 1142 1289.95 1115 c 1,9,-1
 1276.45 1042 l 1,10,11
 1140.55 1037 1140.55 1037 1060.45 990.5 c 128,-1,12
 980.35 944 980.35 944 980.35 872 c 0,13,14
 980.35 817 980.35 817 1072.15 745 c 0,15,16
 1080.25 739 1080.25 739 1085.65 735 c 2,17,-1
 1140.55 692 l 2,18,19
 1216.15 633 1216.15 633 1251.25 563.5 c 128,-1,20
 1286.35 494 1286.35 494 1286.35 403 c 0,21,22
 1286.35 210 1286.35 210 1161.25 90.5 c 128,-1,23
 1036.15 -29 1036.15 -29 830.95 -29 c 0,24,25
 760.75 -29 760.75 -29 692.8 -16.5 c 128,-1,26
 624.85 -4 624.85 -4 558.25 20 c 1,27,-1
 602.35 264 l 1,28,29
 652.75 237 652.75 237 702.7 223 c 128,-1,30
 752.65 209 752.65 209 799.45 209 c 0,31,32
 873.25 209 873.25 209 918.25 247 c 128,-1,33
 963.25 285 963.25 285 963.25 346 c 0,34,35
 963.25 386 963.25 386 942.55 418.5 c 128,-1,36
 921.85 451 921.85 451 852.55 506 c 2,37,-1
 797.65 549 l 2,38,39
 737.35 596 737.35 596 710.35 646.5 c 128,-1,40
 683.35 697 683.35 697 683.35 760 c 0,41,42
 683.35 898 683.35 898 765.7 997 c 128,-1,43
 848.05 1096 848.05 1096 1003.75 1145 c 1,44,45
 1004.65 1151 1004.65 1151 1005.1 1159 c 128,-1,46
 1005.55 1167 1005.55 1167 1005.55 1182 c 0,47,48
 1005.55 1249 1005.55 1249 968.65 1284 c 128,-1,49
 931.75 1319 931.75 1319 860.65 1319 c 0,50,51
 768.85 1319 768.85 1319 716.2 1265.5 c 128,-1,52
 663.55 1212 663.55 1212 644.65 1100 c 1,53,-1
 451.15 0 l 1,54,-1
 128.05 0 l 1,55,-1
 322.45 1114 l 1,0,1
EndSplineSet
EndChar
StartChar: ae
Encoding: 230 230 230
Width: 2036
Flags: W
Fore
711.55 504 m 2,0,1
 590.95 504 590.95 504 529.3 462.5 c 128,-1,2
 467.65 421 467.65 421 467.65 340 c 0,3,4
 467.65 279 467.65 279 504.1 244 c 128,-1,5
 540.55 209 540.55 209 604.45 209 c 0,6,7
 703.45 209 703.45 209 770.05 275.5 c 128,-1,8
 836.65 342 836.65 342 859.15 463 c 1,9,-1
 866.35 504 l 1,10,-1
 711.55 504 l 2,0,1
366.85 1090 m 1,11,12
 472.15 1118 472.15 1118 572.5 1132.5 c 128,-1,13
 672.85 1147 672.85 1147 766.45 1147 c 0,14,15
 900.55 1147 900.55 1147 988.75 1110.5 c 128,-1,16
 1076.95 1074 1076.95 1074 1128.25 997 c 1,17,18
 1213.75 1074 1213.75 1074 1309.6 1110.5 c 128,-1,19
 1405.45 1147 1405.45 1147 1522.45 1147 c 0,20,21
 1723.15 1147 1723.15 1147 1842.85 1025 c 128,-1,22
 1962.55 903 1962.55 903 1962.55 702 c 0,23,24
 1962.55 657 1962.55 657 1958.05 611 c 128,-1,25
 1953.55 565 1953.55 565 1944.55 518 c 1,26,-1
 1931.95 461 l 1,27,-1
 1179.55 461 l 1,28,29
 1179.55 455 1179.55 455 1178.65 443.5 c 128,-1,30
 1177.75 432 1177.75 432 1177.75 426 c 0,31,32
 1177.75 317 1177.75 317 1236.7 263 c 128,-1,33
 1295.65 209 1295.65 209 1413.55 209 c 0,34,35
 1514.35 209 1514.35 209 1626.4 242.5 c 128,-1,36
 1738.45 276 1738.45 276 1863.55 344 c 1,37,-1
 1815.85 66 l 1,38,39
 1697.95 18 1697.95 18 1580.5 -5.5 c 128,-1,40
 1463.05 -29 1463.05 -29 1341.55 -29 c 0,41,42
 1185.85 -29 1185.85 -29 1079.65 22.5 c 128,-1,43
 973.45 74 973.45 74 914.05 178 c 1,44,45
 808.75 73 808.75 73 697.6 22 c 128,-1,46
 586.45 -29 586.45 -29 462.25 -29 c 0,47,48
 309.25 -29 309.25 -29 222.85 52 c 128,-1,49
 136.45 133 136.45 133 136.45 274 c 0,50,51
 136.45 490 136.45 490 285.4 603.5 c 128,-1,52
 434.35 717 434.35 717 718.75 717 c 2,53,-1
 903.25 717 l 1,54,-1
 908.65 746 l 1,55,56
 911.35 759 911.35 759 911.8 765 c 128,-1,57
 912.25 771 912.25 771 912.25 776 c 0,58,59
 912.25 842 912.25 842 856.45 875.5 c 128,-1,60
 800.65 909 800.65 909 692.65 909 c 0,61,62
 590.05 909 590.05 909 496.9 886 c 128,-1,63
 403.75 863 403.75 863 319.15 817 c 1,64,-1
 366.85 1090 l 1,11,12
1640.35 682 m 1,65,66
 1643.05 695 1643.05 695 1644.4 708.5 c 128,-1,67
 1645.75 722 1645.75 722 1645.75 735 c 0,68,69
 1645.75 815 1645.75 815 1602.1 862 c 128,-1,70
 1558.45 909 1558.45 909 1485.55 909 c 0,71,72
 1391.05 909 1391.05 909 1324 851 c 128,-1,73
 1256.95 793 1256.95 793 1223.65 682 c 1,74,-1
 1640.35 682 l 1,65,66
EndSplineSet
EndChar
StartChar: eth
Encoding: 240 240 240
Width: 1339
Flags: W
Fore
935.35 743 m 1,0,1
 888.55 770 888.55 770 842.65 783.5 c 128,-1,2
 796.75 797 796.75 797 749.95 797 c 0,3,4
 623.95 797 623.95 797 550.6 703 c 128,-1,5
 477.25 609 477.25 609 477.25 451 c 0,6,7
 477.25 342 477.25 342 522.25 284.5 c 128,-1,8
 567.25 227 567.25 227 651.85 227 c 0,9,10
 777.85 227 777.85 227 858.85 353.5 c 128,-1,11
 939.85 480 939.85 480 939.85 678 c 0,12,13
 939.85 691 939.85 691 936.25 731 c 0,14,15
 936.25 738 936.25 738 935.35 743 c 1,0,1
1156.75 1100 m 2,16,17
 1214.35 1008 1214.35 1008 1243.6 902 c 128,-1,18
 1272.85 796 1272.85 796 1272.85 680 c 0,19,20
 1272.85 550 1272.85 550 1231.9 428.5 c 128,-1,21
 1190.95 307 1190.95 307 1112.65 207 c 0,22,23
 1021.75 91 1021.75 91 896.2 31 c 128,-1,24
 770.65 -29 770.65 -29 616.75 -29 c 0,25,26
 399.85 -29 399.85 -29 269.8 96 c 128,-1,27
 139.75 221 139.75 221 139.75 426 c 0,28,29
 139.75 706 139.75 706 303.55 880.5 c 128,-1,30
 467.35 1055 467.35 1055 731.05 1055 c 0,31,32
 775.15 1055 775.15 1055 814.3 1048 c 128,-1,33
 853.45 1041 853.45 1041 885.85 1028 c 1,34,-1
 749.95 1243 l 1,35,-1
 403.45 1135 l 1,36,-1
 371.95 1264 l 1,37,-1
 677.95 1358 l 1,38,-1
 554.65 1556 l 1,39,-1
 871.45 1556 l 1,40,-1
 945.25 1440 l 1,41,-1
 1291.75 1546 l 1,42,-1
 1323.25 1419 l 1,43,-1
 1017.25 1325 l 1,44,-1
 1156.75 1100 l 2,16,17
EndSplineSet
EndChar
StartChar: divide
Encoding: 247 247 247
Width: 1630
Flags: W
Fore
720.3 395 m 1,0,-1
 996.6 395 l 1,1,-1
 996.6 86 l 1,2,-1
 720.3 86 l 1,3,-1
 720.3 395 l 1,0,-1
720.3 1198 m 1,4,-1
 996.6 1198 l 1,5,-1
 996.6 889 l 1,6,-1
 720.3 889 l 1,7,-1
 720.3 1198 l 1,4,-1
281.1 760 m 1,8,-1
 1434.9 760 l 1,9,-1
 1434.9 524 l 1,10,-1
 281.1 524 l 1,11,-1
 281.1 760 l 1,8,-1
EndSplineSet
EndChar
StartChar: oslash
Encoding: 248 248 248
Width: 1336
Flags: W
Fore
884.45 842 m 1,0,1
 863.75 866 863.75 866 832.7 878.5 c 128,-1,2
 801.65 891 801.65 891 761.15 891 c 0,3,4
 635.15 891 635.15 891 559.1 771.5 c 128,-1,5
 483.05 652 483.05 652 474.05 438 c 1,6,-1
 884.45 842 l 1,0,1
206.75 174 m 1,7,8
 171.65 233 171.65 233 154.1 301.5 c 128,-1,9
 136.55 370 136.55 370 136.55 446 c 0,10,11
 136.55 572 136.55 572 177.5 691.5 c 128,-1,12
 218.45 811 218.45 811 296.75 911 c 0,13,14
 386.75 1028 386.75 1028 511.4 1087.5 c 128,-1,15
 636.05 1147 636.05 1147 790.85 1147 c 0,16,17
 884.45 1147 884.45 1147 961.85 1124 c 128,-1,18
 1039.25 1101 1039.25 1101 1100.45 1055 c 1,19,-1
 1273.25 1223 l 1,20,-1
 1360.55 1112 l 1,21,-1
 1195.85 950 l 1,22,23
 1232.75 891 1232.75 891 1251.2 822 c 128,-1,24
 1269.65 753 1269.65 753 1269.65 674 c 0,25,26
 1269.65 547 1269.65 547 1229.15 427.5 c 128,-1,27
 1188.65 308 1188.65 308 1111.25 209 c 0,28,29
 1020.35 93 1020.35 93 893.9 32 c 128,-1,30
 767.45 -29 767.45 -29 615.35 -29 c 0,31,32
 517.25 -29 517.25 -29 438.5 -4.5 c 128,-1,33
 359.75 20 359.75 20 298.55 70 c 1,34,-1
 124.85 -102 l 1,35,-1
 38.4502 10 l 1,36,-1
 206.75 174 l 1,7,8
518.15 283 m 1,37,38
 540.65 255 540.65 255 571.7 241 c 128,-1,39
 602.75 227 602.75 227 645.05 227 c 0,40,41
 771.95 227 771.95 227 848.9 351 c 128,-1,42
 925.85 475 925.85 475 932.15 692 c 1,43,-1
 518.15 283 l 1,37,38
EndSplineSet
EndChar
StartChar: thorn
Encoding: 254 254 254
Width: 1387
Flags: W
Fore
477.8 162 m 1,0,-1
 374.3 -426 l 1,1,-1
 50.2998 -426 l 1,2,-1
 396.8 1556 l 1,3,-1
 720.8 1556 l 1,4,-1
 615.5 956 l 1,5,6
 689.3 1054 689.3 1054 770.3 1100.5 c 128,-1,7
 851.3 1147 851.3 1147 947.6 1147 c 0,8,9
 1117.7 1147 1117.7 1147 1216.7 1027 c 128,-1,10
 1315.7 907 1315.7 907 1315.7 700 c 0,11,12
 1315.7 571 1315.7 571 1281.05 449 c 128,-1,13
 1246.4 327 1246.4 327 1181.6 227 c 0,14,15
 1099.7 101 1099.7 101 996.65 36 c 128,-1,16
 893.6 -29 893.6 -29 775.7 -29 c 0,17,18
 672.2 -29 672.2 -29 599.75 17.5 c 128,-1,19
 527.3 64 527.3 64 477.8 162 c 1,0,-1
816.2 887 m 0,20,21
 692 887 692 887 613.25 759.5 c 128,-1,22
 534.5 632 534.5 632 534.5 428 c 0,23,24
 534.5 336 534.5 336 579.05 283.5 c 128,-1,25
 623.6 231 623.6 231 702.8 231 c 0,26,27
 824.3 231 824.3 231 903.5 356.5 c 128,-1,28
 982.7 482 982.7 482 982.7 678 c 0,29,30
 982.7 780 982.7 780 939.95 833.5 c 128,-1,31
 897.2 887 897.2 887 816.2 887 c 0,20,21
EndSplineSet
EndChar
StartChar: Dcroat
Encoding: 272 272 272
Width: 1639
Flags: W
Fore
708.45 1202 m 1,0,-1
 657.15 903 l 1,1,-1
 878.55 903 l 1,2,-1
 832.65 643 l 1,3,-1
 611.25 643 l 1,4,-1
 548.25 291 l 1,5,-1
 671.55 291 l 2,6,7
 915.45 291 915.45 291 1057.2 442.5 c 128,-1,8
 1198.95 594 1198.95 594 1198.95 850 c 0,9,10
 1198.95 1024 1198.95 1024 1105.8 1113 c 128,-1,11
 1012.65 1202 1012.65 1202 829.95 1202 c 2,12,-1
 708.45 1202 l 1,0,-1
412.35 1493 m 1,13,-1
 776.85 1493 l 2,14,15
 1037.85 1493 1037.85 1493 1168.35 1458.5 c 128,-1,16
 1298.85 1424 1298.85 1424 1385.25 1343 c 0,17,18
 1472.55 1262 1472.55 1262 1517.55 1146 c 128,-1,19
 1562.55 1030 1562.55 1030 1562.55 885 c 0,20,21
 1562.55 684 1562.55 684 1486.5 504 c 128,-1,22
 1410.45 324 1410.45 324 1274.55 201 c 0,23,24
 1155.75 92 1155.75 92 998.7 46 c 128,-1,25
 841.65 0 841.65 0 514.95 0 c 2,26,-1
 150.45 0 l 1,27,-1
 262.95 643 l 1,28,-1
 78.4502 643 l 1,29,-1
 124.35 903 l 1,30,-1
 308.85 903 l 1,31,-1
 412.35 1493 l 1,13,-1
EndSplineSet
KernsSLIFO: 7922 -159 0 0 562 -159 0 0 374 -159 0 0 221 -159 0 0 8222 -36 0 0 8218 -36 0 0 376 -159 0 0 89 -159 0 0 45 38 0 0
EndChar
StartChar: dcroat
Encoding: 273 273 273
Width: 1406
Flags: W
Fore
653.45 231 m 0,0,1
 777.65 231 777.65 231 855.5 358 c 128,-1,2
 933.35 485 933.35 485 933.35 690 c 0,3,4
 933.35 783 933.35 783 889.7 835 c 128,-1,5
 846.05 887 846.05 887 767.75 887 c 0,6,7
 645.35 887 645.35 887 566.15 761.5 c 128,-1,8
 486.95 636 486.95 636 486.95 440 c 0,9,10
 486.95 338 486.95 338 529.7 284.5 c 128,-1,11
 572.45 231 572.45 231 653.45 231 c 0,0,1
992.75 956 m 1,12,-1
 1044.05 1251 l 1,13,-1
 688.55 1251 l 1,14,-1
 721.85 1440 l 1,15,-1
 1077.35 1440 l 1,16,-1
 1097.15 1556 l 1,17,-1
 1422.05 1556 l 1,18,-1
 1401.35 1440 l 1,19,-1
 1593.05 1440 l 1,20,-1
 1559.75 1251 l 1,21,-1
 1368.05 1251 l 1,22,-1
 1149.35 0 l 1,23,-1
 824.45 0 l 1,24,-1
 854.15 162 l 1,25,26
 780.35 64 780.35 64 699.35 17.5 c 128,-1,27
 618.35 -29 618.35 -29 522.05 -29 c 0,28,29
 351.95 -29 351.95 -29 252.95 91 c 128,-1,30
 153.95 211 153.95 211 153.95 418 c 0,31,32
 153.95 547 153.95 547 188.6 669 c 128,-1,33
 223.25 791 223.25 791 288.05 891 c 0,34,35
 369.95 1017 369.95 1017 473 1082 c 128,-1,36
 576.05 1147 576.05 1147 693.95 1147 c 0,37,38
 797.45 1147 797.45 1147 869.9 1100.5 c 128,-1,39
 942.35 1054 942.35 1054 992.75 956 c 1,12,-1
EndSplineSet
EndChar
StartChar: Hbar
Encoding: 294 294 294
Width: 1899
Flags: W
Fore
530.6 1493 m 1,0,-1
 877.1 1493 l 1,1,-1
 844.7 1306 l 1,0,0
 1355.9 1306 l 1,0,0
 1388.3 1493 l 1,4,-1
 1734.8 1493 l 1,5,-1
 1702.4 1306 l 1,0,0
 1828.4 1306 l 1,1,-1
 1794.2 1112 l 1,2,-1
 1668.2 1112 l 1,0,0
 1473.8 0 l 1,6,-1
 1127.3 0 l 1,7,-1
 1238 633 l 1,8,-1
 726.8 633 l 1,9,-1
 616.1 0 l 1,10,-1
 269.6 0 l 1,11,-1
 464 1112 l 1,0,0
 338 1112 l 1,3,-1
 372.2 1306 l 1,0,-1
 498.2 1306 l 1,0,0
 530.6 1493 l 1,0,-1
810.5 1112 m 1,0,0
 778.1 924 l 1,2,-1
 1289.3 924 l 1,3,-1
 1321.7 1112 l 1,0,0
 810.5 1112 l 1,0,0
EndSplineSet
EndChar
StartChar: hbar
Encoding: 295 295 295
Width: 1537
Flags: W
Fore
1371.38 682 m 2,0,-1
 1252.12 0 l 1,1,-1
 928.125 0 l 1,2,-1
 1019.03 520 l 18,4,5
 1043.78 662 1043.78 662 1048.28 722 c 128,-1,6
 1049.17 737 1049.17 737 1049.17 750 c 0,0,0
 1049.17 784 1049.17 784 1041.97 803 c 0,7,8
 1029.38 838 1029.38 838 1000.58 857.5 c 128,-1,9
 972.225 877 972.225 877 929.925 877 c 0,10,11
 829.125 877 829.125 877 756.675 790.5 c 128,-1,12
 684.225 704 684.225 704 657.225 551 c 9,13,-1
 560.925 0 l 1,14,-1
 238.725 0 l 1,15,-1
 458.325 1255 l 1,0,0
 314.325 1255 l 1,3,-1
 347.625 1449 l 1,0,-1
 491.625 1449 l 1,0,0
 510.525 1556 l 1,16,-1
 832.725 1556 l 1,17,-1
 813.825 1449 l 1,0,0
 1140.53 1449 l 1,1,-1
 1107.22 1255 l 1,2,-1
 780.525 1255 l 1,0,0
 728.325 956 l 1,18,19
 818.325 1054 818.325 1054 907.875 1100.5 c 128,-1,20
 997.875 1147 997.875 1147 1096.88 1147 c 0,21,22
 1271.47 1147 1271.47 1147 1341.22 1028 c 128,-1,23
 1385.78 952 1385.78 952 1385.78 832.5 c 0,0,0
 1385.78 764.5 1385.78 764.5 1371.38 682 c 2,0,-1
EndSplineSet
EndChar
StartChar: dotlessi
Encoding: 305 305 305
Width: 667
Flags: W
Fore
288.1 1120 m 1,0,-1
 612.1 1120 l 1,1,-1
 415 0 l 1,2,-1
 91.9004 0 l 1,3,-1
 288.1 1120 l 1,0,-1
EndSplineSet
EndChar
StartChar: kgreenlandic
Encoding: 312 312 312
Width: 1302
Flags: W
Fore
329.4 1120 m 1,0,-1
 651.6 1120 l 1,1,-1
 579.6 709 l 1,2,-1
 1022.4 1120 l 1,3,-1
 1396.8 1120 l 1,4,-1
 814.5 606 l 1,5,-1
 1239.3 0 l 1,6,-1
 848.7 0 l 1,7,-1
 537.3 467 l 1,8,-1
 455.4 0 l 1,9,-1
 133.2 0 l 1,10,-1
 329.4 1120 l 1,0,-1
EndSplineSet
EndChar
StartChar: Lslash
Encoding: 321 321 321
Width: 1276
Flags: W
Fore
428.4 1493 m 1,0,-1
 774.9 1493 l 1,1,-1
 684 977 l 1,2,-1
 990 1128 l 1,3,-1
 1084.5 918 l 1,4,-1
 634.5 698 l 1,5,-1
 564.3 291 l 1,6,-1
 1170.9 291 l 1,7,-1
 1121.4 0 l 1,8,-1
 166.5 0 l 1,9,-1
 254.7 502 l 1,10,-1
 110.7 428 l 1,11,-1
 17.0996 643 l 1,12,-1
 302.4 778 l 1,13,-1
 428.4 1493 l 1,0,-1
EndSplineSet
KernsSLIFO: 366 -73 0 0 356 -339 0 0 253 -253 0 0 221 -319 0 0 217 -73 0 0 219 -73 0 0 218 -73 0 0 210 -73 0 0 212 -73 0 0 211 -73 0 0 376 -319 0 0 255 -253 0 0 8217 -264 0 0 8221 -264 0 0 338 -73 0 0 213 -73 0 0 216 -73 0 0 220 -73 0 0 214 -73 0 0 121 -253 0 0 89 -319 0 0 87 -159 0 0 86 -282 0 0 85 -73 0 0 84 -339 0 0 79 -73 0 0
EndChar
StartChar: lslash
Encoding: 322 322 322
Width: 737
Flags: W
Fore
413.2 1556 m 1,0,-1
 737.2 1556 l 1,1,-1
 645.4 1040 l 1,2,-1
 796.6 1118 l 1,3,-1
 886.6 915 l 1,4,-1
 598.6 770 l 1,5,-1
 464.5 0 l 1,6,-1
 139.6 0 l 1,7,-1
 244.9 598 l 1,8,-1
 119.8 530 l 1,9,-1
 33.4004 733 l 1,10,-1
 292.6 868 l 1,11,-1
 413.2 1556 l 1,0,-1
EndSplineSet
EndChar
StartChar: Eng
Encoding: 330 330 330
Width: 1628
Flags: W
Fore
404.55 1493 m 1,0,-1
 715.95 1493 l 1,1,-1
 1094.85 529 l 1,2,-1
 1263.15 1493 l 1,3,-1
 1575.45 1493 l 1,4,-1
 1318.05 20 l 2,5,-1
 1278.45 -203 1278.45 -203 1158.75 -324 c 128,-1,4
 1040.85 -442 1040.85 -442 856.35 -442 c 2,5,-1
 603.45 -442 l 1,6,-1
 644.4 -207 l 1,7,-1
 793.8 -207 l 2,8,9
 885.6 -207 885.6 -207 927.9 -161 c 128,-1,10
 970.65 -115 970.65 -115 994.05 20 c 1,0,0
 623.25 964 l 1,7,-1
 454.95 0 l 1,8,-1
 143.55 0 l 1,9,-1
 404.55 1493 l 1,0,-1
EndSplineSet
EndChar
StartChar: eng
Encoding: 331 331 331
Width: 1386
Flags: W
Fore
1299.85 682 m 2,0,-1
 1183.75 20 l 2,2,3
 1145.05 -203 1145.05 -203 1025.35 -324 c 128,-1,4
 907.45 -442 907.45 -442 722.95 -442 c 2,5,-1
 470.05 -442 l 1,6,-1
 510.55 -207 l 1,7,-1
 659.95 -207 l 2,8,9
 751.75 -207 751.75 -207 794.05 -161 c 128,-1,10
 836.35 -115 836.35 -115 859.75 20 c 2,11,-1
 947.95 522 l 2,4,5
 973.15 667 973.15 667 977.65 722 c 128,-1,6
 978.55 736 978.55 736 978.55 748 c 0,0,0
 978.55 784 978.55 784 971.35 803 c 0,7,8
 957.85 838 957.85 838 929.05 858 c 128,-1,9
 900.25 877 900.25 877 858.85 877 c 0,10,11
 758.05 877 758.05 877 685.15 790 c 128,-1,12
 612.25 704 612.25 704 586.15 551 c 2,13,-1
 488.95 0 l 1,14,-1
 166.75 0 l 1,15,-1
 362.95 1120 l 1,16,-1
 685.15 1120 l 1,17,-1
 656.35 956 l 1,18,19
 746.35 1054 746.35 1054 836.35 1100 c 128,-1,20
 926.35 1147 926.35 1147 1025.35 1147 c 0,21,22
 1199.95 1147 1199.95 1147 1270.15 1028 c 128,-1,23
 1314.25 952 1314.25 952 1314.25 833 c 0,0,0
 1314.25 765 1314.25 765 1299.85 682 c 2,0,-1
EndSplineSet
EndChar
StartChar: OE
Encoding: 338 338 338
Width: 2273
Flags: W
Fore
1263.65 1202 m 1,0,-1
 1169.15 1202 l 2,1,2
 1043.15 1202 1043.15 1202 949.55 1178.5 c 128,-1,3
 855.95 1155 855.95 1155 787.55 1106 c 0,4,5
 685.85 1032 685.85 1032 624.2 907 c 128,-1,6
 562.55 782 562.55 782 562.55 647 c 0,7,8
 562.55 464 562.55 464 671 377.5 c 128,-1,9
 779.45 291 779.45 291 1008.95 291 c 2,10,-1
 1105.25 291 l 1,11,-1
 1263.65 1202 l 1,0,-1
1233.95 1493 m 1,12,-1
 2249.15 1493 l 1,13,-1
 2197.85 1202 l 1,14,-1
 1611.95 1202 l 1,15,-1
 1561.55 924 l 1,16,-1
 2115.05 924 l 1,17,-1
 2063.75 633 l 1,18,-1
 1510.25 633 l 1,19,-1
 1451.75 291 l 1,20,-1
 2059.25 291 l 1,21,-1
 2007.95 0 l 1,22,-1
 964.85 0 l 1,23,-1
 915.35 0 l 2,24,25
 574.25 0 574.25 0 387.05 151 c 128,-1,26
 199.85 302 199.85 302 199.85 575 c 0,27,28
 199.85 817 199.85 817 306.05 1022.5 c 128,-1,29
 412.25 1228 412.25 1228 599.45 1350 c 1,30,31
 714.65 1423 714.65 1423 856.4 1458 c 128,-1,32
 998.15 1493 998.15 1493 1182.65 1493 c 2,33,-1
 1233.95 1493 l 1,12,-1
EndSplineSet
EndChar
StartChar: oe
Encoding: 339 339 339
Width: 2128
Flags: W
Fore
1729.85 682 m 1,0,1
 1732.55 695 1732.55 695 1733.9 708.5 c 128,-1,2
 1735.25 722 1735.25 722 1735.25 735 c 0,3,4
 1735.25 815 1735.25 815 1692.05 862 c 128,-1,5
 1648.85 909 1648.85 909 1575.05 909 c 0,6,7
 1480.55 909 1480.55 909 1412.6 850.5 c 128,-1,8
 1344.65 792 1344.65 792 1311.35 682 c 1,9,-1
 1729.85 682 l 1,0,1
2034.05 518 m 2,10,-1
 2023.25 461 l 1,11,-1
 1269.05 461 l 1,12,13
 1269.05 455 1269.05 455 1268.15 443.5 c 128,-1,14
 1267.25 432 1267.25 432 1267.25 426 c 0,15,16
 1267.25 317 1267.25 317 1326.2 263 c 128,-1,17
 1385.15 209 1385.15 209 1503.05 209 c 0,18,19
 1603.85 209 1603.85 209 1717.25 243 c 128,-1,20
 1830.65 277 1830.65 277 1954.85 344 c 1,21,-1
 1905.35 66 l 1,22,23
 1787.45 18 1787.45 18 1670.45 -5.5 c 128,-1,24
 1553.45 -29 1553.45 -29 1431.05 -29 c 0,25,26
 1291.55 -29 1291.55 -29 1201.55 10 c 128,-1,27
 1111.55 49 1111.55 49 1059.35 131 c 1,28,29
 978.35 49 978.35 49 882.05 10 c 128,-1,30
 785.75 -29 785.75 -29 662.45 -29 c 0,31,32
 436.55 -29 436.55 -29 307.4 97.5 c 128,-1,33
 178.25 224 178.25 224 178.25 444 c 0,34,35
 178.25 571 178.25 571 219.2 691.5 c 128,-1,36
 260.15 812 260.15 812 336.65 911 c 0,37,38
 427.55 1028 427.55 1028 553.55 1087.5 c 128,-1,39
 679.55 1147 679.55 1147 834.35 1147 c 0,40,41
 960.35 1147 960.35 1147 1051.7 1106.5 c 128,-1,42
 1143.05 1066 1143.05 1066 1200.65 985 c 1,43,44
 1285.25 1066 1285.25 1066 1387.85 1106.5 c 128,-1,45
 1490.45 1147 1490.45 1147 1613.75 1147 c 0,46,47
 1814.45 1147 1814.45 1147 1934.6 1025 c 128,-1,48
 2054.75 903 2054.75 903 2054.75 702 c 0,49,50
 2054.75 662 2054.75 662 2049.35 615.5 c 128,-1,51
 2043.95 569 2043.95 569 2034.05 518 c 2,10,-1
802.85 891 m 0,52,53
 677.75 891 677.75 891 596.75 765 c 128,-1,54
 515.75 639 515.75 639 515.75 444 c 0,55,56
 515.75 338 515.75 338 559.4 282.5 c 128,-1,57
 603.05 227 603.05 227 686.75 227 c 0,58,59
 811.85 227 811.85 227 892.85 353.5 c 128,-1,60
 973.85 480 973.85 480 973.85 676 c 0,61,62
 973.85 781 973.85 781 930.2 836 c 128,-1,63
 886.55 891 886.55 891 802.85 891 c 0,52,53
EndSplineSet
EndChar
StartChar: Tbar
Encoding: 358 358 358
Width: 1338
Flags: W
TeX: 0 0 0 0
Fore
221 1493 m 1,0,-1
 1459.4 1493 l 1,1,-1
 1409 1202 l 1,2,-1
 963.5 1202 l 1,3,-1
 874.4 697 l 1,0,0
 1096.7 697 l 1,0,0
 1063.4 505 l 1,0,0
 841.1 505 l 1,0,0
 752.9 0 l 1,4,-1
 406.4 0 l 1,5,-1
 494.6 505 l 1,0,0
 272.3 505 l 1,0,0
 305.6 697 l 1,0,0
 527.9 697 l 1,0,0
 617 1202 l 1,6,-1
 170.6 1202 l 1,7,-1
 221 1493 l 1,0,-1
EndSplineSet
EndChar
StartChar: tbar
Encoding: 359 359 359
Width: 931
Flags: W
TeX: 0 0 0 0
Fore
682.7 1438 m 1,0,-1
 626.9 1120 l 1,1,-1
 959 1120 l 1,2,-1
 914 864 l 1,3,-1
 581.9 864 l 1,4,-1
 557.6 722 l 1,0,0
 723.2 722 l 1,0,0
 689 530 l 1,0,0
 523.4 530 l 1,0,0
 499.1 389 l 2,5,6
 493.7 360 493.7 360 493.7 338 c 0,0,0
 493.7 301 493.7 301 508.1 284 c 128,-1,7
 531.5 256 531.5 256 614.3 256 c 2,8,-1
 779.9 256 l 1,9,-1
 734.9 0 l 1,10,-1
 458.6 0 l 2,11,12
 267.8 0 267.8 0 203.9 88 c 128,-1,13
 163.4 145 163.4 145 163.4 250 c 0,0,0
 163.4 311 163.4 311 176.9 389 c 2,14,-1
 201.2 530 l 1,0,0
 41 530 l 1,0,0
 75.2002 722 l 1,0,0
 235.4 722 l 1,0,0
 259.7 864 l 1,15,-1
 99.5 864 l 1,16,-1
 144.5 1120 l 1,17,-1
 304.7 1120 l 1,18,-1
 360.5 1438 l 1,19,-1
 682.7 1438 l 1,0,-1
EndSplineSet
EndChar
StartChar: longs
Encoding: 383 383 383
Width: 862
Flags: W
TeX: 0 0 0 0
Fore
484.3 0 m 1,10,-1
 160.3 0 l 1,11,-1
 311.5 864 l 1,12,-1
 152.2 864 l 1,13,-1
 197.2 1120 l 1,14,-1
 355.6 1120 l 1,15,-1
 370 1198 l 1,16,17
 403.3 1384 403.3 1384 508.6 1470 c 128,-1,18
 613.9 1556 613.9 1556 808.3 1556 c 2,19,-1
 1055.8 1556 l 1,0,-1
 1013.5 1321 l 1,1,-1
 836.2 1321 l 2,2,3
 768.7 1321 768.7 1321 737.65 1293.5 c 128,-1,4
 706.6 1266 706.6 1266 694.9 1199 c 1,5,-1
 484.3 0 l 1,10,-1
EndSplineSet
EndChar
StartChar: uni0180
Encoding: 384 384 384
Width: 1388
Flags: W
TeX: 117 0 0 0
Fore
579.405 956 m 1,0,1
 663.15 1054 663.15 1054 752.284 1100.5 c 0,2,3
 841.42 1147 841.42 1147 946.72 1147 c 0,4,5
 1133.02 1147 1133.02 1147 1223.94 982.5 c 0,6,7
 1314.86 818 1314.86 818 1269.55 559 c 0,8,9
 1224.24 300 1224.24 300 1075.77 135.5 c 0,10,11
 927.287 -29 927.287 -29 740.987 -29 c 0,12,13
 635.687 -29 635.687 -29 562.822 17.5 c 0,14,15
 489.957 64 489.957 64 440.501 162 c 1,16,-1
 412.161 0 l 1,17,-1
 89.9609 0 l 1,18,-1
 306.364 1237 l 1,19,-1
 167.765 1237 l 1,20,-1
 203.628 1442 l 1,21,-1
 342.228 1442 l 1,22,-1
 362.172 1556 l 1,23,-1
 684.371 1556 l 1,24,-1
 664.428 1442 l 1,25,-1
 959.628 1442 l 1,26,-1
 923.765 1237 l 1,27,-1
 628.564 1237 l 1,28,-1
 579.405 956 l 1,0,1
666.771 231 m 0,29,30
 770.271 231 770.271 231 839.417 315 c 0,31,32
 908.562 399 908.562 399 936.554 559 c 0,33,34
 964.544 719 964.544 719 924.789 803 c 0,35,36
 885.034 887 885.034 887 781.534 887 c 0,37,38
 678.034 887 678.034 887 607.902 802.5 c 0,39,40
 537.769 718 537.769 718 509.953 559 c 0,41,42
 482.138 400 482.138 400 522.705 315.5 c 0,43,44
 563.271 231 563.271 231 666.771 231 c 0,29,30
EndSplineSet
EndChar
StartChar: uni0186
Encoding: 390 390 390
Width: 1420
Flags: W
TeX: 117 0 0 0
Fore
43.9521 82 m 1,0,1
 98.0088 391 l 1,25,-1
 181.538 318 181.538 318 269.191 284 c 128,-1,24
 356.843 250 356.843 250 460.343 250 c 0,22,23
 645.743 250 645.743 250 775.035 382 c 128,-1,21
 904.327 514 904.327 514 944.738 745 c 0,19,20
 985.326 977 985.326 977 902.218 1109 c 128,-1,18
 819.11 1241 819.11 1241 633.71 1241 c 0,16,17
 530.21 1241 530.21 1241 430.662 1207 c 128,-1,15
 331.114 1173 331.114 1173 222.044 1100 c 1,13,14
 276.102 1409 l 1,12,-1
 381.122 1464 381.122 1464 489.521 1492 c 128,-1,11
 597.92 1520 597.92 1520 710.42 1520 c 0,9,10
 1046.12 1520 1046.12 1520 1205.84 1311.5 c 128,-1,8
 1365.57 1103 1365.57 1103 1302.94 745 c 0,6,7
 1240.49 388 1240.49 388 1007.81 179.5 c 128,-1,5
 775.133 -29 775.133 -29 439.434 -29 c 0,3,4
 326.934 -29 326.934 -29 228.333 -1 c 128,-1,2
 129.73 27 129.73 27 43.9521 82 c 1,0,1
EndSplineSet
EndChar
StartChar: uni0190
Encoding: 400 400 400
Width: 1352
Flags: W
TeX: 117 0 0 0
Fore
480.951 805 m 1,0,1
 365.4 839 365.4 839 317.907 922.5 c 128,-1,40
 270.415 1006 270.415 1006 293.333 1137 c 0,38,39
 326.922 1329 326.922 1329 473.678 1424.5 c 128,-1,37
 620.436 1520 620.436 1520 882.336 1520 c 0,35,36
 979.537 1520 979.537 1520 1077.54 1504 c 128,-1,34
 1175.54 1488 1175.54 1488 1272.54 1456 c 1,32,33
 1223.2 1174 l 1,31,-1
 1145.78 1215 1145.78 1215 1063.95 1236 c 128,-1,30
 982.13 1257 982.13 1257 898.426 1257 c 0,28,29
 785.026 1257 785.026 1257 714.703 1210 c 128,-1,27
 644.381 1163 644.381 1163 629.337 1077 c 0,25,26
 613.065 984 613.065 984 669.007 938.5 c 128,-1,24
 724.946 893 724.946 893 855.446 893 c 2,22,23
 1001.25 893 l 1,21,-1
 957.861 645 l 1,20,-1
 819.261 645 l 2,19,-1
 672.562 645 672.562 645 588.227 592.5 c 128,-1,18
 503.893 540 503.893 540 486.049 438 c 0,16,17
 468.729 339 468.729 339 532.808 286 c 128,-1,15
 596.885 233 596.885 233 734.585 233 c 0,13,14
 827.284 233 827.284 233 927.946 260.5 c 128,-1,12
 1028.61 288 1028.61 288 1135.26 342 c 1,10,11
 1083.3 45 l 1,9,-1
 975.118 8 975.118 8 867.937 -10.5 c 128,-1,8
 760.749 -29 760.749 -29 657.249 -29 c 0,6,7
 363.85 -29 363.85 -29 231.056 86.5 c 128,-1,5
 98.2617 202 98.2617 202 137.099 424 c 0,3,4
 163.166 573 163.166 573 250.698 669.5 c 128,-1,2
 338.229 766 338.229 766 480.951 805 c 1,0,1
EndSplineSet
EndChar
StartChar: florin
Encoding: 402 402 402
Width: 1349
Flags: W
Fore
1285.15 1520 m 1,0,-1
 1241.05 1276 l 1,1,2
 1205.05 1299 1205.05 1299 1174.45 1309 c 128,-1,3
 1143.85 1319 1143.85 1319 1109.65 1319 c 0,4,5
 1028.65 1319 1028.65 1319 983.65 1261.5 c 128,-1,6
 938.65 1204 938.65 1204 914.35 1063 c 1,7,-1
 884.65 895 l 1,8,-1
 1161.85 895 l 1,9,-1
 1120.45 657 l 1,10,-1
 842.35 657 l 1,11,-1
 720.85 -16 l 1,12,13
 683.05 -223 683.05 -223 580.9 -324.5 c 128,-1,14
 478.75 -426 478.75 -426 307.75 -426 c 0,15,16
 231.25 -426 231.25 -426 166.9 -418.5 c 128,-1,17
 102.55 -411 102.55 -411 45.8496 -395 c 1,18,-1
 89.0498 -145 l 1,19,20
 125.05 -167 125.05 -167 158.35 -177.5 c 128,-1,21
 191.65 -188 191.65 -188 223.15 -188 c 0,22,23
 304.15 -188 304.15 -188 348.7 -132 c 128,-1,24
 393.25 -76 393.25 -76 418.45 68 c 1,25,-1
 523.75 657 l 1,26,-1
 284.35 657 l 1,27,-1
 326.65 895 l 1,28,-1
 566.05 895 l 1,29,-1
 610.15 1147 l 1,30,31
 647.95 1353 647.95 1353 751 1454.5 c 128,-1,32
 854.05 1556 854.05 1556 1025.05 1556 c 0,33,34
 1087.15 1556 1087.15 1556 1151.95 1547 c 128,-1,35
 1216.75 1538 1216.75 1538 1285.15 1520 c 1,0,-1
EndSplineSet
EndChar
StartChar: uni0194
Encoding: 404 404 404
Width: 1475
Flags: W
TeX: 0 0 0 0
Fore
765.187 510 m 1,3,-1
601.372 762 m 1,0,0
 281.055 1493 l 1,7,-1
 642.854 1493 l 1,8,-1
 853.007 1012 l 1,9,-1
 1230.56 1493 l 1,10,-1
 1594.16 1493 l 1,11,-1
 1018.08 762 l 1,5,-1
 1185.55 380.296 1185.55 380.296 1119.02 -14 c 0,0,0
 1073.38 -285.237 1073.38 -285.237 618.032 -290 c 0,0,0
 162.734 -294.857 162.734 -294.857 210.017 -14 c 0,0,0
 268.586 335.34 268.586 335.34 601.372 762 c 1,0,0
765.187 510 m 1,0,0
 558.626 245 558.626 245 537.738 125.6 c 0,0,0
 517.343 -0.0126953 517.343 -0.0126953 670.565 0 c 16,0,0
 826.269 0.0146484 826.269 0.0146484 849.008 130 c 0,0,0
 875.057 278.899 875.057 278.899 765.187 510 c 1,0,0
EndSplineSet
EndChar
StartChar: dotlessj
Encoding: 567 567 567
Width: 650
Flags: W
Fore
271.85 1120 m 1,0,-1
 595.85 1120 l 1,1,-1
 402.35 20 l 2,2,3
 360.95 -215 360.95 -215 248 -328.5 c 128,-1,4
 135.05 -442 135.05 -442 -56.6504 -442 c 2,5,-1
 -216.85 -442 l 1,6,-1
 -176.35 -207 l 1,7,-1
 -119.65 -207 l 2,8,9
 -28.75 -207 -28.75 -207 13.0996 -161.5 c 128,-1,10
 54.9502 -116 54.9502 -116 78.3496 20 c 1,11,-1
 271.85 1120 l 1,0,-1
EndSplineSet
EndChar
StartChar: uni0250
Encoding: 592 592 592
Width: 1310
Flags: W
Fore
647.538 614 m 2,0,1
 748.338 614 748.338 614 805.836 652 c 128,-1,2
 863.334 690 863.334 690 876.279 764 c 0,3,4
 888.175 832 888.175 832 853.962 870.5 c 128,-1,5
 819.746 909 819.746 909 746.846 909 c 0,6,7
 655.946 909 655.946 909 581.162 836.5 c 128,-1,8
 506.38 764 506.38 764 487.311 655 c 2,9,-1
 480.139 614 l 1,10,-1
 647.538 614 l 2,0,1
131.621 479 m 2,11,-1
 243.408 1118 l 1,12,-1
 568.309 1118 l 1,13,-1
 539.27 952 l 1,14,15
 621.913 1054 621.913 1054 711.048 1100.5 c 128,-1,16
 800.183 1147 800.183 1147 916.283 1147 c 0,17,18
 1072.89 1147 1072.89 1147 1152.78 1045.5 c 128,-1,19
 1232.67 944 1232.67 944 1204.33 782 c 0,20,21
 1169.86 585 1169.86 585 1031.82 493 c 128,-1,22
 893.775 401 893.775 401 632.775 401 c 2,23,-1
 442.876 401 l 1,24,-1
 437.978 373 l 2,25,26
 423.107 288 423.107 288 476.497 248.5 c 128,-1,27
 529.887 209 529.887 209 657.687 209 c 0,28,29
 761.187 209 761.187 209 854.311 232 c 128,-1,30
 947.434 255 947.434 255 1031.98 301 c 1,31,-1
 984.219 28 l 1,32,33
 875.824 0 875.824 0 768.886 -14.5 c 128,-1,34
 661.95 -29 661.95 -29 557.55 -29 c 0,35,36
 284.85 -29 284.85 -29 184.706 90.5 c 128,-1,37
 84.5615 210 84.5615 210 131.621 479 c 2,11,-1
EndSplineSet
EndChar
StartChar: uni0251
Encoding: 593 593 593
Width: 1393
Flags: W
TeX: 0 0 0 0
Fore
983.968 956 m 1,0,-1
 1012.66 1120 l 1,1,-1
 1336.66 1120 l 1,2,-1
 1140.72 0 l 1,3,-1
 816.723 0 l 1,4,-1
 845.063 162 l 1,5,6
 761.144 63 761.144 63 672.997 17 c 128,-1,7
 584.849 -29 584.849 -29 479.549 -29 c 0,8,9
 293.249 -29 293.249 -29 202.327 135.5 c 128,-1,10
 111.405 300 111.405 300 156.715 559 c 0,11,12
 202.025 818 202.025 818 350.503 982.5 c 128,-1,13
 498.981 1147 498.981 1147 685.281 1147 c 0,14,15
 789.682 1147 789.682 1147 862.097 1100.5 c 128,-1,16
 934.512 1054 934.512 1054 983.968 956 c 1,0,-1
644.734 231 m 0,17,18
 748.234 231 748.234 231 817.379 315 c 128,-1,19
 886.524 399 886.524 399 914.516 559 c 0,20,21
 942.506 719 942.506 719 902.751 803 c 128,-1,22
 862.997 887 862.997 887 759.497 887 c 0,23,24
 656.896 887 656.896 887 587.751 803 c 128,-1,25
 518.606 719 518.606 719 490.615 559 c 0,26,27
 462.624 399 462.624 399 502.379 315 c 128,-1,28
 542.134 231 542.134 231 644.734 231 c 0,17,18
EndSplineSet
EndChar
StartChar: uni0252
Encoding: 594 594 594
Width: 1384
Flags: W
TeX: 0 0 0 0
Fore
402.032 162 m 1,0,-1
 373.343 -2 l 1,1,-1
 49.3428 -2 l 1,2,-1
 245.277 1118 l 1,3,-1
 569.277 1118 l 1,4,-1
 540.937 956 l 1,5,6
 624.856 1055 624.856 1055 713.003 1101 c 128,-1,7
 801.151 1147 801.151 1147 906.451 1147 c 0,8,9
 1092.75 1147 1092.75 1147 1183.67 982.5 c 128,-1,10
 1274.59 818 1274.59 818 1229.29 559 c 0,11,12
 1183.98 300 1183.98 300 1035.5 135.5 c 128,-1,13
 887.019 -29 887.019 -29 700.719 -29 c 0,14,15
 596.318 -29 596.318 -29 523.903 17.5 c 128,-1,16
 451.488 64 451.488 64 402.032 162 c 1,0,-1
741.266 887 m 0,17,18
 637.766 887 637.766 887 568.621 803 c 128,-1,19
 499.476 719 499.476 719 471.484 559 c 0,20,21
 443.494 399 443.494 399 483.249 315 c 128,-1,22
 523.004 231 523.004 231 626.504 231 c 0,23,24
 729.104 231 729.104 231 798.249 315 c 128,-1,25
 867.394 399 867.394 399 895.385 559 c 0,26,27
 923.376 719 923.376 719 883.621 803 c 128,-1,28
 843.866 887 843.866 887 741.266 887 c 0,17,18
EndSplineSet
EndChar
StartChar: uni0253
Encoding: 595 595 595
Width: 1388
Flags: W
TeX: 0 0 0 0
Fore
666.771 231 m 0,0,1
 770.271 231 770.271 231 839.417 315 c 0,2,3
 908.562 399 908.562 399 936.554 559 c 0,4,5
 964.544 719 964.544 719 924.789 803 c 0,6,7
 885.034 887 885.034 887 781.534 887 c 0,8,9
 678.034 887 678.034 887 607.902 802.5 c 0,10,11
 537.769 718 537.769 718 509.953 559 c 0,12,13
 482.138 400 482.138 400 522.705 315.5 c 0,14,15
 563.271 231 563.271 231 666.771 231 c 0,0,1
581.667 958.635 m 1,16,17
 664.353 1054.63 664.353 1054.63 752.284 1100.5 c 0,18,19
 841.42 1147 841.42 1147 946.72 1147 c 0,20,21
 1133.02 1147 1133.02 1147 1223.94 982.5 c 0,22,23
 1314.86 818 1314.86 818 1269.55 559 c 0,24,25
 1224.24 300 1224.24 300 1075.77 135.5 c 0,26,27
 927.287 -29 927.287 -29 740.987 -29 c 0,28,29
 635.687 -29 635.687 -29 562.822 17.5 c 0,30,31
 489.957 64 489.957 64 440.501 162 c 1,32,-1
 412.161 0 l 1,33,-1
 89.9609 0 l 1,34,-1
 281.348 1094 l 2,35,36
 320.36 1317 320.36 1317 440.527 1438 c 0,37,38
 558.371 1556 558.371 1556 742.871 1556 c 2,39,-1
 995.774 1556 l 1,40,-1
 954.659 1321 l 1,41,-1
 805.26 1321 l 2,42,43
 713.459 1321 713.459 1321 671.213 1275 c 0,44,45
 628.965 1229 628.965 1229 605.348 1094 c 2,46,-1
 581.667 958.635 l 1,16,17
EndSplineSet
EndChar
StartChar: uni0254
Encoding: 596 596 596
Width: 1146
Flags: W
Fore
225.103 1085 m 1,0,-1
 307.025 1116 307.025 1116 386.688 1131.5 c 128,-1,25
 466.349 1147 466.349 1147 545.549 1147 c 0,23,24
 818.249 1147 818.249 1147 944.944 991.5 c 128,-1,22
 1071.64 836 1071.64 836 1023.18 559 c 0,20,21
 974.727 282 974.727 282 793.62 126.5 c 128,-1,19
 612.516 -29 612.516 -29 339.816 -29 c 0,17,18
 261.517 -29 261.517 -29 186.378 -13.5 c 128,-1,16
 111.24 2 111.24 2 41.0625 33 c 1,14,15
 92.3203 326 l 1,13,-1
 141.349 277 141.349 277 204.925 252 c 128,-1,12
 268.502 227 268.502 227 344.102 227 c 0,10,11
 479.102 227 479.102 227 569.56 314.5 c 128,-1,9
 660.017 402 660.017 402 687.482 559 c 0,7,8
 714.949 716 714.949 716 655.105 803.5 c 128,-1,6
 595.263 891 595.263 891 460.263 891 c 0,4,5
 389.163 891 389.163 891 318.814 867 c 128,-1,3
 248.466 843 248.466 843 174.02 793 c 1,1,2
 225.103 1085 l 1,0,-1
EndSplineSet
EndChar
StartChar: uni0255
Encoding: 597 597 597
Width: 1155
Flags: W
TeX: 0 0 0 0
Fore
1123.93 1085 m 1,0,-1
 1072.86 793 l 1,1,2
 1015.9 843 1015.9 843 953.949 867 c 128,-1,3
 891.998 891 891.998 891 820.897 891 c 0,4,5
 685.897 891 685.897 891 595.44 803.5 c 128,-1,6
 504.983 716 504.983 716 477.518 559 c 0,7,8
 450.051 402 450.051 402 509.894 314.5 c 128,-1,9
 569.736 227 569.736 227 704.736 227 c 0,10,11
 780.337 227 780.337 227 852.66 252 c 128,-1,12
 924.983 277 924.983 277 991.156 326 c 1,13,-1
 939.897 33 l 1,14,15
 858.874 2 858.874 2 778.312 -13.5 c 128,-1,16
 697.751 -29 697.751 -29 619.451 -29 c 0,17,18
 346.751 -29 346.751 -29 220.055 126.5 c 128,-1,19
 93.3574 282 93.3574 282 141.817 559 c 0,20,21
 190.276 836 190.276 836 371.379 991.5 c 128,-1,22
 552.483 1147 552.483 1147 825.184 1147 c 0,23,24
 904.384 1147 904.384 1147 978.619 1131.5 c 128,-1,25
 1052.86 1116 1052.86 1116 1123.93 1085 c 1,0,-1
EndSplineSet
EndChar
StartChar: uni0256
Encoding: 598 598 598
Width: 1393
Flags: W
TeX: 0 0 0 0
Fore
948.454 956 m 1,0,-1
 1053.42 1556 l 1,1,-1
 1377.42 1556 l 1,2,-1
 1105.21 0 l 1,3,-1
 781.21 0 l 1,4,-1
 809.55 162 l 1,5,6
 725.631 63 725.631 63 637.484 17 c 128,-1,7
 549.335 -29 549.335 -29 444.035 -29 c 0,8,9
 257.735 -29 257.735 -29 166.813 135.5 c 128,-1,10
 75.8916 300 75.8916 300 121.202 559 c 0,11,12
 166.513 818 166.513 818 314.99 982.5 c 128,-1,13
 463.468 1147 463.468 1147 649.769 1147 c 0,14,15
 754.168 1147 754.168 1147 826.583 1100.5 c 128,-1,16
 898.999 1054 898.999 1054 948.454 956 c 1,0,-1
609.221 231 m 0,17,18
 712.721 231 712.721 231 781.866 315 c 128,-1,19
 851.011 399 851.011 399 879.002 559 c 0,20,21
 906.993 719 906.993 719 867.238 803 c 128,-1,22
 827.483 887 827.483 887 723.983 887 c 0,23,24
 621.383 887 621.383 887 552.238 803 c 128,-1,25
 483.093 719 483.093 719 455.102 559 c 0,26,27
 427.111 399 427.111 399 466.866 315 c 128,-1,28
 506.62 231 506.62 231 609.221 231 c 0,17,18
EndSplineSet
EndChar
StartChar: uni0257
Encoding: 599 599 599
Width: 1551
Flags: W
TeX: 0 0 0 0
Fore
626.521 231 m 0,0,1
 730.021 231 730.021 231 799.166 315 c 0,2,3
 868.311 399 868.311 399 896.302 559 c 0,4,5
 924.293 719 924.293 719 884.538 803 c 0,6,7
 844.783 887 844.783 887 741.283 887 c 0,8,9
 638.684 887 638.684 887 569.538 803 c 0,10,11
 500.393 719 500.393 719 472.401 559 c 0,12,13
 444.411 399 444.411 399 484.166 315 c 0,14,15
 523.921 231 523.921 231 626.521 231 c 0,0,1
965.754 956 m 1,16,-1
 991.693 1094 l 2,17,18
 1034.3 1320.61 1034.3 1320.61 1150.88 1438 c 0,19,20
 1268.72 1556 1268.72 1556 1453.22 1556 c 2,21,-1
 1706.12 1556 l 1,22,-1
 1665.01 1321 l 1,23,-1
 1515.61 1321 l 2,24,25
 1423.81 1321 1423.81 1321 1381.56 1275 c 0,26,27
 1339.31 1229 1339.31 1229 1315.69 1094 c 2,28,-1
 1122.51 0 l 1,29,-1
 798.51 0 l 1,30,-1
 826.85 162 l 1,31,32
 742.931 63 742.931 63 654.784 17 c 0,33,34
 566.636 -29 566.636 -29 461.335 -29 c 0,35,36
 275.035 -29 275.035 -29 184.114 135.5 c 0,37,38
 93.1914 300 93.1914 300 138.502 559 c 0,39,40
 183.812 818 183.812 818 332.29 982.5 c 0,41,42
 480.769 1147 480.769 1147 667.068 1147 c 0,43,44
 771.468 1147 771.468 1147 843.883 1100.5 c 0,45,46
 881.001 1076.67 881.001 1076.67 926.207 1012.17 c 0,47,48
 960.566 963.155 960.566 963.155 965.754 956 c 1,16,-1
EndSplineSet
EndChar
StartChar: uni0258
Encoding: 600 600 600
Width: 1317
Flags: W
Fore
147.431 563 m 2,0,-1
 193.965 829 193.965 829 364.432 988 c 128,-1,20
 534.897 1147 534.897 1147 772.498 1147 c 0,18,19
 1033.5 1147 1033.5 1147 1154.98 990 c 128,-1,17
 1276.47 833 1276.47 833 1228.53 559 c 0,15,16
 1179.72 280 1179.72 280 1001.05 125.5 c 128,-1,14
 822.365 -29 822.365 -29 548.765 -29 c 0,12,13
 434.465 -29 434.465 -29 324.452 -4.5 c 128,-1,11
 214.438 20 214.438 20 108.535 68 c 1,9,10
 156.818 344 l 1,8,-1
 257.423 276 257.423 276 358.213 242.5 c 128,-1,7
 459.002 209 459.002 209 560.702 209 c 0,5,6
 686.702 209 686.702 209 767.923 272 c 128,-1,4
 849.145 335 849.145 335 882.888 461 c 1,2,3
 129.588 461 l 1,1,-1
 147.431 563 l 2,0,-1
499.449 682 m 1,21,22
 917.949 682 l 1,27,-1
 922.793 792 922.793 792 874.527 850.5 c 128,-1,26
 826.261 909 826.261 909 732.661 909 c 0,24,25
 646.261 909 646.261 909 581.778 846.5 c 128,-1,23
 517.293 784 517.293 784 499.449 682 c 1,21,22
EndSplineSet
EndChar
StartChar: uni0259
Encoding: 601 601 601
Width: 1318
Flags: W
Fore
147.379 555 m 2,0,-1
 165.223 657 l 1,1,-1
 918.522 657 l 1,2,3
 928.865 783 928.865 783 869.687 846 c 128,-1,4
 810.509 909 810.509 909 684.509 909 c 0,5,6
 582.809 909 582.809 909 470.298 875.5 c 128,-1,7
 357.788 842 357.788 842 233.392 774 c 1,8,-1
 281.675 1050 l 1,9,10
 404.373 1098 404.373 1098 522.958 1122.5 c 128,-1,11
 641.545 1147 641.545 1147 755.845 1147 c 0,12,13
 1029.45 1147 1029.45 1147 1154.06 992.5 c 128,-1,14
 1278.69 838 1278.69 838 1229.88 559 c 0,15,16
 1181.94 285 1181.94 285 1005.53 128 c 128,-1,17
 829.112 -29 829.112 -29 568.112 -29 c 0,18,19
 330.513 -29 330.513 -29 215.679 130 c 128,-1,20
 100.845 289 100.845 289 147.379 555 c 2,0,-1
457.761 436 m 1,21,22
 439.917 334 439.917 334 482.532 271.5 c 128,-1,23
 525.149 209 525.149 209 611.549 209 c 0,24,25
 705.149 209 705.149 209 773.883 267.5 c 128,-1,26
 842.617 326 842.617 326 876.261 436 c 1,27,-1
 457.761 436 l 1,21,22
EndSplineSet
EndChar
StartChar: uni025A
Encoding: 602 602 602
Width: 1709
Flags: W
TeX: 0 0 0 0
Fore
920.625 540.125 m 1,0,-1
 495.458 294.961 l 1,1,2
 501.187 282.638 501.187 282.638 508.681 271.5 c 0,3,4
 551.298 209 551.298 209 637.697 209 c 0,5,6
 731.298 209 731.298 209 800.031 267.5 c 0,7,8
 868.766 326 868.766 326 902.409 436 c 2,9,-1
 920.625 540.125 l 1,0,-1
1269.09 736.047 m 1,10,11
 1272.8 654.875 1272.8 654.875 1256.03 559 c 0,12,13
 1208.09 285 1208.09 285 1031.67 128 c 0,14,15
 855.261 -29 855.261 -29 594.261 -29 c 0,16,17
 356.661 -29 356.661 -29 241.827 130 c 0,18,19
 179.623 216.131 179.623 216.131 164.771 333.671 c 1,20,-1
 934.249 777.484 l 1,21,22
 921.739 818.459 921.739 818.459 895.836 846 c 0,23,24
 836.58 909 836.58 909 710.657 909 c 0,25,26
 608.957 909 608.957 909 496.446 875.5 c 0,27,28
 383.937 842 383.937 842 259.54 774 c 1,29,-1
 307.823 1050 l 1,30,31
 430.521 1098 430.521 1098 549.106 1122.5 c 0,32,33
 667.693 1147 667.693 1147 781.993 1147 c 0,34,35
 1055.6 1147 1055.6 1147 1180.21 992.5 c 0,36,37
 1199.3 968.836 1199.3 968.836 1214.32 942.25 c 1,38,-1
 1434.88 1072 l 1,39,-1
 1614.25 1073.55 l 1,40,-1
 1584.46 903.35 l 2,41,42
 1553.68 727.396 1553.68 727.396 1578.03 671.05 c 0,43,44
 1602.57 615.85 1602.57 615.85 1697.07 615.85 c 2,45,-1
 1735.77 615.85 l 1,46,-1
 1704.39 436.45 l 1,47,-1
 1617.99 436.45 l 2,48,49
 1453.16 436.45 1453.16 436.45 1401.5 546.85 c 0,50,51
 1358.83 638.067 1358.83 638.067 1387.99 804 c 1,52,-1
 1269.09 736.047 l 1,10,11
EndSplineSet
EndChar
StartChar: uni025B
Encoding: 603 603 603
Width: 1055
Flags: W
TeX: 0 0 0 0
Fore
342.996 573 m 1,0,1
 221.578 598.553 221.578 598.553 168.302 663 c 128,-1,40
 113.631 729.134 113.631 729.134 128.827 816 c 0,38,39
 159.092 989 159.092 989 299.183 1068 c 128,-1,37
 439.274 1147 439.274 1147 655.588 1147 c 0,35,36
 739.424 1147 739.424 1147 831.509 1135 c 128,-1,34
 924.63 1123 924.63 1123 1029.1 1099 c 1,32,33
 987.818 863 l 1,31,-1
 870.459 893.789 870.459 893.789 797.133 903 c 128,-1,30
 701.6 915 701.6 915 698.343 915 c 0,28,29
 588.228 915 588.228 915 539.118 891 c 128,-1,27
 455.922 853.238 455.922 853.238 447.308 804 c 0,25,26
 435.236 735 435.236 735 504.509 705 c 128,-1,24
 556.254 681 556.254 681 650.16 681 c 2,22,23
 755.19 681 l 1,21,-1
 716.878 462 l 1,20,-1
 552.313 462 l 2,19,-1
 507.368 462 507.368 462 446.443 441 c 128,-1,18
 353.925 409.11 353.925 409.11 340.086 330 c 0,16,17
 324.479 240.796 324.479 240.796 413.292 216 c 128,-1,15
 441.975 201 441.975 201 543.912 201 c 0,13,14
 646.378 201 646.378 201 743.712 219 c 128,-1,12
 840.87 236 840.87 236 926.514 270 c 1,10,11
 885.228 34 l 1,9,-1
 779.934 6 779.934 6 684.335 -8 c 128,-1,8
 587.701 -22 587.701 -22 498.691 -22 c 0,6,7
 233.214 -22 233.214 -22 107.855 69 c 128,-1,5
 -18.8799 161 -18.8799 161 0.713867 273 c 0,3,4
 23.2812 402 23.2812 402 112.817 476 c 128,-1,2
 202.354 550 202.354 550 342.996 573 c 1,0,1
EndSplineSet
EndChar
StartChar: uni025C
Encoding: 604 604 604
Width: 1051
Flags: W
TeX: 0 0 0 0
Fore
685.668 573 m 1,0,1
 818.265 550 818.265 550 881.909 476 c 128,-1,2
 945.553 402 945.553 402 922.985 273 c 0,3,4
 903.392 161 903.392 161 744.467 69 c 128,-1,5
 587.271 -22 587.271 -22 321.792 -22 c 0,6,7
 232.783 -22 232.783 -22 141.047 -8 c 128,-1,8
 50.3457 6 50.3457 6 -45.1504 34 c 1,9,-1
 -3.86426 270 l 1,10,11
 69.8828 236 69.8828 236 161.095 219 c 128,-1,12
 252.129 201 252.129 201 354.596 201 c 0,13,14
 456.534 201 456.534 201 490.464 216 c 128,-1,15
 587.952 240.796 587.952 240.796 603.558 330 c 0,16,17
 617.397 409.11 617.397 409.11 536.036 441 c 128,-1,18
 482.46 462 482.46 462 437.514 462 c 2,19,-1
 272.95 462 l 1,20,-1
 311.262 681 l 1,21,-1
 416.292 681 l 2,22,23
 510.198 681 510.198 681 570.341 705 c 128,-1,24
 650.108 735 650.108 735 662.18 804 c 0,25,26
 670.794 853.238 670.794 853.238 600.81 891 c 128,-1,27
 560.1 915 560.1 915 449.982 915 c 0,28,29
 446.725 915 446.725 915 346.994 903 c 128,-1,30
 270.444 893.789 270.444 893.789 142.312 863 c 1,31,-1
 183.599 1099 l 1,32,33
 296.473 1123 296.473 1123 393.79 1135 c 128,-1,34
 490.075 1147 490.075 1147 573.91 1147 c 0,35,36
 790.225 1147 790.225 1147 902.675 1068 c 128,-1,37
 1015.12 989 1015.12 989 984.863 816 c 0,38,39
 969.662 729.134 969.662 729.134 891.853 663 c 128,-1,40
 816.027 598.553 816.027 598.553 685.668 573 c 1,0,1
EndSplineSet
EndChar
StartChar: uni025D
Encoding: 605 605 605
Width: 1502
Flags: W
TeX: 0 0 0 0
Fore
713.894 573 m 1,0,1
 846.49 550 846.49 550 910.135 476 c 0,2,3
 973.779 402 973.779 402 951.211 273 c 0,4,5
 931.617 161 931.617 161 772.692 69 c 0,6,7
 615.496 -22 615.496 -22 350.018 -22 c 0,8,9
 261.009 -22 261.009 -22 169.272 -8 c 0,10,11
 78.5713 6 78.5713 6 -16.9248 34 c 1,12,-1
 24.3613 270 l 1,13,14
 98.1084 236 98.1084 236 189.32 219 c 0,15,16
 280.354 201 280.354 201 382.821 201 c 0,17,18
 484.76 201 484.76 201 518.689 216 c 0,19,20
 616.178 240.796 616.178 240.796 631.783 330 c 0,21,22
 645.623 409.11 645.623 409.11 564.262 441 c 0,23,24
 510.686 462 510.686 462 465.739 462 c 2,25,-1
 301.176 462 l 1,26,-1
 339.487 681 l 1,27,-1
 444.518 681 l 2,28,29
 538.424 681 538.424 681 598.566 705 c 0,30,31
 678.334 735 678.334 735 690.405 804 c 0,32,33
 699.02 853.238 699.02 853.238 629.035 891 c 0,34,35
 588.325 915 588.325 915 478.208 915 c 0,36,37
 474.95 915 474.95 915 375.22 903 c 0,38,39
 298.67 893.789 298.67 893.789 170.538 863 c 1,40,-1
 211.824 1099 l 1,41,42
 323.972 1122.85 323.972 1122.85 422.016 1135 c 0,43,44
 518.815 1147 518.815 1147 602.136 1147 c 0,45,46
 818.45 1147 818.45 1147 930.9 1068 c 0,47,48
 996.232 1022.1 996.232 1022.1 1013.39 944.467 c 1,49,-1
 1226.67 1072 l 1,50,-1
 1406.04 1073.55 l 1,51,-1
 1376.26 903.35 l 2,52,53
 1345.48 727.396 1345.48 727.396 1369.82 671.05 c 0,54,55
 1394.37 615.85 1394.37 615.85 1488.87 615.85 c 2,56,-1
 1527.57 615.85 l 1,57,-1
 1496.18 436.45 l 1,58,-1
 1409.78 436.45 l 2,59,60
 1244.96 436.45 1244.96 436.45 1193.3 546.85 c 0,61,62
 1150.62 638.067 1150.62 638.067 1179.78 804 c 1,63,-1
 866.574 623.389 l 1,64,-1
 866.367 625.961 l 1,65,66
 802.819 590.431 802.819 590.431 713.894 573 c 1,0,1
EndSplineSet
EndChar
StartChar: uni025E
Encoding: 606 606 606
Width: 1327
Flags: W
TeX: 0 0 0 0
Fore
794.853 914.8 m 0,28,29
 495.934 914.8 495.934 914.8 431.684 552 c 1,0,0
 368.04 188.2 368.04 188.2 703.739 188.2 c 0,28,29
 782.009 188.2 782.009 188.2 831.903 216 c 128,-1,27
 897.719 252.671 897.719 252.671 908.798 316 c 0,25,26
 921.34 387.697 921.34 387.697 862.191 420 c 128,-1,24
 822.642 441.6 822.642 441.6 739.97 441.6 c 2,22,23
 591.47 441.6 l 9,0,0
 629.922 661.4 l 1,21,-1
 779.321 661.4 l 2,22,23
 851.176 661.4 851.176 661.4 902.977 684 c 128,-1,24
 979.119 717.988 979.119 717.988 992.07 792 c 0,25,26
 1001.64 846.689 1001.64 846.689 941.215 882 c 128,-1,27
 883.845 915.527 883.845 915.527 794.853 914.8 c 0,28,29
556.178 1099 m 0,32,33
 664.351 1144 664.351 1144 887.324 1145 c 0,35,36
 1121.89 1145 1121.89 1145 1231.07 1059 c 128,-1,37
 1340.06 972 1340.06 972 1314.17 824 c 0,38,39
 1296.99 725.807 1296.99 725.807 1217.92 650 c 128,-1,40
 1142.96 578.158 1142.96 578.158 986.085 552 c 1,0,1
 1128.66 525.859 1128.66 525.859 1183.45 453 c 128,-1,40
 1236.84 382 1236.84 382 1218.83 279 c 0,38,39
 1192.93 131 1192.93 131 1053.67 45 c 128,-1,37
 916.214 -40.7676 916.214 -40.7676 679.668 -42 c 0,35,36
 457.231 -42.9268 457.231 -42.9268 367.064 18 c 0,0,0
 64.0576 220.312 64.0576 220.312 122.084 552 c 0,0,0
 191.349 947.931 191.349 947.931 556.178 1099 c 0,32,33
EndSplineSet
EndChar
StartChar: uni025F
Encoding: 607 607 607
Width: 655
Flags: W
Fore
315.032 1120 m 1,0,-1
 637.232 1120 l 1,1,-1
 486.082 256 l 1,2,-1
 646.282 256 l 1,3,-1
 601.497 0 l 1,4,-1
 441.297 0 l 1,5,6
 400.136 -210.323 400.136 -210.323 287.504 -323.5 c 0,7,8
 169.573 -442 169.573 -442 -14.9268 -442 c 2,9,-1
 -174.228 -442 l 1,10,-1
 -133.116 -207 l 1,11,-1
 -77.3164 -207 l 2,12,13
 14.4844 -207 14.4844 -207 56.7314 -161 c 0,14,15
 95.7686 -118.495 95.7686 -118.495 118.9 0 c 1,16,-1
 -71.7031 0 l 1,17,-1
 -26.918 256 l 1,18,-1
 163.882 256 l 1,19,-1
 315.032 1120 l 1,0,-1
EndSplineSet
EndChar
StartChar: uni0260
Encoding: 608 608 608
Width: 1553
Flags: W
TeX: 0 0 0 0
Fore
780.014 887 m 2,0,1
 680.113 887 680.113 887 609.968 805 c 0,2,3
 539.823 723 539.823 723 513.581 573 c 0,4,5
 486.641 419 486.641 419 526.732 339.5 c 0,6,7
 566.825 260 566.825 260 670.325 260 c 0,8,9
 771.125 260 771.125 260 841.27 342 c 0,10,11
 911.414 424 911.414 424 937.48 573 c 2,12,-1
 992.413 887 l 1,13,-1
 780.014 887 l 2,0,1
870.478 190 m 1,14,15
 786.733 92 786.733 92 698.587 46 c 0,16,17
 610.439 0 610.439 0 505.139 0 c 0,18,19
 320.639 0 320.639 0 228.293 161.5 c 0,20,21
 135.945 323 135.945 323 179.682 573 c 0,22,23
 219.218 799 219.218 799 367.896 959.5 c 0,24,25
 516.575 1120 516.575 1120 701.075 1120 c 2,26,-1
 1033.18 1120 l 1,27,-1
 1035.32 1120 l 1,28,29
 1076.54 1324.15 1076.54 1324.15 1189.61 1438 c 0,30,31
 1307.45 1556 1307.45 1556 1491.95 1556 c 2,32,-1
 1744.85 1556 l 1,33,-1
 1703.74 1321 l 1,34,-1
 1554.34 1321 l 2,35,36
 1462.54 1321 1462.54 1321 1420.29 1275 c 0,37,38
 1378.04 1229 1378.04 1229 1354.42 1094 c 2,39,-1
 1315.94 874 l 1,40,-1
 1314.14 874 l 1,41,-1
 1181.01 113 l 2,42,43
 1133.77 -157 1133.77 -157 955.395 -299.5 c 0,44,45
 777.015 -442 777.015 -442 485.415 -442 c 0,46,47
 390.915 -442 390.915 -442 305.514 -426 c 0,48,49
 220.112 -410 220.112 -410 136.786 -377 c 1,50,-1
 185.595 -98 l 1,51,52
 260.748 -152 260.748 -152 337.111 -178.5 c 0,53,54
 413.476 -205 413.476 -205 495.376 -205 c 0,55,56
 653.775 -205 653.775 -205 741.047 -128 c 0,57,58
 828.316 -51 828.316 -51 857.008 113 c 2,59,-1
 870.478 190 l 1,14,15
EndSplineSet
EndChar
StartChar: uni0261
Encoding: 609 609 609
Width: 1396
Flags: W
TeX: 0 0 0 0
Fore
891.315 190 m 1,0,1
 807.571 92 807.571 92 719.424 46 c 128,-1,2
 631.276 0 631.276 0 525.977 0 c 0,3,4
 341.477 0 341.477 0 249.129 161.5 c 128,-1,5
 156.782 323 156.782 323 200.519 573 c 0,6,7
 240.055 799 240.055 799 388.733 959.5 c 128,-1,8
 537.411 1120 537.411 1120 721.911 1120 c 2,9,10
 1054.01 1120 l 1,13,-1
 1378.01 1120 l 1,14,-1
 1201.84 113 l 2,15,16
 1154.61 -157 1154.61 -157 976.23 -299.5 c 128,-1,17
 797.852 -442 797.852 -442 506.252 -442 c 0,18,19
 411.752 -442 411.752 -442 326.351 -426 c 128,-1,20
 240.95 -410 240.95 -410 157.623 -377 c 1,21,-1
 206.432 -98 l 1,22,23
 281.586 -152 281.586 -152 357.949 -178.5 c 128,-1,24
 434.312 -205 434.312 -205 516.213 -205 c 0,25,26
 674.613 -205 674.613 -205 761.884 -128 c 128,-1,27
 849.153 -51 849.153 -51 877.845 113 c 2,28,-1
 891.315 190 l 1,0,1
800.851 887 m 1,29,30
 700.95 887 700.95 887 630.805 805 c 128,-1,31
 560.659 723 560.659 723 534.418 573 c 0,32,33
 507.478 419 507.478 419 547.57 339.5 c 128,-1,34
 587.661 260 587.661 260 691.161 260 c 0,35,36
 791.961 260 791.961 260 862.106 342 c 128,-1,37
 932.251 424 932.251 424 958.318 573 c 1,38,39
 1013.25 887 l 129,-1,40
 800.851 887 l 1,29,30
EndSplineSet
EndChar
StartChar: uni0262
Encoding: 610 610 610
Width: 1218
Flags: W
TeX: 0 0 0 0
Fore
986.521 101.15 m 1,0,1
 884.362 50.5752 884.362 50.5752 779.499 25.2871 c 128,-1,2
 674.635 0 674.635 0 567.715 0 c 0,3,4
 326.011 0 326.011 0 211.102 150.642 c 128,-1,5
 96.1904 301.282 96.1904 301.282 141.313 559.215 c 0,6,7
 186.942 820.037 186.942 820.037 356.963 969.595 c 128,-1,8
 526.981 1119.15 526.981 1119.15 777.109 1119.15 c 0,9,10
 873.662 1119.15 873.662 1119.15 958.575 1098.92 c 128,-1,11
 1043.48 1078.69 1043.48 1078.69 1114.94 1038.96 c 1,12,-1
 1073.64 802.878 l 1,13,14
 1001.17 851.61 1001.17 851.61 925.344 875.634 c 128,-1,15
 849.52 899.657 849.52 899.657 769.166 899.657 c 0,16,17
 620.127 899.657 620.127 899.657 524.021 811.457 c 128,-1,18
 427.917 723.259 427.917 723.259 399.219 559.215 c 0,19,20
 370.761 396.544 370.761 396.544 433.03 308.002 c 128,-1,21
 495.3 219.459 495.3 219.459 638.507 219.459 c 0,22,23
 677.388 219.459 677.388 219.459 711.66 224.607 c 128,-1,24
 745.933 229.755 745.933 229.755 774.422 240.736 c 1,25,-1
 802.635 409 l 1,26,-1
 554.234 409 l 1,27,-1
 592.896 630 l 1,28,-1
 1078.9 630 l 1,29,-1
 986.521 101.15 l 1,0,1
EndSplineSet
EndChar
StartChar: uni0263
Encoding: 611 611 611
Width: 1433
Flags: W
TeX: 0 0 0 0
Fore
955.471 590 m 1,5,-1
 1147.32 205 1147.32 205 1080.14 -179 c 0,0,0
 1040.93 -410.721 1040.93 -410.721 606.853 -415 c 0,0,0
 131.512 -419.848 131.512 -419.848 171.14 -179 c 0,0,0
 229.582 162.713 229.582 162.713 585.22 588 c 1,0,0
 317.313 1135 l 1,0,-1
 658.414 1135 l 1,1,-1
 806.433 803 l 1,2,-1
 1073.31 1135 l 1,3,-1
 1414.41 1135 l 1,4,-1
 955.471 590 l 1,5,-1
730.508 369 m 1,0,0
 474.098 58.5127 474.098 58.5127 454.503 -66.5996 c 0,0,0
 435.015 -190.809 435.015 -190.809 627.175 -190.8 c 16,0,0
 810.777 -190.785 810.777 -190.785 832.503 -66.5996 c 0,0,0
 860.773 95 860.773 95 730.508 369 c 1,0,0
EndSplineSet
EndChar
StartChar: uni0264
Encoding: 612 612 612
Width: 1249
Flags: W
TeX: 0 0 0 0
Fore
606.622 136 m 0,0,0
 653.422 136 653.422 136 668.599 222.75 c 0,0,0
 679.006 282.235 679.006 282.235 645.66 354 c 1,0,0
 586.309 280 586.309 280 576.293 222.75 c 0,0,0
 561.631 140 561.631 140 606.622 136 c 0,0,0
497.247 586 m 1,0,0
 232.466 1120 l 1,8,-1
 573.566 1120 l 1,9,-1
 721.585 788 l 1,10,-1
 988.47 1120 l 1,11,-1
 1329.57 1120 l 1,0,-1
 869.722 575 l 1,0,0
 987.462 335.898 987.462 335.898 953.367 132.25 c 0,0,0
 912.1 -120 912.1 -120 564.763 -120 c 0,0,0
 208.138 -120 208.138 -120 252.268 132.25 c 0,0,0
 289.312 344 289.312 344 497.247 586 c 1,0,0
EndSplineSet
EndChar
StartChar: uni0265
Encoding: 613 613 613
Width: 1392
Flags: W
Fore
242.787 436 m 2,0,-1
 362.099 1118 l 1,1,-1
 686.099 1118 l 1,2,-1
 666.679 1007 l 1,3,-1
 595.128 598 l 2,4,5
 569.412 451 569.412 451 565.641 396 c 128,-1,6
 561.868 341 561.868 341 571.72 315 c 0,7,8
 584.496 280 584.496 280 613.485 260.5 c 128,-1,9
 642.474 241 642.474 241 683.874 241 c 0,10,11
 784.674 241 784.674 241 857.406 327.5 c 128,-1,12
 930.139 414 930.139 414 956.905 567 c 2,13,-1
 1053.3 1118 l 1,14,-1
 1375.5 1118 l 1,15,-1
 1103.29 -438 l 1,16,-1
 781.088 -438 l 1,17,-1
 886.054 162 l 1,18,19
 796.009 64 796.009 64 705.974 17.5 c 128,-1,20
 615.939 -29 615.939 -29 516.939 -29 c 0,21,22
 342.339 -29 342.339 -29 272.708 90 c 128,-1,23
 203.075 209 203.075 209 242.787 436 c 2,0,-1
EndSplineSet
EndChar
StartChar: uni0266
Encoding: 614 614 614
Width: 1378
Flags: W
Fore
1217.21 682 m 2,0,-1
 1097.9 0 l 1,1,-1
 773.901 0 l 1,2,-1
 793.321 111 l 1,3,-1
 864.872 520 l 2,4,5
 890.588 667 890.588 667 894.359 722 c 0,6,7
 898.132 777 898.132 777 888.28 803 c 0,8,9
 875.504 838 875.504 838 846.515 857.5 c 0,10,11
 817.526 877 817.526 877 776.125 877 c 0,12,13
 675.326 877 675.326 877 602.594 790.5 c 0,14,15
 529.861 704 529.861 704 503.095 551 c 2,16,-1
 406.701 0 l 1,17,-1
 84.502 0 l 1,18,-1
 275.889 1094 l 2,19,20
 314.9 1317 314.9 1317 435.068 1438 c 0,21,22
 552.912 1556 552.912 1556 737.412 1556 c 2,23,-1
 990.313 1556 l 1,24,-1
 949.201 1321 l 1,25,-1
 799.801 1321 l 2,26,27
 708.001 1321 708.001 1321 665.753 1275 c 0,28,29
 623.506 1229 623.506 1229 599.889 1094 c 2,30,-1
 576.168 958.41 l 1,31,32
 665.102 1054.57 665.102 1054.57 754.026 1100.5 c 0,33,34
 844.061 1147 844.061 1147 943.061 1147 c 0,35,36
 1117.66 1147 1117.66 1147 1187.29 1028 c 0,37,38
 1256.92 909 1256.92 909 1217.21 682 c 2,0,-1
EndSplineSet
EndChar
StartChar: uni0267
Encoding: 615 615 615
Width: 1382
Flags: W
Fore
619.126 958.41 m 1,0,1
 708.06 1054.57 708.06 1054.57 796.984 1100.5 c 0,2,3
 887.02 1147 887.02 1147 986.015 1147 c 0,4,5
 1160.61 1147 1160.61 1147 1230.25 1028 c 0,6,7
 1299.88 909 1299.88 909 1260.17 682 c 2,8,-1
 1182.84 240 l 1,9,-1
 1144.36 20 l 1,10,-1
 1140.86 0 l 2,11,12
 1099.91 -208.483 1099.91 -208.483 985.178 -324 c 0,13,14
 867.335 -442 867.335 -442 682.835 -442 c 2,15,-1
 429.936 -442 l 1,16,-1
 471.046 -207 l 1,17,-1
 620.446 -207 l 2,18,19
 712.246 -207 712.246 -207 754.494 -161 c 0,20,21
 796.741 -115 796.741 -115 820.358 20 c 2,22,-1
 836.279 111 l 1,23,-1
 858.847 240 l 1,24,-1
 907.83 520 l 2,25,26
 933.547 667 933.547 667 937.317 722 c 0,27,28
 941.09 777 941.09 777 931.238 803 c 0,29,30
 918.462 838 918.462 838 889.473 857.5 c 0,31,32
 860.484 877 860.484 877 819.084 877 c 0,33,34
 718.284 877 718.284 877 645.552 790.5 c 0,35,36
 572.819 704 572.819 704 546.054 551 c 2,37,-1
 449.66 0 l 1,38,-1
 127.46 0 l 1,39,-1
 318.847 1094 l 2,40,41
 357.858 1317 357.858 1317 478.026 1438 c 0,42,43
 595.87 1556 595.87 1556 780.37 1556 c 2,44,-1
 1033.27 1556 l 1,45,-1
 992.162 1321 l 1,46,-1
 842.759 1321 l 2,47,48
 750.959 1321 750.959 1321 708.711 1275 c 0,49,50
 666.464 1229 666.464 1229 642.847 1094 c 2,51,-1
 619.126 958.41 l 1,0,1
EndSplineSet
EndChar
StartChar: uni0268
Encoding: 616 616 616
Width: 1056
Flags: W
Fore
534.632 1556 m 1,0,-1
 856.832 1556 l 1,1,-1
 805.749 1264 l 1,2,-1
 483.549 1264 l 1,3,-1
 534.632 1556 l 1,0,-1
458.357 1120 m 1,4,-1
 780.558 1120 l 1,5,-1
 695.185 632 l 1,6,-1
 876.085 632 l 1,7,-1
 842.146 438 l 1,8,-1
 661.246 438 l 1,9,-1
 584.621 0 l 1,10,-1
 262.421 0 l 1,11,-1
 339.047 438 l 1,12,-1
 146.446 438 l 1,13,-1
 180.385 632 l 1,14,-1
 372.984 632 l 1,15,-1
 458.357 1120 l 1,4,-1
EndSplineSet
EndChar
StartChar: uni0269
Encoding: 617 617 617
Width: 851
Flags: W
TeX: 0 0 0 0
Fore
291.31 1120 m 9,0,0
 615.31 1120 l 9,0,0
 499.848 460 l 2,11,-1
 476.229 325 476.229 325 502.383 279 c 128,-1,10
 533.439 224.375 533.439 224.375 620.336 233 c 2,8,9
 640.485 235 l 1,7,-1
 599.375 0 l 1,6,-1
 475.724 -2 l 2,5,-1
 294.043 -4.93848 294.043 -4.93848 214.667 116 c 128,-1,4
 136.63 235.829 136.63 235.829 175.848 460 c 2,2,3
 291.31 1120 l 9,0,0
EndSplineSet
EndChar
StartChar: uni026A
Encoding: 618 618 618
Width: 1061
Flags: W
TeX: 0 0 0 0
Fore
849.493 235 m 1,0,-1
 808.382 0 l 1,1,-1
 628.382 0 l 1,2,-1
 306.183 0 l 1,3,-1
 112.683 0 l 1,4,-1
 153.793 235 l 1,5,-1
 347.293 235 l 1,6,-1
 461.007 885 l 1,7,-1
 267.507 885 l 1,8,-1
 308.617 1120 l 1,9,-1
 502.117 1120 l 1,10,-1
 824.317 1120 l 1,11,-1
 1004.31 1120 l 1,12,-1
 963.203 885 l 1,13,-1
 783.206 885 l 1,14,-1
 669.493 235 l 1,15,-1
 849.493 235 l 1,0,-1
EndSplineSet
EndChar
StartChar: uni026B
Encoding: 619 619 619
Width: 1086
Flags: W
Fore
548.966 1556 m 1,0,-1
 871.166 1556 l 1,1,-1
 737.573 792.358 l 1,2,3
 758.53 799.809 758.53 799.809 775.124 820 c 0,4,5
 801.423 852 801.423 852 811.394 909 c 2,6,-1
 812.792 917 l 1,7,-1
 956.658 917 l 1,8,9
 932.866 781 932.866 781 866.618 707 c 0,10,11
 802.302 635.159 802.302 635.159 709.705 633.062 c 1,12,-1
 598.956 0 l 1,13,-1
 276.756 0 l 1,14,-1
 409.983 761.546 l 1,15,16
 385.668 755.277 385.668 755.277 367.639 733 c 0,17,18
 342.552 702 342.552 702 332.229 643 c 2,19,-1
 330.831 635 l 1,20,-1
 186.964 635 l 1,21,22
 210.757 771 210.757 771 277.005 845 c 0,23,24
 342.571 918.237 342.571 918.237 437.526 918.992 c 1,25,-1
 548.966 1556 l 1,0,-1
EndSplineSet
EndChar
StartChar: uni026C
Encoding: 620 620 620
Width: 1349
Flags: W
TeX: 0 0 0 0
Fore
827.312 1556 m 1,0,-1
 1149.51 1556 l 1,1,-1
 1019.53 813 l 1,2,-1
 1201.33 813 l 1,3,-1
 1164.07 600 l 1,4,-1
 982.266 600 l 1,5,-1
 877.3 0 l 1,6,-1
 555.101 0 l 1,7,-1
 660.143 600.435 l 1,8,-1
 475.741 601 l 2,9,10
 199.333 601.846 199.333 601.846 244.126 877 c 0,11,12
 295.09 1190.08 295.09 1190.08 608.133 1188 c 0,13,14
 703.619 1187.36 703.619 1187.36 753.286 1132.86 c 1,15,-1
 827.312 1556 l 1,0,-1
667.099 918 m 0,16,17
 631.803 952 631.803 952 551.546 952 c 0,18,19
 441.365 952 441.365 952 431.1 886 c 0,20,21
 419.436 811 419.436 811 513.38 811 c 2,22,-1
 693.38 811 l 1,23,24
 690.075 895 690.075 895 667.099 918 c 0,16,17
EndSplineSet
EndChar
StartChar: uni026D
Encoding: 621 621 621
Width: 670
Flags: W
Fore
370.511 1556 m 1,0,-1
 694.511 1556 l 1,1,-1
 425.799 20 l 2,2,3
 402.378 -113.88 402.378 -113.88 428.335 -161 c 0,4,5
 453.675 -207 453.675 -207 546.287 -207 c 2,6,-1
 695.687 -207 l 1,7,-1
 654.575 -442 l 1,8,-1
 401.676 -442 l 2,9,10
 216.766 -442 216.766 -442 140.619 -324 c 0,11,12
 62.7861 -203 62.7861 -203 98.3008 0 c 2,13,-1
 370.511 1556 l 1,0,-1
EndSplineSet
EndChar
StartChar: uni026E
Encoding: 622 622 622
Width: 1382
Flags: W
TeX: 0 0 0 0
Fore
907.83 520 m 2,0,1
 933.547 667 933.547 667 937.317 722 c 0,2,3
 941.09 777 941.09 777 931.238 803 c 0,4,5
 918.462 838 918.462 838 889.473 857.5 c 0,6,7
 860.484 877 860.484 877 819.084 877 c 0,8,9
 718.284 877 718.284 877 645.552 790.5 c 0,10,11
 572.819 704 572.819 704 546.054 551 c 2,12,-1
 449.66 0 l 1,13,-1
 127.46 0 l 1,14,-1
 399.67 1556 l 1,15,-1
 721.87 1556 l 1,16,-1
 616.905 956 l 1,17,18
 706.949 1054 706.949 1054 796.984 1100.5 c 0,19,20
 887.02 1147 887.02 1147 986.015 1147 c 0,21,22
 1160.61 1147 1160.61 1147 1230.25 1028 c 0,23,24
 1299.88 909 1299.88 909 1260.17 682 c 2,25,-1
 1140.65 0 l 2,26,27
 1099.91 -208.483 1099.91 -208.483 985.178 -324 c 0,28,29
 867.335 -442 867.335 -442 682.835 -442 c 2,30,-1
 429.936 -442 l 1,31,-1
 471.046 -207 l 1,32,-1
 620.446 -207 l 2,33,34
 712.246 -207 712.246 -207 754.494 -161 c 0,35,36
 796.741 -115 796.741 -115 820.358 20 c 2,37,-1
 907.83 520 l 2,0,1
EndSplineSet
EndChar
StartChar: uni026F
Encoding: 623 623 623
Width: 2030
Flags: W
Fore
878.555 184 m 1,0,1
 799.16 80 799.16 80 705.476 25.5 c 128,-1,2
 611.791 -29 611.791 -29 510.991 -29 c 0,3,4
 337.291 -29 337.291 -29 267.21 90 c 128,-1,5
 197.128 209 197.128 209 236.841 436 c 2,6,-1
 356.151 1118 l 1,7,-1
 680.151 1118 l 1,8,-1
 577.984 534 l 1,9,10
 574.811 521 574.811 521 571.911 507 c 128,-1,11
 569.012 493 569.012 493 564.464 467 c 0,12,13
 543.646 348 543.646 348 565.786 294.5 c 128,-1,14
 587.927 241 587.927 241 658.127 241 c 0,15,16
 749.927 241 749.927 241 814.572 325 c 128,-1,17
 879.217 409 879.217 409 908.833 568 c 1,18,-1
 1005.05 1118 l 1,19,-1
 1329.05 1118 l 1,20,-1
 1226.89 534 l 2,21,22
 1194.34 348 1194.34 348 1213.79 294.5 c 128,-1,23
 1233.23 241 1233.23 241 1307.03 241 c 0,24,25
 1399.73 241 1399.73 241 1464.91 325.5 c 128,-1,26
 1530.1 410 1530.1 410 1557.55 567 c 2,27,-1
 1653.95 1118 l 1,28,-1
 1977.95 1118 l 1,29,-1
 1782.01 -2 l 1,30,-1
 1458.01 -2 l 1,31,-1
 1486.71 162 l 1,32,33
 1410.68 67 1410.68 67 1325.34 19 c 128,-1,34
 1239.99 -29 1239.99 -29 1147.29 -29 c 0,35,36
 1042.89 -29 1042.89 -29 972.589 27 c 128,-1,37
 902.285 83 902.285 83 878.555 184 c 1,0,1
EndSplineSet
EndChar
StartChar: uni0270
Encoding: 624 624 624
Width: 2034
Flags: W
Fore
917.334 184 m 1,0,1
 837.939 80 837.939 80 744.256 25.5 c 128,-1,2
 650.571 -29 650.571 -29 549.771 -29 c 0,3,4
 376.071 -29 376.071 -29 305.989 90 c 128,-1,5
 235.907 209 235.907 209 275.619 436 c 2,6,-1
 394.93 1118 l 1,7,-1
 718.93 1118 l 1,8,-1
 616.764 534 l 1,9,10
 613.589 521 613.589 521 610.689 507 c 128,-1,11
 607.792 493 607.792 493 603.243 467 c 0,12,13
 582.424 348 582.424 348 604.565 294.5 c 128,-1,14
 626.705 241 626.705 241 696.905 241 c 0,15,16
 788.705 241 788.705 241 853.351 325 c 128,-1,17
 917.995 409 917.995 409 947.611 568 c 1,18,-1
 1043.83 1118 l 1,19,-1
 1367.83 1118 l 1,20,-1
 1265.67 534 l 2,21,22
 1233.12 348 1233.12 348 1252.56 294.5 c 128,-1,23
 1272 241 1272 241 1345.8 241 c 0,24,25
 1438.5 241 1438.5 241 1503.69 325.5 c 128,-1,26
 1568.87 410 1568.87 410 1596.33 567 c 2,27,-1
 1692.73 1118 l 1,28,-1
 2016.73 1118 l 1,29,-1
 1746.27 -428 l 1,30,-1
 1422.27 -428 l 1,31,-1
 1525.49 162 l 1,32,33
 1449.46 67 1449.46 67 1364.12 19 c 128,-1,34
 1278.77 -29 1278.77 -29 1186.07 -29 c 0,35,36
 1081.67 -29 1081.67 -29 1011.37 27 c 128,-1,37
 941.064 83 941.064 83 917.334 184 c 1,0,1
EndSplineSet
EndChar
StartChar: uni0271
Encoding: 625 625 625
Width: 2028
Flags: W
Fore
1298.4 934 m 1,0,1
 1377.8 1038 1377.8 1038 1471.48 1092.5 c 0,2,3
 1565.17 1147 1565.17 1147 1665.97 1147 c 0,4,5
 1839.67 1147 1839.67 1147 1909.74 1028 c 0,6,7
 1979.83 909 1979.83 909 1940.12 682 c 2,8,-1
 1826.11 20 l 2,9,10
 1787.09 -203 1787.09 -203 1666.92 -324 c 0,11,12
 1549.08 -442 1549.08 -442 1364.58 -442 c 2,13,-1
 1111.68 -442 l 1,14,-1
 1152.79 -207 l 1,15,-1
 1302.19 -207 l 2,16,17
 1393.99 -207 1393.99 -207 1436.25 -161 c 0,18,19
 1478.2 -115.313 1478.2 -115.313 1498.41 0 c 2,20,-1
 1612.49 651 l 2,21,22
 1633.31 770 1633.31 770 1611.17 823.5 c 0,23,24
 1589.03 877 1589.03 877 1518.83 877 c 0,25,26
 1427.03 877 1427.03 877 1362.38 793 c 0,27,28
 1297.74 709 1297.74 709 1268.12 550 c 2,29,-1
 1171.91 0 l 1,30,-1
 847.906 0 l 1,31,-1
 950.073 584 l 2,32,33
 982.613 770 982.613 770 963.172 823.5 c 0,34,35
 943.731 877 943.731 877 869.932 877 c 0,36,37
 777.231 877 777.231 877 712.049 792.5 c 0,38,39
 646.867 708 646.867 708 619.4 551 c 2,40,-1
 523.007 0 l 1,41,-1
 199.007 0 l 1,42,-1
 394.942 1120 l 1,43,-1
 718.942 1120 l 1,44,-1
 690.253 956 l 1,45,46
 766.271 1051 766.271 1051 851.618 1099 c 0,47,48
 936.967 1147 936.967 1147 1029.67 1147 c 0,49,50
 1134.07 1147 1134.07 1147 1204.37 1091 c 0,51,52
 1274.67 1035 1274.67 1035 1298.4 934 c 1,0,1
EndSplineSet
EndChar
StartChar: uni0272
Encoding: 626 626 626
Width: 1364
Flags: W
Fore
1278.33 682 m 2,0,-1
 1159.01 0 l 1,1,-1
 835.014 0 l 1,2,-1
 854.434 111 l 1,3,-1
 926.334 522 l 2,4,5
 951.701 667 951.701 667 955.47 722 c 0,6,7
 959.241 777 959.241 777 949.393 803 c 0,8,9
 936.616 838 936.616 838 907.628 857.5 c 0,10,11
 878.639 877 878.639 877 837.238 877 c 0,12,13
 736.438 877 736.438 877 663.707 790.5 c 0,14,15
 590.974 704 590.974 704 564.208 551 c 2,16,-1
 509.801 240 l 1,17,-1
 471.313 20 l 1,18,-1
 467.813 0 l 2,19,20
 426.856 -208.483 426.856 -208.483 312.134 -324 c 0,21,22
 194.289 -442 194.289 -442 9.79004 -442 c 2,23,-1
 -243.11 -442 l 1,24,-1
 -201.999 -207 l 1,25,-1
 -52.5986 -207 l 2,26,27
 37.4854 -207 37.4854 -207 81.4492 -161 c 0,28,29
 125.513 -114.895 125.513 -114.895 149.111 20 c 2,30,-1
 187.599 240 l 1,31,-1
 341.548 1120 l 1,32,-1
 663.75 1120 l 1,33,-1
 635.06 956 l 1,34,35
 725.104 1054 725.104 1054 815.139 1100.5 c 0,36,37
 905.174 1147 905.174 1147 1004.18 1147 c 0,38,39
 1178.78 1147 1178.78 1147 1248.4 1028 c 0,40,41
 1318.04 909 1318.04 909 1278.33 682 c 2,0,-1
EndSplineSet
EndChar
StartChar: uni0273
Encoding: 627 627 627
Width: 1543
Flags: W
Fore
985.274 722 m 2,0,1
 991.538 771.598 991.538 771.598 978.747 803 c 0,2,3
 966.173 836.725 966.173 836.725 937.069 858 c 0,4,5
 906.192 877 906.192 877 866.593 877 c 0,6,7
 773.682 877 773.682 877 692.973 790 c 0,8,9
 622.23 714.87 622.23 714.87 593.562 551 c 2,10,-1
 497.168 0 l 1,11,-1
 174.968 0 l 1,12,-1
 370.904 1120 l 1,13,-1
 693.104 1120 l 1,14,-1
 664.414 956 l 1,15,16
 757.094 1056.45 757.094 1056.45 844.405 1100 c 0,17,18
 933.262 1147 933.262 1147 1033.53 1147 c 0,19,20
 1206.84 1147 1206.84 1147 1278.21 1028 c 0,21,22
 1347.27 908.303 1347.27 908.303 1307.68 682 c 2,23,-1
 1191.87 20 l 2,24,25
 1168.44 -113.88 1168.44 -113.88 1194.41 -161 c 0,26,27
 1219.74 -207 1219.74 -207 1312.35 -207 c 2,28,-1
 1461.75 -207 l 1,29,-1
 1420.64 -442 l 1,30,-1
 1167.74 -442 l 2,31,32
 982.826 -442 982.826 -442 906.688 -324 c 0,33,34
 824.61 -196.4 824.61 -196.4 858.968 0 c 2,35,-1
 985.274 722 l 2,0,1
EndSplineSet
EndChar
StartChar: uni0274
Encoding: 628 628 628
Width: 1242
Flags: W
TeX: 0 0 0 0
Fore
196.117 1120 m 1,0,-1
 583.117 1120 l 1,1,-1
 746.431 469 l 1,2,-1
 860.317 1120 l 1,3,-1
 1188.81 1120 l 1,4,-1
 992.885 0 l 1,5,-1
 605.882 0 l 1,6,-1
 442.569 651 l 1,7,-1
 328.683 0 l 1,8,-1
 0.182617 0 l 1,9,-1
 196.117 1120 l 1,0,-1
EndSplineSet
EndChar
StartChar: uni0275
Encoding: 629 629 629
Width: 1336
Flags: W
Fore
807.721 1147 m 0,0,1
 1067.82 1147 1067.82 1147 1186.78 991 c 0,2,3
 1305.74 835 1305.74 835 1257.45 559 c 0,4,5
 1209.17 283 1209.17 283 1035.63 127 c 0,6,7
 862.088 -29 862.088 -29 601.987 -29 c 0,8,9
 340.987 -29 340.987 -29 221.129 127 c 0,10,11
 101.27 283 101.27 283 149.554 559 c 0,12,13
 197.838 835 197.838 835 372.28 991 c 0,14,15
 546.721 1147 546.721 1147 807.721 1147 c 0,0,1
762.935 891 m 0,16,17
 655.835 891 655.835 891 584.628 805.5 c 0,18,19
 530.527 740.541 530.527 740.541 501.271 632 c 1,20,-1
 899.424 632 l 1,21,-1
 931.304 632 l 1,22,23
 940.107 740.541 940.107 740.541 909.077 805.5 c 0,24,25
 868.234 891 868.234 891 762.935 891 c 0,16,17
890.909 438 m 1,26,-1
 543.286 438 l 1,27,-1
 473.841 438 l 1,28,29
 474.284 362.394 474.284 362.394 498.381 312.5 c 0,30,31
 539.674 227 539.674 227 646.773 227 c 0,32,33
 752.073 227 752.073 227 822.831 312.5 c 0,34,35
 864.123 362.395 864.123 362.395 890.909 438 c 1,26,-1
EndSplineSet
EndChar
StartChar: uni0276
Encoding: 630 630 630
Width: 1767
Flags: W
TeX: 0 0 0 0
Fore
960.882 901.5 m 1,0,-1
 860.981 901.5 l 2,1,2
 704.922 901.5 704.922 901.5 612.875 816.75 c 128,-1,3
 520.829 732 520.829 732 490.914 561 c 0,4,5
 460.867 389.25 460.867 389.25 523.399 303.75 c 128,-1,6
 585.933 218.25 585.933 218.25 741.452 218.25 c 2,7,-1
 841.353 218.25 l 1,8,-1
 960.882 901.5 l 1,0,-1
936.963 1119.75 m 2,9,-1
 1698.36 1119.75 l 1,10,-1
 1660.19 901.5 l 1,11,-1
 1284.89 901.5 l 1,12,-1
 1248.41 693 l 1,13,-1
 1597.38 693 l 1,14,-1
 1559.2 474.75 l 1,15,-1
 1210.22 474.75 l 1,16,-1
 1165.35 218.25 l 1,17,-1
 1556.17 218.25 l 1,18,-1
 1518 0 l 1,19,-1
 741.071 0 l 2,20,21
 732.296 0 732.296 0 716.302 -0.75 c 128,-1,22
 700.309 -1.5 700.309 -1.5 692.209 -1.5 c 0,23,24
 393.859 -1.5 393.859 -1.5 259.403 144.375 c 128,-1,25
 124.948 290.25 124.948 290.25 172.313 561 c 0,26,27
 219.548 831 219.548 831 404.912 976.125 c 128,-1,28
 590.275 1121.25 590.275 1121.25 888.625 1121.25 c 0,29,30
 896.05 1121.25 896.05 1121.25 912.119 1120.5 c 128,-1,31
 928.188 1119.75 928.188 1119.75 936.963 1119.75 c 2,9,-1
EndSplineSet
EndChar
StartChar: uni0277
Encoding: 631 631 631
Width: 1314
Flags: W
TeX: 0 0 0 0
Fore
784.381 565.771 m 0,28,29
 846.254 919.447 846.254 919.447 650.619 920 c 1,0,0
 453.988 920 453.988 920 391.701 563.955 c 0,28,29
 363.703 403.912 363.703 403.912 366.521 334.207 c 128,-1,27
 368.457 264 368.457 264 389.157 264 c 0,25,26
 419.509 264 419.509 264 443.303 342 c 128,-1,24
 460.742 399.163 460.742 399.163 476.273 489.515 c 2,22,23
 494.58 596.01 l 9,0,0
 692.4 596.01 l 1,21,-1
 673.62 488.451 l 2,22,23
 656.703 391.56 656.703 391.56 655.673 346.972 c 128,-1,24
 653.757 264 653.757 264 678.057 264 c 0,25,26
 701.709 263.443 701.709 263.443 727.648 342.717 c 128,-1,27
 766.505 461.464 766.505 461.464 784.381 565.771 c 0,28,29
1126.91 828.495 m 0,32,33
 1149.38 725.407 1149.38 725.407 1110.22 496.42 c 0,35,36
 1068.04 255.337 1068.04 255.337 968.305 127.668 c 128,-1,37
 867.673 0 867.673 0 734.473 0 c 0,38,39
 646.099 0 646.099 0 589.707 67.6455 c 128,-1,40
 536.264 131.753 536.264 131.753 540.107 288.295 c 1,0,1
 490.124 137.062 490.124 137.062 412.406 67.6455 c 128,-1,40
 336.673 0 336.673 0 243.973 0 c 0,38,39
 110.772 0 110.772 0 55.707 127.668 c 128,-1,37
 0.535156 253.527 0.535156 253.527 41.918 496.42 c 0,35,36
 78.23 709.211 78.23 709.211 142.312 828.495 c 0,0,0
 329.155 1176.29 329.155 1176.29 695.456 1176.29 c 0,0,0
 1051.8 1176.29 1051.8 1176.29 1126.91 828.495 c 0,32,33
EndSplineSet
EndChar
StartChar: uni0278
Encoding: 632 632 632
Width: 1503
Flags: W
TeX: 0 0 0 0
Fore
1003.38 -191 m 1,0,-1
 962.27 -426 l 1,1,-1
 782.27 -426 l 1,2,-1
 460.069 -426 l 1,3,-1
 266.569 -426 l 1,4,-1
 307.682 -191 l 1,5,-1
 501.182 -191 l 1,6,-1
 531.258 -19.0801 l 1,7,8
 318.396 10.3389 318.396 10.3389 228.763 127 c 0,9,10
 108.903 283 108.903 283 157.188 559 c 0,11,12
 205.479 835.037 205.479 835.037 379.913 991 c 0,13,14
 510.388 1107.66 510.388 1107.66 733.519 1137.08 c 1,15,-1
 765.693 1321 l 1,16,-1
 572.193 1321 l 1,17,-1
 613.306 1556 l 1,18,-1
 806.806 1556 l 1,19,-1
 1129 1556 l 1,20,-1
 1309 1556 l 1,21,-1
 1267.89 1321 l 1,22,-1
 1087.89 1321 l 1,23,-1
 1055.62 1136.52 l 1,24,25
 1264.68 1106.57 1264.68 1106.57 1352.82 991 c 0,26,27
 1471.77 835 1471.77 835 1423.48 559 c 0,28,29
 1375.19 282.917 1375.19 282.917 1201.66 127 c 0,30,31
 1073.05 11.4375 1073.05 11.4375 853.555 -18.5186 c 1,32,-1
 823.382 -191 l 1,33,-1
 1003.38 -191 l 1,0,-1
578.398 250.388 m 1,34,-1
 686.377 867.612 l 1,35,36
 626.227 846.283 626.227 846.283 592.261 805.5 c 0,37,38
 521.054 720 521.054 720 492.888 559 c 0,39,40
 464.722 398 464.722 398 506.015 312.5 c 0,41,42
 525.711 271.717 525.711 271.717 578.398 250.388 c 1,34,-1
1008.22 865.572 m 1,43,-1
 900.95 252.405 l 1,44,45
 956.681 273.606 956.681 273.606 988.865 312.5 c 0,46,47
 1059.62 398 1059.62 398 1087.78 559 c 0,48,49
 1115.98 720.173 1115.98 720.173 1075.11 805.5 c 0,50,51
 1056.48 844.373 1056.48 844.373 1008.22 865.572 c 1,43,-1
EndSplineSet
EndChar
StartChar: uni0279
Encoding: 633 633 633
Width: 1050
Flags: W
Fore
171.48 305 m 1,0,1
 209.931 283 209.931 283 249.944 272.5 c 128,-1,2
 289.957 262 289.957 262 332.257 262 c 0,3,4
 456.457 262 456.457 262 538.989 350.5 c 128,-1,5
 621.521 439 621.521 439 650.387 604 c 2,6,-1
 740.658 1120 l 1,7,-1
 1062.86 1120 l 1,8,-1
 866.922 0 l 1,9,-1
 544.722 0 l 1,10,-1
 576.911 184 l 1,11,12
 495.567 74 495.567 74 406.183 23.5 c 128,-1,13
 316.798 -27 316.798 -27 204.298 -27 c 0,14,15
 188.098 -27 188.098 -27 169.461 -25.5 c 128,-1,16
 150.823 -24 150.823 -24 115.698 -19 c 1,17,-1
 171.48 305 l 1,0,1
EndSplineSet
EndChar
StartChar: uni027A
Encoding: 634 634 634
Width: 1050
Flags: W
Fore
133.254 305 m 1,0,1
 171.706 283 171.706 283 211.719 272.5 c 128,-1,2
 251.732 262 251.732 262 294.032 262 c 0,3,4
 418.232 262 418.232 262 500.765 350.5 c 128,-1,5
 583.081 437.766 583.081 437.766 612.162 604 c 2,6,-1
 778.882 1557 l 1,7,-1
 1101.08 1557 l 1,8,-1
 828.697 0 l 1,9,-1
 506.497 0 l 1,10,-1
 538.687 184 l 1,11,12
 457.344 74 457.344 74 367.958 23.5 c 128,-1,13
 278.573 -27 278.573 -27 166.073 -27 c 0,14,15
 149.874 -27 149.874 -27 131.236 -25.5 c 128,-1,16
 112.599 -24 112.599 -24 77.4727 -19 c 1,17,-1
 133.254 305 l 1,0,1
EndSplineSet
EndChar
StartChar: uni027B
Encoding: 635 635 635
Width: 1265
Flags: W
Fore
216.166 305 m 1,0,1
 254.617 283 254.617 283 294.63 272.5 c 0,2,3
 334.644 262 334.644 262 376.943 262 c 0,4,5
 501.144 262 501.144 262 583.676 350.5 c 0,6,7
 666.208 439 666.208 439 695.074 604 c 2,8,-1
 785.344 1120 l 1,9,-1
 1107.54 1120 l 1,10,-1
 916.008 20 l 2,11,12
 892.39 -115 892.39 -115 918.543 -161 c 0,13,14
 944.695 -207 944.695 -207 1036.5 -207 c 2,15,-1
 1185.9 -207 l 1,16,-1
 1144.79 -442 l 1,17,-1
 891.884 -442 l 2,18,19
 707.384 -442 707.384 -442 630.827 -324 c 0,20,21
 552.995 -203 552.995 -203 592.008 20 c 2,22,-1
 620.42 182.411 l 1,23,24
 539.608 73.6348 539.608 73.6348 450.87 23.5 c 0,25,26
 361.484 -27 361.484 -27 248.984 -27 c 0,27,28
 232.784 -27 232.784 -27 214.147 -25.5 c 0,29,30
 195.51 -24 195.51 -24 160.385 -19 c 1,31,-1
 216.166 305 l 1,0,1
EndSplineSet
EndChar
StartChar: uni027C
Encoding: 636 636 636
Width: 967
Flags: W
Fore
1041.79 815 m 1,0,1
 1003.33 837 1003.33 837 963.316 847.5 c 128,-1,2
 923.306 858 923.306 858 881.006 858 c 0,3,4
 759.113 858 759.113 858 674.274 769.5 c 128,-1,5
 592.256 683.943 592.256 683.943 562.877 516 c 2,6,-1
 398.08 -426 l 1,7,-1
 75.8809 -426 l 1,8,-1
 346.341 1120 l 1,9,-1
 668.541 1120 l 1,10,-1
 636.352 936 l 1,11,12
 717.695 1046 717.695 1046 807.079 1096.5 c 128,-1,13
 896.465 1147 896.465 1147 1008.96 1147 c 0,14,15
 1025.16 1147 1025.16 1147 1043.8 1145.5 c 128,-1,16
 1062.44 1144 1062.44 1144 1097.57 1139 c 1,17,-1
 1041.79 815 l 1,0,1
EndSplineSet
EndChar
StartChar: uni027D
Encoding: 637 637 637
Width: 971
Flags: W
Fore
1046.85 815 m 1,0,1
 1008.4 837 1008.4 837 968.387 847.5 c 0,2,3
 928.372 858 928.372 858 886.072 858 c 0,4,5
 761.872 858 761.872 858 679.34 769.5 c 0,6,7
 596.808 681 596.808 681 567.941 516 c 2,8,-1
 481.17 20 l 2,9,10
 457.553 -115 457.553 -115 483.706 -161 c 0,11,12
 509.858 -207 509.858 -207 601.658 -207 c 2,13,-1
 751.059 -207 l 1,14,-1
 709.946 -442 l 1,15,-1
 457.046 -442 l 2,16,17
 272.546 -442 272.546 -442 195.99 -324 c 0,18,19
 118.158 -203 118.158 -203 157.17 20 c 2,20,-1
 349.607 1120 l 1,21,-1
 673.607 1120 l 1,22,-1
 641.418 936 l 1,23,24
 722.762 1046 722.762 1046 812.146 1096.5 c 0,25,26
 901.531 1147 901.531 1147 1014.04 1147 c 0,27,28
 1030.23 1147 1030.23 1147 1048.87 1145.5 c 0,29,30
 1067.5 1144 1067.5 1144 1102.63 1139 c 1,31,-1
 1046.85 815 l 1,0,1
EndSplineSet
EndChar
StartChar: uni027E
Encoding: 638 638 638
Width: 961
Flags: W
Fore
109.183 0 m 17,0,0
 223.395 658 l 2,2,3
 262.035 880.623 262.035 880.623 382.574 1002 c 128,-1,4
 500.418 1120 500.418 1120 684.918 1120 c 2,5,-1
 937.817 1120 l 1,6,-1
 896.707 885 l 1,7,-1
 747.307 885 l 2,8,9
 653.319 885 653.319 885 613.259 839 c 128,-1,10
 570.239 789.608 570.239 789.608 547.395 658 c 2,11,-1
 433.183 0 l 17,0,0
 109.183 0 l 17,0,0
EndSplineSet
EndChar
StartChar: uni027F
Encoding: 639 639 639
Width: 966
Flags: W
Fore
745.773 0 m 9,0,0
 421.773 0 l 9,0,0
 537.785 658 l 2,11,-1
 560.988 789.608 560.988 789.608 535.249 839 c 128,-1,10
 511.283 885 511.283 885 417.297 885 c 2,8,9
 267.897 885 l 1,7,-1
 309.009 1120 l 1,6,-1
 561.908 1120 l 2,5,-1
 746.408 1120 746.408 1120 822.965 1002 c 128,-1,4
 901.035 880.623 901.035 880.623 861.785 658 c 2,2,3
 745.773 0 l 9,0,0
EndSplineSet
EndChar
StartChar: uni0280
Encoding: 640 640 640
Width: 1232
Flags: W
Fore
493.475 630 m 2,0,-1
 575.375 630 575.375 630 616.073 662 c 0,9,10
 657.672 694 657.672 694 670.441 767 c 0,7,8
 683.038 839 683.038 839 652.636 871 c 0,5,6
 622.784 901 622.784 901 540.884 901 c 2,3,4
 469.784 901 l 1,2,-1
 422.374 630 l 1,1,-1
 493.475 630 l 2,0,-1
383.712 409 m 1,11,-1
 312.161 0 l 1,34,-1
 -10.0381 0 l 1,33,-1
 185.896 1120 l 1,32,-1
 631.396 1120 l 2,31,-1
 843.797 1120 843.797 1120 929.852 1046 c 0,29,30
 1015.73 971 1015.73 971 987.74 811 c 0,27,28
 968.318 700 968.318 700 904.426 628 c 0,25,26
 840.704 557 840.704 557 731.431 524 c 1,23,24
 785.682 510 785.682 510 822.285 462 c 0,21,22
 859.149 414.889 859.149 414.889 887.993 318 c 2,19,20
 982.664 0 l 1,18,-1
 655.961 0 l 1,17,-1
 574.096 278 l 2,16,-1
 553.177 349.033 553.177 349.033 519.59 378 c 0,14,15
 484.513 409 484.513 409 417.013 409 c 2,12,13
 383.712 409 l 1,11,-1
EndSplineSet
EndChar
StartChar: uni0281
Encoding: 641 641 641
Width: 1242
Flags: W
Fore
479.204 490 m 2,0,-1
 408.104 490 l 1,1,-1
 360.695 219 l 1,2,-1
 431.795 219 l 2,3,4
 513.695 219 513.695 219 554.043 249 c 0,5,6
 595.641 281 595.641 281 608.237 353 c 0,7,8
 621.008 426 621.008 426 590.605 458 c 0,9,10
 561.104 490 561.104 490 479.204 490 c 2,0,-1
446.767 711 m 1,11,-1
 480.066 711 l 2,12,13
 547.566 711 547.566 711 593.489 742 c 0,14,15
 637.212 770.967 637.212 770.967 682.983 842 c 2,16,-1
 862.117 1120 l 1,17,-1
 1188.81 1120 l 1,18,-1
 982.886 802 l 2,19,20
 920.143 705.111 920.143 705.111 866.794 658 c 0,21,22
 813.396 610 813.396 610 754.248 596 c 1,23,24
 851.975 563 851.975 563 890.854 492 c 0,25,26
 929.559 420 929.559 420 910.14 309 c 0,27,28
 882.148 149 882.148 149 770.027 74 c 0,29,30
 658.082 0 658.082 0 445.683 0 c 2,31,-1
 0.182617 0 l 1,32,-1
 196.117 1120 l 1,33,-1
 518.317 1120 l 1,34,-1
 446.767 711 l 1,11,-1
EndSplineSet
EndChar
StartChar: uni0282
Encoding: 642 642 642
Width: 1158
Flags: W
TeX: 0 0 0 0
Fore
1132.11 1085 m 1,0,-1
 1084.52 813 l 1,1,2
 989.42 861 989.42 861 897.321 885 c 0,3,4
 805.22 909 805.22 909 719.72 909 c 0,5,6
 627.92 909 627.92 909 578.908 883.5 c 0,7,8
 529.896 858 529.896 858 520.625 805 c 0,9,10
 513.103 762 513.103 762 542.829 739 c 0,11,12
 572.555 716 572.555 716 657.932 705 c 2,13,-1
 713.057 696 l 2,14,15
 954.434 661 954.434 661 1025.94 581 c 0,16,17
 1097.45 501 1097.45 501 1067.53 330 c 0,18,19
 1036.21 151 1036.21 151 901.668 61 c 0,20,21
 767.123 -29 767.123 -29 531.323 -29 c 0,22,23
 481.83 -29 481.83 -29 431.432 -24.7051 c 1,24,25
 419.175 -123.085 419.175 -123.085 440.731 -161 c 0,26,27
 466.884 -207 466.884 -207 558.684 -207 c 2,28,-1
 708.083 -207 l 1,29,-1
 666.972 -442 l 1,30,-1
 414.071 -442 l 2,31,32
 229.571 -442 229.571 -442 153.016 -324 c 0,33,34
 75.1836 -203 75.1836 -203 114.195 20 c 2,35,-1
 117.869 41 l 1,36,-1
 152.683 240 l 1,37,-1
 165.453 313 l 1,38,39
 252.656 261 252.656 261 349.357 235 c 0,40,41
 446.06 209 446.06 209 550.459 209 c 0,42,43
 644.959 209 644.959 209 697.732 238 c 0,44,45
 750.507 267 750.507 267 760.478 324 c 0,46,47
 768.875 372 768.875 372 740.136 395.5 c 0,48,49
 711.397 419 711.397 419 615.571 432 c 2,50,-1
 560.271 440 l 2,51,52
 350.054 470.411 350.054 470.411 278.19 551 c 0,53,54
 205.96 632 205.96 632 234.825 797 c 0,55,56
 265.966 975 265.966 975 390.811 1061 c 0,57,58
 515.656 1147 515.656 1147 742.456 1147 c 0,59,60
 831.556 1147 831.556 1147 927.032 1132 c 0,61,62
 1022.5 1117 1022.5 1117 1132.11 1085 c 1,0,-1
EndSplineSet
EndChar
StartChar: uni0283
Encoding: 643 643 643
Width: 805
Flags: W
Fore
996.171 1556 m 1,0,-1
 955.06 1321 l 1,1,-1
 776.856 1321 l 2,2,3
 708.456 1321 708.456 1321 676.732 1294 c 0,4,5
 644.834 1266 644.834 1266 632.938 1198 c 2,6,-1
 423.357 0 l 2,7,8
 387.494 -205 387.494 -205 269.477 -324 c 0,9,10
 151.633 -442 151.633 -442 -32.8672 -442 c 2,11,-1
 -192.167 -442 l 1,12,-1
 -151.056 -207 l 1,13,-1
 -95.2559 -207 l 2,14,15
 -3.45605 -207 -3.45605 -207 38.791 -161 c 0,16,17
 81.0391 -115 81.0391 -115 104.656 20 c 2,18,-1
 310.738 1198 l 2,19,20
 342.752 1381 342.752 1381 449.772 1468 c 0,21,22
 556.968 1556 556.968 1556 749.567 1556 c 2,23,-1
 996.171 1556 l 1,0,-1
EndSplineSet
EndChar
StartChar: uni0284
Encoding: 644 644 644
Width: 846
Flags: W
Fore
1037.17 1556 m 1,0,-1
 996.06 1321 l 1,1,-1
 817.856 1321 l 2,2,3
 749.456 1321 749.456 1321 717.646 1293.5 c 0,4,5
 685.834 1266 685.834 1266 673.938 1198 c 0,6,7
 660.312 1117.4 660.312 1117.4 509.143 256 c 1,8,-1
 669.342 256 l 1,9,-1
 624.558 0 l 1,10,-1
 464.357 0 l 1,11,12
 423.195 -210.323 423.195 -210.323 310.563 -323.5 c 0,13,14
 192.633 -442 192.633 -442 8.13281 -442 c 2,15,-1
 -151.167 -442 l 1,16,-1
 -110.056 -207 l 1,17,-1
 -54.2559 -207 l 2,18,19
 37.5439 -207 37.5439 -207 79.791 -161 c 0,20,21
 118.83 -118.495 118.83 -118.495 141.96 0 c 1,22,-1
 -48.6426 0 l 1,23,-1
 -3.85742 256 l 1,24,-1
 186.942 256 l 1,25,-1
 293.308 864 l 1,26,-1
 133.107 864 l 1,27,-1
 177.894 1120 l 1,28,-1
 338.094 1120 l 1,29,-1
 351.738 1198 l 2,30,31
 383.752 1381 383.752 1381 490.86 1468.5 c 0,32,33
 597.968 1556 597.968 1556 790.567 1556 c 2,34,-1
 1037.17 1556 l 1,0,-1
EndSplineSet
EndChar
StartChar: uni0285
Encoding: 645 645 645
Width: 1178
Flags: W
Fore
357.593 1147 m 1,0,-1
 604.192 1147 l 2,1,2
 796.792 1147 796.792 1147 873.197 1059 c 0,3,4
 949.777 972 949.777 972 917.763 789 c 2,5,-1
 783.231 20 l 2,6,7
 759.614 -115 759.614 -115 785.768 -161 c 0,8,9
 811.92 -207 811.92 -207 903.72 -207 c 2,10,-1
 959.52 -207 l 1,11,-1
 918.407 -442 l 1,12,-1
 759.107 -442 l 2,13,14
 574.607 -442 574.607 -442 498.052 -324 c 0,15,16
 421.67 -205 421.67 -205 457.532 0 c 2,17,-1
 595.562 789 l 2,18,19
 607.458 857 607.458 857 585.357 885 c 0,20,21
 563.08 912 563.08 912 494.681 912 c 2,22,-1
 316.48 912 l 1,23,-1
 357.593 1147 l 1,0,-1
EndSplineSet
EndChar
StartChar: uni0286
Encoding: 646 646 646
Width: 1073
Flags: W
TeX: 0 0 0 0
Fore
133.82 -444 m 1,0,1
 106.664 -444.18 106.664 -444.18 82.2969 -442 c 2,2,-1
 76.5703 -442 l 1,3,-1
 76.665 -441.461 l 1,4,5
 -174.289 -415.836 -174.289 -415.836 -121.373 -133 c 0,6,7
 -69.8936 142.154 -69.8936 142.154 206.812 143 c 2,8,-1
 395.013 143.576 l 1,9,-1
 579.477 1198 l 2,10,11
 611.49 1381 611.49 1381 718.51 1468 c 0,12,13
 825.705 1556 825.705 1556 1018.3 1556 c 2,14,-1
 1264.9 1556 l 1,15,-1
 1223.79 1321 l 1,16,-1
 1045.59 1321 l 2,17,18
 977.19 1321 977.19 1321 945.471 1294 c 0,19,20
 913.571 1266 913.571 1266 901.676 1198 c 2,21,-1
 717.287 144 l 1,22,-1
 868.487 144 l 1,23,-1
 831.573 -67 l 1,24,25
 781.636 -67.3926 781.636 -67.3926 677.428 -67.5938 c 1,26,27
 636.052 -225.348 636.052 -225.348 538.214 -324 c 0,28,29
 420.371 -442 420.371 -442 235.871 -442 c 2,30,-1
 134.049 -442 l 1,31,32
 133.931 -443.004 133.931 -443.004 133.82 -444 c 1,0,1
353.388 -67.6426 m 1,33,34
 228.001 -67.4502 228.001 -67.4502 170.974 -67 c 0,35,36
 77.0303 -67 77.0303 -67 62.4531 -142 c 0,37,38
 51.2041 -199.881 51.2041 -199.881 134.528 -207 c 2,39,-1
 173.481 -207 l 2,40,41
 265.282 -207 265.282 -207 307.529 -161 c 0,42,43
 334.16 -132.003 334.16 -132.003 353.388 -67.6426 c 1,33,34
EndSplineSet
EndChar
StartChar: uni0287
Encoding: 647 647 647
Width: 923
Flags: W
Fore
273.26 -318 m 1,0,-1
 328.892 0 l 1,1,-1
 -3.20801 0 l 1,2,-1
 41.5762 256 l 1,3,-1
 373.676 256 l 1,4,-1
 456.774 731 l 2,5,6
 470.421 809 470.421 809 447.33 836.5 c 128,-1,7
 424.241 864 424.241 864 341.441 864 c 2,8,-1
 175.842 864 l 1,9,-1
 220.627 1120 l 1,10,-1
 496.928 1120 l 2,11,12
 687.728 1120 687.728 1120 751.895 1031.5 c 128,-1,13
 816.062 943 816.062 943 778.975 731 c 2,14,-1
 695.876 256 l 1,15,-1
 856.076 256 l 1,16,-1
 811.292 0 l 1,17,-1
 651.092 0 l 1,18,-1
 595.459 -318 l 1,19,-1
 273.26 -318 l 1,0,-1
EndSplineSet
EndChar
StartChar: uni0288
Encoding: 648 648 648
Width: 938
Flags: W
Fore
350.819 1120 m 1,0,-1
 406.452 1438 l 1,1,-1
 728.652 1438 l 1,2,-1
 673.02 1120 l 1,3,-1
 1005.12 1120 l 1,4,-1
 960.332 864 l 1,5,-1
 628.235 864 l 1,6,-1
 480.584 20 l 2,7,8
 456.967 -115 456.967 -115 483.119 -161 c 0,9,10
 509.272 -207 509.272 -207 601.072 -207 c 2,11,-1
 749.572 -207 l 1,12,-1
 708.46 -442 l 1,13,-1
 456.46 -442 l 2,14,15
 271.96 -442 271.96 -442 195.49 -323.5 c 0,16,17
 119.021 -205 119.021 -205 158.384 20 c 2,18,-1
 306.036 864 l 1,19,-1
 145.835 864 l 1,20,-1
 190.62 1120 l 1,21,-1
 350.819 1120 l 1,0,-1
EndSplineSet
EndChar
StartChar: uni0289
Encoding: 649 649 649
Width: 1790
Flags: W
Fore
1650.88 632 m 1,0,-1
 1616.94 438 l 1,1,-1
 1436.04 438 l 1,2,-1
 1359.42 0 l 1,3,-1
 1037.22 0 l 1,4,-1
 1065.56 162 l 1,5,6
 975.511 64 975.511 64 885.926 17.5 c 0,7,8
 796.341 -29 796.341 -29 698.241 -29 c 0,9,10
 570.859 3.74121 570.859 3.74121 532.22 22.8057 c 0,11,12
 480.874 48.1416 480.874 48.1416 453.109 90 c 0,13,14
 382.577 209 382.577 209 422.29 436 c 2,15,-1
 422.64 438 l 1,16,-1
 230.039 438 l 1,17,-1
 263.978 632 l 1,18,-1
 456.577 632 l 1,19,-1
 541.95 1120 l 1,20,-1
 865.95 1120 l 1,21,-1
 846.356 1008 l 2,22,23
 830.437 917 830.437 917 805.482 779.5 c 0,24,25
 788.041 683.404 788.041 683.404 778.86 632 c 1,26,-1
 1147.77 632 l 1,27,-1
 1233.15 1120 l 1,28,-1
 1555.35 1120 l 1,29,-1
 1469.97 632 l 1,30,-1
 1650.88 632 l 1,0,-1
1101.12 438 m 1,31,-1
 748.262 438 l 1,32,33
 745.835 417.141 745.835 417.141 744.754 401.5 c 0,34,35
 740.647 342.028 740.647 342.028 751.222 315 c 0,36,37
 764.921 279.985 764.921 279.985 793.524 261 c 0,38,39
 822.151 242 822.151 242 863.551 242 c 0,40,41
 964.352 242 964.352 242 1036.99 328 c 0,42,43
 1075.5 373.587 1075.5 373.587 1101.12 438 c 1,31,-1
EndSplineSet
EndChar
StartChar: uni028A
Encoding: 650 650 650
Width: 1489
Flags: W
TeX: 0 0 0 0
Fore
661.531 837 m 1,3,4
 579.731 760.86 579.731 760.86 533.851 680 c 128,-1,14
 468.597 565 468.597 565 449.879 458 c 0,12,13
 425.037 316 425.037 316 470.077 228 c 128,-1,11
 515.291 141 515.291 141 614.741 141 c 24,9,10
 714.879 141 714.879 141 789.848 228 c 128,-1,11
 865.677 316 865.677 316 890.519 458 c 0,12,13
 909.237 565 909.237 565 883.455 680 c 128,-1,14
 865.257 764 865.257 764 810.532 836 c 1,15,-1
 860.216 1120 l 1,16,-1
 1344.01 1120 l 1,17,-1
 1309.55 923 l 1,18,-1
 1091.46 923 l 1,19,20
 1161.13 863.961 1161.13 863.961 1211.09 731 c 128,-1,21
 1251.66 623 1251.66 623 1224.02 465 c 0,22,23
 1179.59 211 1179.59 211 997.896 54 c 128,-1,24
 815.024 -104 815.024 -104 570.081 -104 c 0,25,26
 325.137 -104 325.137 -104 198.379 53 c 128,-1,27
 70.6123 210 70.6123 210 113.824 457 c 0,28,29
 142.164 619 142.164 619 219.214 731 c 128,-1,30
 306.951 858 306.951 858 401.987 923 c 1,31,-1
 183.646 923 l 1,0,-1
 218.11 1120 l 1,1,-1
 711.041 1120 l 1,2,-1
 661.531 837 l 1,3,4
EndSplineSet
EndChar
StartChar: uni028B
Encoding: 651 651 651
Width: 1489
Flags: W
TeX: 0 0 0 0
Fore
1115.58 1027 m 24,0,0
 1176.67 967.961 1176.67 967.961 1218.79 835 c 128,-1,21
 1252.99 727 1252.99 727 1225.35 569 c 0,22,23
 1180.92 315 1180.92 315 1015.75 158 c 128,-1,24
 849.508 0 849.508 0 630.808 0 c 0,25,26
 507.156 -2 l 2,5,-1
 325.476 -4.93848 325.476 -4.93848 246.1 116 c 128,-1,4
 168.062 235.829 168.062 235.829 207.28 460 c 2,2,3
 322.742 1120 l 9,0,0
 646.742 1120 l 9,0,0
 531.28 460 l 2,11,-1
 501.756 291.23 501.756 291.23 508.256 279 c 128,-1,10
 536.113 226.574 536.113 226.574 578.519 231 c 2,8,9
 597.679 233 l 8,9,10
 703.63 233 703.63 233 795.053 330 c 128,-1,11
 877.992 418 877.992 418 902.835 560 c 0,12,13
 921.553 667 921.553 667 890.372 782 c 128,-1,14
 868.301 866 868.301 866 805.657 938 c 1,15,-1
 835.742 1120 l 0,0,0
 1024.4 1115.1 1024.4 1115.1 1115.58 1027 c 24,0,0
EndSplineSet
EndChar
StartChar: uni028C
Encoding: 652 652 652
Width: 1257
Flags: W
Fore
1132.45 0 m 1,0,-1
 810.247 0 l 1,1,-1
 694.553 774 l 1,2,-1
 308.947 0 l 1,3,-1
 -14.1523 0 l 1,4,-1
 578.683 1120 l 1,5,-1
 932.383 1120 l 1,6,-1
 1132.45 0 l 1,0,-1
EndSplineSet
EndChar
StartChar: uni028D
Encoding: 653 653 653
Width: 1786
Flags: W
Fore
1624.7 0 m 1,0,-1
 1311.5 0 l 1,1,-1
 1277.35 772 l 1,2,-1
 972.197 0 l 1,3,-1
 703.097 0 l 1,4,-1
 667.553 764 l 1,5,-1
 363.797 0 l 1,6,-1
 50.5977 0 l 1,7,-1
 512.032 1120 l 1,8,-1
 863.933 1120 l 1,9,-1
 899.327 350 l 1,10,-1
 1203.23 1120 l 1,11,-1
 1555.13 1120 l 1,12,-1
 1624.7 0 l 1,0,-1
EndSplineSet
EndChar
StartChar: uni028E
Encoding: 654 654 654
Width: 1258
Flags: W
Fore
1088.72 0 m 1,0,-1
 766.521 0 l 1,1,-1
 628.576 760 l 1,2,-1
 265.22 0 l 1,3,-1
 -56.9795 0 l 1,4,-1
 581.399 1226 l 1,5,6
 678.014 1413 678.014 1413 776.097 1487.5 c 128,-1,7
 874.18 1562 874.18 1562 1013.68 1562 c 2,8,-1
 1199.98 1562 l 1,9,-1
 1158.87 1327 l 1,10,-1
 1058.07 1327 l 2,11,12
 976.167 1327 976.167 1327 933.744 1298 c 128,-1,13
 891.321 1269 891.321 1269 857.501 1194 c 1,14,-1
 843.077 1163 l 1,15,-1
 1088.72 0 l 1,0,-1
EndSplineSet
EndChar
StartChar: uni028F
Encoding: 655 655 655
Width: 1406
Flags: W
TeX: 0 0 0 0
Fore
169.725 1119.75 m 1,0,-1
 504.568 1120 l 1,1,-1
 657.333 775 l 1,2,-1
 929.368 1120 l 1,3,-1
 1266.28 1119.75 l 1,4,-1
 743.241 471.75 l 1,5,-1
 660.713 0 l 1,6,-1
 383.513 0 l 1,7,-1
 466.042 471.75 l 1,8,-1
 169.725 1119.75 l 1,0,-1
EndSplineSet
EndChar
StartChar: uni0290
Encoding: 656 656 656
Width: 1346
Flags: W
TeX: 0 0 0 0
Fore
309.879 1120 m 1,0,-1
 1189.18 1120 l 1,1,-1
 1145.45 870 l 1,2,-1
 507.028 256 l 1,3,-1
 1038.93 256 l 1,4,-1
 997.64 20 l 2,5,6
 975.626 -105.858 975.626 -105.858 983.627 -138.182 c 0,7,8
 988.1 -156.289 988.1 -156.289 1000.18 -161 c 1,9,10
 1000.83 -207 1000.83 -207 1118.13 -207 c 2,11,-1
 1267.53 -207 l 1,12,-1
 1226.42 -442 l 1,13,-1
 973.52 -442 l 2,14,15
 789.019 -442 789.019 -442 712.462 -324 c 0,16,17
 638.156 -208.483 638.156 -208.483 670.347 0 c 1,18,-1
 91.4434 0 l 1,19,-1
 135.179 250 l 1,20,-1
 773.594 864 l 1,21,-1
 265.094 864 l 1,22,-1
 309.879 1120 l 1,0,-1
EndSplineSet
EndChar
StartChar: uni0291
Encoding: 657 657 657
Width: 1132
Flags: W
TeX: 0 0 0 0
Fore
262.567 1120 m 1,0,-1
 1141.87 1120 l 1,1,-1
 1098.13 870 l 1,2,-1
 459.717 256 l 1,3,-1
 990.719 256 l 1,4,-1
 945.933 0 l 1,5,-1
 44.1328 0 l 1,6,-1
 87.8682 250 l 1,7,-1
 726.282 864 l 1,8,-1
 217.782 864 l 1,9,-1
 262.567 1120 l 1,0,-1
EndSplineSet
EndChar
StartChar: uni0292
Encoding: 658 658 658
Width: 1240
Flags: W
TeX: 0 0 0 0
Fore
364.986 478.956 m 1,21,-1
 765.339 864 l 1,8,-1
 256.839 864 l 1,9,-1
 301.624 1120 l 1,0,-1
 1180.93 1120 l 1,1,-1
 1137.19 870 l 1,2,-1
 685.063 436 l 1,0,0
 829.157 426.522 829.157 426.522 902.665 404 c 0,0,1
 1009.97 371.123 1009.97 371.123 1067.56 258.5 c 128,-1,2
 1120.3 156.152 1120.3 156.152 1095.27 13 c 0,3,4
 1056.43 -209 1056.43 -209 883.22 -324.5 c 128,-1,5
 710.015 -440 710.015 -440 416.615 -440 c 0,6,7
 313.115 -440 313.115 -440 212.4 -421.5 c 128,-1,8
 111.688 -403 111.688 -403 16.46 -366 c 1,9,-1
 68.418 -69 l 1,10,11
 156.171 -123 156.171 -123 247.21 -150.5 c 128,-1,12
 338.249 -178 338.249 -178 430.949 -178 c 0,13,14
 568.649 -178 568.649 -178 651.271 -125 c 128,-1,15
 733.893 -72 733.893 -72 751.213 27 c 0,16,17
 769.056 129 769.056 129 703.091 181.5 c 128,-1,18
 637.126 234 637.126 234 490.426 234 c 2,19,-1
 322.126 234 l 1,20,-1
 364.986 478.956 l 1,21,-1
EndSplineSet
EndChar
StartChar: uni0293
Encoding: 659 659 659
Width: 1245
Flags: W
TeX: 0 0 0 0
Fore
655.84 -125 m 1,0,1
 628.062 -60 628.062 -60 460.436 -51 c 0,2,3
 327.974 -45.2168 327.974 -45.2168 311.616 -130 c 0,4,5
 300.665 -187.127 300.665 -187.127 449.943 -183 c 0,6,7
 538.754 -180.545 538.754 -180.545 589.676 -161.743 c 0,8,9
 627.481 -147.785 627.481 -147.785 655.84 -125 c 1,0,1
759.57 66.1338 m 1,10,11
 760.32 139.59 760.32 139.59 707.659 181.5 c 0,12,13
 641.694 234 641.694 234 494.995 234 c 2,14,-1
 326.694 234 l 1,15,-1
 369.548 478.956 l 1,16,-1
 769.908 864 l 1,17,-1
 261.408 864 l 1,18,-1
 306.192 1120 l 1,19,-1
 1185.5 1120 l 1,20,-1
 1141.76 870 l 1,21,-1
 689.632 436 l 1,22,23
 833.726 426.522 833.726 426.522 907.234 404 c 0,24,25
 1014.28 371.205 1014.28 371.205 1072.13 258.5 c 0,26,27
 1124.83 155.854 1124.83 155.854 1099.83 13 c 0,28,29
 1061 -209 1061 -209 887.789 -324.5 c 2,30,-1
 875.023 -332.753 l 1,31,32
 871.824 -369.97 871.824 -369.97 865.632 -410 c 1,33,-1
 711.582 -416 l 1,34,-1
 713.77 -403.5 l 1,35,-1
 707.701 -405.023 l 2,36,37
 582.642 -440 582.642 -440 421.184 -440 c 1,38,-1
 423.436 -437.604 l 1,39,-1
 421.62 -437.5 l 2,40,41
 54.748 -419.761 54.748 -419.761 110.664 -116 c 0,42,43
 162.11 159 162.11 159 496.273 159 c 0,44,45
 660.9 159 660.9 159 759.57 66.1338 c 1,10,11
EndSplineSet
EndChar
StartChar: uni0294
Encoding: 660 660 660
Width: 1118
Flags: W
Fore
300.058 736 m 9,0,0
 383.758 736 l 1,10,11
 579.058 736 579.058 736 676.4 850 c 128,-1,9
 740.996 926 740.996 926 753.417 997 c 0,7,8
 769.709 1092.81 769.709 1092.81 729.558 1159 c 128,-1,6
 660.401 1273 660.401 1273 499.302 1273 c 0,4,5
 427.302 1273 427.302 1273 352.354 1251 c 128,-1,3
 278.479 1230 278.479 1230 200.757 1187 c 1,1,2
 252.889 1485 l 1,0,-1
 327.412 1520 327.412 1520 403.287 1537 c 128,-1,25
 479.335 1555 479.335 1555 642.235 1555 c 0,23,24
 858.653 1556.01 858.653 1556.01 1010.5 1345 c 128,-1,22
 1106.07 1212.19 1106.07 1212.19 1068.42 997 c 0,20,21
 1028 765.984 1028 765.984 863.139 621 c 128,-1,19
 754.932 526.643 754.932 526.643 580.271 496 c 1,0,0
 493.5 0 l 1,0,-1
 171.3 0 l 1,1,-1
 300.058 736 l 9,0,0
EndSplineSet
EndChar
StartChar: uni0295
Encoding: 661 661 661
Width: 1121
Flags: W
Fore
847.912 736 m 17,0,0
 719.154 0 l 1,1,-1
 396.954 0 l 1,0,-1
 483.725 496 l 1,0,0
 319.787 526.643 319.787 526.643 244.594 621 c 128,-1,19
 130.457 765.984 130.457 765.984 170.872 997 c 0,20,21
 208.518 1212.19 208.518 1212.19 350.552 1345 c 128,-1,22
 576.226 1556.01 576.226 1556.01 792.289 1555 c 0,23,24
 955.189 1555 955.189 1555 1024.94 1537 c 128,-1,25
 1094.87 1520 1094.87 1520 1157.14 1485 c 1,0,-1
 1105.01 1187 l 1,1,2
 1042.34 1230 1042.34 1230 975.809 1251 c 128,-1,3
 908.556 1273 908.556 1273 836.556 1273 c 0,4,5
 675.456 1273 675.456 1273 566.412 1159 c 128,-1,6
 503.103 1092.81 503.103 1092.81 485.871 997 c 0,7,8
 473.45 926 473.45 926 511.455 850 c 128,-1,9
 568.912 736 568.912 736 764.212 736 c 1,10,11
 847.912 736 l 17,0,0
EndSplineSet
EndChar
StartChar: uni0296
Encoding: 662 662 662
Width: 1104
Flags: W
Fore
301.088 819 m 17,0,0
 429.846 1555 l 1,1,-1
 752.046 1555 l 1,0,-1
 665.274 1059 l 1,0,0
 829.213 1028.36 829.213 1028.36 904.406 934 c 128,-1,19
 1018.54 789.016 1018.54 789.016 978.125 558 c 0,20,21
 940.482 342.807 940.482 342.807 798.447 210 c 128,-1,22
 572.773 -1.01367 572.773 -1.01367 356.711 0 c 0,23,24
 193.811 0 193.811 0 124.059 18 c 128,-1,25
 54.1328 35 54.1328 35 -8.14355 70 c 1,0,-1
 43.9893 368 l 1,1,2
 106.666 325 106.666 325 173.192 304 c 128,-1,3
 240.444 282 240.444 282 312.444 282 c 0,4,5
 473.544 282 473.544 282 582.588 396 c 128,-1,6
 645.896 462.188 645.896 462.188 663.128 558 c 0,7,8
 675.549 629 675.549 629 637.545 705 c 128,-1,9
 580.088 819 580.088 819 384.788 819 c 1,10,11
 301.088 819 l 17,0,0
EndSplineSet
EndChar
